<?xml version="1.0" encoding="UTF-8"?>
<!--Generator: Apple Native CoreSVG 149-->
<!DOCTYPE svg
PUBLIC "-//W3C//DTD SVG 1.1//EN"
       "http://www.w3.org/Graphics/SVG/1.1/DTD/svg11.dtd">
<svg version="1.1" xmlns="http://www.w3.org/2000/svg" xmlns:xlink="http://www.w3.org/1999/xlink" width="3300" height="2200">
 <!--glyph: "uni100355.medium", point size: 100.000000, font version: "Version 16.0d18e1", template writer version: "8"-->
 <g id="Notes">
  <rect height="2200" id="artboard" style="fill:white;opacity:1" width="3300" x="0" y="0"/>
  <line id="" style="fill:none;stroke:black;opacity:1;stroke-width:0.5;" x1="263" x2="3036" y1="292" y2="292"/>
  <text style="stroke:none;fill:black;font-family:-apple-system,&quot;SF Pro Display&quot;,&quot;SF Pro Text&quot;,Helvetica,sans-serif;font-weight:bold;" transform="matrix(1 0 0 1 263 322)">Weight/Scale Variations</text>
  <text style="stroke:none;fill:black;font-family:-apple-system,&quot;SF Pro Display&quot;,&quot;SF Pro Text&quot;,Helvetica,sans-serif;text-anchor:middle;" transform="matrix(1 0 0 1 559.711 322)">Ultralight</text>
  <text style="stroke:none;fill:black;font-family:-apple-system,&quot;SF Pro Display&quot;,&quot;SF Pro Text&quot;,Helvetica,sans-serif;text-anchor:middle;" transform="matrix(1 0 0 1 856.422 322)">Thin</text>
  <text style="stroke:none;fill:black;font-family:-apple-system,&quot;SF Pro Display&quot;,&quot;SF Pro Text&quot;,Helvetica,sans-serif;text-anchor:middle;" transform="matrix(1 0 0 1 1153.13 322)">Light</text>
  <text style="stroke:none;fill:black;font-family:-apple-system,&quot;SF Pro Display&quot;,&quot;SF Pro Text&quot;,Helvetica,sans-serif;text-anchor:middle;" transform="matrix(1 0 0 1 1449.84 322)">Regular</text>
  <text style="stroke:none;fill:black;font-family:-apple-system,&quot;SF Pro Display&quot;,&quot;SF Pro Text&quot;,Helvetica,sans-serif;text-anchor:middle;" transform="matrix(1 0 0 1 1746.56 322)">Medium</text>
  <text style="stroke:none;fill:black;font-family:-apple-system,&quot;SF Pro Display&quot;,&quot;SF Pro Text&quot;,Helvetica,sans-serif;text-anchor:middle;" transform="matrix(1 0 0 1 2043.27 322)">Semibold</text>
  <text style="stroke:none;fill:black;font-family:-apple-system,&quot;SF Pro Display&quot;,&quot;SF Pro Text&quot;,Helvetica,sans-serif;text-anchor:middle;" transform="matrix(1 0 0 1 2339.98 322)">Bold</text>
  <text style="stroke:none;fill:black;font-family:-apple-system,&quot;SF Pro Display&quot;,&quot;SF Pro Text&quot;,Helvetica,sans-serif;text-anchor:middle;" transform="matrix(1 0 0 1 2636.69 322)">Heavy</text>
  <text style="stroke:none;fill:black;font-family:-apple-system,&quot;SF Pro Display&quot;,&quot;SF Pro Text&quot;,Helvetica,sans-serif;text-anchor:middle;" transform="matrix(1 0 0 1 2933.4 322)">Black</text>
  <line id="" style="fill:none;stroke:black;opacity:1;stroke-width:0.5;" x1="263" x2="3036" y1="1903" y2="1903"/>
  <g id="" transform="matrix(1 0 0 1 263 1933)">
   <path d="M9.24805 0.830078C13.5547 0.830078 17.1387-2.74414 17.1387-7.05078C17.1387-11.3574 13.5449-14.9316 9.23828-14.9316C4.94141-14.9316 1.36719-11.3574 1.36719-7.05078C1.36719-2.74414 4.95117 0.830078 9.24805 0.830078ZM9.24805-0.654297C5.70312-0.654297 2.87109-3.49609 2.87109-7.05078C2.87109-10.6055 5.69336-13.4473 9.23828-13.4473C12.793-13.4473 15.6348-10.6055 15.6445-7.05078C15.6543-3.49609 12.8027-0.654297 9.24805-0.654297ZM6.39648-6.31836L8.50586-6.31836L8.50586-4.19922C8.50586-3.75977 8.79883-3.45703 9.22852-3.45703C9.67773-3.45703 9.9707-3.75977 9.9707-4.19922L9.9707-6.31836L12.0996-6.31836C12.5391-6.31836 12.8418-6.61133 12.8418-7.04102C12.8418-7.48047 12.5391-7.7832 12.0996-7.7832L9.9707-7.7832L9.9707-9.89258C9.9707-10.3418 9.67773-10.6445 9.22852-10.6445C8.79883-10.6445 8.50586-10.3418 8.50586-9.89258L8.50586-7.7832L6.39648-7.7832C5.94727-7.7832 5.64453-7.48047 5.64453-7.04102C5.64453-6.61133 5.94727-6.31836 6.39648-6.31836Z"/>
  </g>
  <g id="" transform="matrix(1 0 0 1 281.506 1933)">
   <path d="M11.709 2.91016C17.1582 2.91016 21.6699-1.61133 21.6699-7.05078C21.6699-12.5 17.1484-17.0117 11.6992-17.0117C6.25977-17.0117 1.74805-12.5 1.74805-7.05078C1.74805-1.61133 6.26953 2.91016 11.709 2.91016ZM11.709 1.25C7.09961 1.25 3.41797-2.44141 3.41797-7.05078C3.41797-11.6602 7.08984-15.3516 11.6992-15.3516C16.3086-15.3516 20-11.6602 20.0098-7.05078C20.0195-2.44141 16.3184 1.25 11.709 1.25ZM7.98828-6.23047L10.8789-6.23047L10.8789-3.32031C10.8789-2.83203 11.2109-2.5 11.6895-2.5C12.1777-2.5 12.5195-2.83203 12.5195-3.32031L12.5195-6.23047L15.4297-6.23047C15.918-6.23047 16.25-6.5625 16.25-7.04102C16.25-7.5293 15.918-7.87109 15.4297-7.87109L12.5195-7.87109L12.5195-10.7617C12.5195-11.2695 12.1777-11.6016 11.6895-11.6016C11.2109-11.6016 10.8789-11.2598 10.8789-10.7617L10.8789-7.87109L7.98828-7.87109C7.48047-7.87109 7.14844-7.5293 7.14844-7.04102C7.14844-6.5625 7.49023-6.23047 7.98828-6.23047Z"/>
  </g>
  <g id="" transform="matrix(1 0 0 1 304.924 1933)">
   <path d="M14.9707 5.66406C21.9336 5.66406 27.6953-0.0976562 27.6953-7.05078C27.6953-14.0137 21.9238-19.7754 14.9609-19.7754C8.00781-19.7754 2.25586-14.0137 2.25586-7.05078C2.25586-0.0976562 8.01758 5.66406 14.9707 5.66406ZM14.9707 3.84766C8.93555 3.84766 4.08203-1.01562 4.08203-7.05078C4.08203-13.0957 8.92578-17.9492 14.9609-17.9492C21.0059-17.9492 25.8594-13.0957 25.8691-7.05078C25.8789-1.01562 21.0156 3.84766 14.9707 3.84766ZM10.0586-6.14258L14.0625-6.14258L14.0625-2.12891C14.0625-1.5918 14.4336-1.2207 14.9512-1.2207C15.4883-1.2207 15.8594-1.5918 15.8594-2.12891L15.8594-6.14258L19.8828-6.14258C20.4102-6.14258 20.791-6.51367 20.791-7.03125C20.791-7.56836 20.4199-7.94922 19.8828-7.94922L15.8594-7.94922L15.8594-11.9531C15.8594-12.5098 15.4883-12.8809 14.9512-12.8809C14.4336-12.8809 14.0625-12.5 14.0625-11.9531L14.0625-7.94922L10.0586-7.94922C9.50195-7.94922 9.13086-7.56836 9.13086-7.03125C9.13086-6.51367 9.51172-6.14258 10.0586-6.14258Z"/>
  </g>
  <text style="stroke:none;fill:black;font-family:-apple-system,&quot;SF Pro Display&quot;,&quot;SF Pro Text&quot;,Helvetica,sans-serif;font-weight:bold;" transform="matrix(1 0 0 1 263 1953)">Design Variations</text>
  <text style="stroke:none;fill:black;font-family:-apple-system,&quot;SF Pro Display&quot;,&quot;SF Pro Text&quot;,Helvetica,sans-serif;" transform="matrix(1 0 0 1 263 1971)">Symbols are supported in up to nine weights and three scales.</text>
  <text style="stroke:none;fill:black;font-family:-apple-system,&quot;SF Pro Display&quot;,&quot;SF Pro Text&quot;,Helvetica,sans-serif;" transform="matrix(1 0 0 1 263 1989)">For optimal layout with text and other symbols, vertically align</text>
  <text style="stroke:none;fill:black;font-family:-apple-system,&quot;SF Pro Display&quot;,&quot;SF Pro Text&quot;,Helvetica,sans-serif;" transform="matrix(1 0 0 1 263 2007)">symbols with the adjacent text.</text>
  <line id="" style="fill:none;stroke:#00AEEF;stroke-width:0.5;opacity:1.0;" x1="776" x2="776" y1="1919" y2="1933"/>
  <g id="" transform="matrix(1 0 0 1 776 1933)">
   <path d="M3.31055 0.126953C3.82812 0.126953 4.08203-0.0683594 4.26758-0.605469L5.52734-4.0625L11.2891-4.0625L12.5488-0.605469C12.7344-0.0683594 12.9883 0.126953 13.4961 0.126953C14.0137 0.126953 14.3457-0.185547 14.3457-0.673828C14.3457-0.839844 14.3164-0.986328 14.2383-1.20117L9.6582-13.3887C9.43359-13.9941 9.0332-14.2871 8.4082-14.2871C7.80273-14.2871 7.39258-13.9941 7.17773-13.3984L2.59766-1.19141C2.51953-0.976562 2.49023-0.830078 2.49023-0.664062C2.49023-0.175781 2.80273 0.126953 3.31055 0.126953ZM6.00586-5.53711L8.37891-12.1094L8.42773-12.1094L10.8008-5.53711Z"/>
  </g>
  <line id="" style="fill:none;stroke:#00AEEF;stroke-width:0.5;opacity:1.0;" x1="792.836" x2="792.836" y1="1919" y2="1933"/>
  <text style="stroke:none;fill:black;font-family:-apple-system,&quot;SF Pro Display&quot;,&quot;SF Pro Text&quot;,Helvetica,sans-serif;font-weight:bold;" transform="matrix(1 0 0 1 776 1953)">Margins</text>
  <text style="stroke:none;fill:black;font-family:-apple-system,&quot;SF Pro Display&quot;,&quot;SF Pro Text&quot;,Helvetica,sans-serif;" transform="matrix(1 0 0 1 776 1971)">Leading and trailing margins on the left and right side of each symbol</text>
  <text style="stroke:none;fill:black;font-family:-apple-system,&quot;SF Pro Display&quot;,&quot;SF Pro Text&quot;,Helvetica,sans-serif;" transform="matrix(1 0 0 1 776 1989)">can be adjusted by modifying the x-location of the margin guidelines.</text>
  <text style="stroke:none;fill:black;font-family:-apple-system,&quot;SF Pro Display&quot;,&quot;SF Pro Text&quot;,Helvetica,sans-serif;" transform="matrix(1 0 0 1 776 2007)">Modifications are automatically applied proportionally to all</text>
  <text style="stroke:none;fill:black;font-family:-apple-system,&quot;SF Pro Display&quot;,&quot;SF Pro Text&quot;,Helvetica,sans-serif;" transform="matrix(1 0 0 1 776 2025)">scales and weights.</text>
  <g id="" transform="matrix(1 0 0 1 1289 1933)">
   <path d="M2.8418 1.86523L4.54102 3.57422C5.40039 4.44336 6.38672 4.38477 7.31445 3.35938L17.4902-7.85156C17.7539-7.76367 18.0273-7.7832 18.3398-7.8418L19.4043-8.03711L20.0684-7.36328L20.0293-6.80664C19.9902-6.30859 20.1172-5.92773 20.6055-5.44922L21.3672-4.70703C21.8457-4.22852 22.4609-4.19922 22.9297-4.66797L25.8398-7.58789C26.3086-8.05664 26.2891-8.65234 25.8105-9.13086L25.0391-9.89258C24.5605-10.3711 24.1895-10.5273 23.7109-10.4883L23.1348-10.4395L22.4902-11.0742L22.7344-12.1973C22.8613-12.7637 22.7051-13.2031 22.1191-13.7891L19.9219-15.9766C16.582-19.2969 12.1484-19.2188 9.25781-16.3281C8.83789-15.918 8.80859-15.3418 9.04297-14.9512C9.27734-14.5898 9.73633-14.3555 10.3809-14.5215C11.8457-14.8633 13.3691-14.9219 14.7949-13.9844L14.209-12.5293C14.0137-12.0508 13.9844-11.6504 14.1113-11.2891L3.04688-0.898438C2.06055 0.0195312 1.98242 0.996094 2.8418 1.86523ZM10.752-15.957C13.1836-17.7344 16.4746-17.4316 18.7012-15.2051L21.1328-12.793C21.3672-12.5586 21.4062-12.373 21.3379-12.0312L21.0156-10.5469L22.5195-9.0625L23.5059-9.12109C23.7598-9.13086 23.8379-9.11133 24.0332-8.91602L24.6094-8.33984L22.168-5.89844L21.5918-6.47461C21.3965-6.66992 21.3672-6.74805 21.377-7.01172L21.4453-7.98828L19.9512-9.47266L18.4277-9.21875C18.1055-9.15039 17.959-9.17969 17.7148-9.41406L15.7129-11.416C15.459-11.6504 15.4297-11.8164 15.5859-12.1875L16.4648-14.2773C14.9023-15.7324 12.8711-16.3574 10.8398-15.7617C10.6836-15.7227 10.625-15.8496 10.752-15.957ZM5.27344 2.30469L4.10156 1.14258C3.63281 0.683594 3.74023 0.341797 4.14062-0.0195312L14.9512-10.1953L16.416-8.71094L6.42578 2.27539C6.07422 2.67578 5.74219 2.77344 5.27344 2.30469Z"/>
  </g>
  <text style="stroke:none;fill:black;font-family:-apple-system,&quot;SF Pro Display&quot;,&quot;SF Pro Text&quot;,Helvetica,sans-serif;font-weight:bold;" transform="matrix(1 0 0 1 1289 1953)">Exporting</text>
  <text style="stroke:none;fill:black;font-family:-apple-system,&quot;SF Pro Display&quot;,&quot;SF Pro Text&quot;,Helvetica,sans-serif;" transform="matrix(1 0 0 1 1289 1971)">Symbols should be outlined when exporting to ensure the</text>
  <text style="stroke:none;fill:black;font-family:-apple-system,&quot;SF Pro Display&quot;,&quot;SF Pro Text&quot;,Helvetica,sans-serif;" transform="matrix(1 0 0 1 1289 1989)">design is preserved when submitting to Xcode.</text>
  <text id="template-version" style="stroke:none;fill:black;font-family:-apple-system,&quot;SF Pro Display&quot;,&quot;SF Pro Text&quot;,Helvetica,sans-serif;text-anchor:end;" transform="matrix(1 0 0 1 3036 1933)">Template v.2.0</text>
  <text style="stroke:none;fill:black;font-family:-apple-system,&quot;SF Pro Display&quot;,&quot;SF Pro Text&quot;,Helvetica,sans-serif;text-anchor:end;" transform="matrix(1 0 0 1 3036 1951)">Requires Xcode 12 or greater</text>
  <text style="stroke:none;fill:black;font-family:-apple-system,&quot;SF Pro Display&quot;,&quot;SF Pro Text&quot;,Helvetica,sans-serif;text-anchor:end;" transform="matrix(1 0 0 1 3036 1969)">Generated from envelope</text>
  <text style="stroke:none;fill:black;font-family:-apple-system,&quot;SF Pro Display&quot;,&quot;SF Pro Text&quot;,Helvetica,sans-serif;text-anchor:end;" transform="matrix(1 0 0 1 3036 1987)">Typeset at 100 points</text>
  <text style="stroke:none;fill:black;font-family:-apple-system,&quot;SF Pro Display&quot;,&quot;SF Pro Text&quot;,Helvetica,sans-serif;" transform="matrix(1 0 0 1 263 726)">Small</text>
  <text style="stroke:none;fill:black;font-family:-apple-system,&quot;SF Pro Display&quot;,&quot;SF Pro Text&quot;,Helvetica,sans-serif;" transform="matrix(1 0 0 1 263 1156)">Medium</text>
  <text style="stroke:none;fill:black;font-family:-apple-system,&quot;SF Pro Display&quot;,&quot;SF Pro Text&quot;,Helvetica,sans-serif;" transform="matrix(1 0 0 1 263 1586)">Large</text>
 </g>
 <g id="Guides">
  <g id="H-reference" style="fill:#27AAE1;stroke:none;" transform="matrix(1 0 0 1 339 696)">
   <path d="M0.976562 0L3.66211 0L12.9883-24.4629L45.752-24.4629L55.127 0L57.7637 0L30.6152-70.459L28.125-70.459ZM29.3457-67.1387L29.4434-67.1387L44.873-26.709L13.8672-26.709Z"/>
  </g>
  <line id="Baseline-S" style="fill:none;stroke:#27AAE1;opacity:1;stroke-width:0.5;" x1="263" x2="3036" y1="696" y2="696"/>
  <line id="Capline-S" style="fill:none;stroke:#27AAE1;opacity:1;stroke-width:0.5;" x1="263" x2="3036" y1="625.541" y2="625.541"/>
  <g id="H-reference" style="fill:#27AAE1;stroke:none;" transform="matrix(1 0 0 1 339 1126)">
   <path d="M0.976562 0L3.66211 0L12.9883-24.4629L45.752-24.4629L55.127 0L57.7637 0L30.6152-70.459L28.125-70.459ZM29.3457-67.1387L29.4434-67.1387L44.873-26.709L13.8672-26.709Z"/>
  </g>
  <line id="Baseline-M" style="fill:none;stroke:#27AAE1;opacity:1;stroke-width:0.5;" x1="263" x2="3036" y1="1126" y2="1126"/>
  <line id="Capline-M" style="fill:none;stroke:#27AAE1;opacity:1;stroke-width:0.5;" x1="263" x2="3036" y1="1055.54" y2="1055.54"/>
  <g id="H-reference" style="fill:#27AAE1;stroke:none;" transform="matrix(1 0 0 1 339 1556)">
   <path d="M0.976562 0L3.66211 0L12.9883-24.4629L45.752-24.4629L55.127 0L57.7637 0L30.6152-70.459L28.125-70.459ZM29.3457-67.1387L29.4434-67.1387L44.873-26.709L13.8672-26.709Z"/>
  </g>
  <line id="Baseline-L" style="fill:none;stroke:#27AAE1;opacity:1;stroke-width:0.5;" x1="263" x2="3036" y1="1556" y2="1556"/>
  <line id="Capline-L" style="fill:none;stroke:#27AAE1;opacity:1;stroke-width:0.5;" x1="263" x2="3036" y1="1485.54" y2="1485.54"/>
  <line id="left-margin" style="fill:none;stroke:#00AEEF;stroke-width:0.5;opacity:1.0;" x1="1383.49" x2="1383.49" y1="1030.79" y2="1150.12"/>
  <line id="right-margin" style="fill:none;stroke:#00AEEF;stroke-width:0.5;opacity:1.0;" x1="1516.2" x2="1516.2" y1="1030.79" y2="1150.12"/>
 </g>
 <g id="Symbols">
  <g id="Black-L" transform="matrix(1 0 0 1 2842.68 1556)">
   <path d="M39.9902 23.5352L142.139 23.5352C156.738 23.5352 165.381 14.9414 165.381-0.292969L165.381-70.1172C165.381-85.3027 156.689-93.8965 141.455-93.8965L39.3066-93.8965C24.707-93.8965 16.0645-85.3027 16.0645-70.1172L16.0645-0.292969C16.0645 14.9414 24.7559 23.5352 39.9902 23.5352ZM84.9121-36.3281L45.9473-74.9023L135.498-74.9023L96.5332-36.3281C94.1406-33.9844 92.5781-33.1055 90.7227-33.1055C88.8672-33.1055 87.3047-34.0332 84.9121-36.3281ZM118.994-36.4258L146.826-63.8672L146.826-8.59375ZM34.6191-63.8672L62.4512-36.4258L34.6191-8.59375ZM90.7227-16.6992C96.2891-16.6992 101.367-18.9941 106.348-23.9746L107.666-25.293L137.5 4.54102L43.9453 4.54102L73.7305-25.293L75.0488-23.9746C80.0781-18.9941 85.1562-16.6992 90.7227-16.6992Z"/>
  </g>
  <g id="Heavy-L" transform="matrix(1 0 0 1 2547.33 1556)">
   <path d="M38.8184 22.3633L140.723 22.3633C154.541 22.3633 162.646 14.2578 162.646-0.292969L162.646-70.0684C162.646-84.6191 154.492-92.7246 139.893-92.7246L37.9395-92.7246C24.1699-92.7246 16.0645-84.6191 16.0645-70.0684L16.0645-0.292969C16.0645 14.2578 24.2188 22.3633 38.8184 22.3633ZM83.1543-35.1074L41.5527-76.2207L137.207-76.2207L95.6543-35.1074C93.1641-32.7148 91.4062-31.7383 89.4043-31.7383C87.4023-31.7383 85.5957-32.7637 83.1543-35.1074ZM32.1777-65.8691L62.4512-36.084L32.1777-5.95703ZM116.357-36.084L146.533-65.7715L146.533-6.05469ZM89.4043-17.2363C94.6289-17.2363 99.4629-19.4336 104.248-24.2188L106.348-26.2695L138.623 5.85938L40.1855 5.85938L72.4121-26.2207L74.4629-24.2188C79.2969-19.4336 84.1309-17.2363 89.4043-17.2363Z"/>
  </g>
  <g id="Bold-L" transform="matrix(1 0 0 1 2252.16 1556)">
   <path d="M37.5 20.9961L139.209 20.9961C152.1 20.9961 159.57 13.4766 159.57-0.292969L159.57-70.0195C159.57-83.8379 152.051-91.3574 138.135-91.3574L36.4258-91.3574C23.584-91.3574 16.0645-83.8867 16.0645-70.0195L16.0645-0.292969C16.0645 13.5254 23.6328 20.9961 37.5 20.9961ZM81.1523-33.7891L36.7188-77.6855C37.1094-77.6855 37.5488-77.7344 37.9883-77.7344L137.646-77.7344C138.184-77.7344 138.623-77.6855 139.111-77.6367L94.6777-33.7891C92.1387-31.25 90.0879-30.2734 87.9395-30.2734C85.7422-30.2734 83.6914-31.2988 81.1523-33.7891ZM29.4434-68.1152L62.4512-35.6445L29.4434-3.02734ZM113.379-35.6445L146.191-67.9199L146.191-3.22266ZM37.9883 7.37305C37.3047 7.37305 36.6699 7.32422 36.084 7.22656L70.9473-27.2949L73.8281-24.4629C78.4668-19.873 83.0566-17.8711 87.9395-17.8711C92.7734-17.8711 97.3633-19.873 101.953-24.4629L104.883-27.2949L139.746 7.22656C139.062 7.32422 138.379 7.37305 137.646 7.37305Z"/>
  </g>
  <g id="Semibold-L" transform="matrix(1 0 0 1 1956.5 1556)">
   <path d="M36.6211 20.0684L138.135 20.0684C150.391 20.0684 157.471 12.9883 157.471-0.341797L157.471-70.0195C157.471-83.3008 150.342-90.4297 136.914-90.4297L35.4004-90.4297C23.1445-90.4297 16.0645-83.3496 16.0645-70.0195L16.0645-0.341797C16.0645 13.0371 23.1934 20.0684 36.6211 20.0684ZM79.834-32.8613L33.6426-78.3691C34.6191-78.6133 35.6934-78.7109 36.8164-78.7109L136.719-78.7109C137.939-78.7109 139.062-78.6133 140.088-78.3203L93.9941-32.8613C91.4062-30.2734 89.1602-29.1992 86.9141-29.1992C84.6191-29.1992 82.373-30.3223 79.834-32.8613ZM27.5879-69.4336L27.5879-69.6289L62.4512-35.3516L27.5879-0.976562ZM111.328-35.4004L145.947-69.3848L145.947-1.2207ZM36.8164 8.39844C35.5957 8.39844 34.4727 8.25195 33.4473 8.00781L69.9219-28.0273L73.3887-24.6094C77.8809-20.2148 82.2754-18.3594 86.9141-18.3594C91.5039-18.3594 95.8984-20.2148 100.391-24.6094L103.857-28.0273L140.283 7.95898C139.209 8.25195 138.037 8.39844 136.719 8.39844Z"/>
  </g>
  <g id="Medium-L" transform="matrix(1 0 0 1 1660.59 1556)">
   <path d="M35.9375 19.3848L137.305 19.3848C149.121 19.3848 155.859 12.5977 155.859-0.341797L155.859-69.9707C155.859-82.9102 149.072-89.6973 135.986-89.6973L34.6191-89.6973C22.8516-89.6973 16.0645-82.959 16.0645-69.9707L16.0645-0.341797C16.0645 12.6465 22.9004 19.3848 35.9375 19.3848ZM78.7598-32.1289L31.4941-78.8086C32.7637-79.248 34.2773-79.4922 35.9863-79.4922L135.986-79.4922C137.793-79.4922 139.355-79.248 140.674-78.7109L93.457-32.1289C90.8203-29.4922 88.4766-28.418 86.1328-28.418C83.7891-28.418 81.3965-29.5898 78.7598-32.1289ZM26.1719-0.683594L26.1719-69.6777C26.1719-70.0195 26.1719-70.4102 26.2207-70.752L62.4512-35.1562L26.2207 0.488281C26.1719 0.0976562 26.1719-0.292969 26.1719-0.683594ZM145.752-69.6289L145.752-0.683594C145.752-0.341797 145.752-0.0488281 145.752 0.195312L109.766-35.1562L145.752-70.459C145.752-70.2148 145.752-69.9219 145.752-69.6289ZM35.9863 9.17969C34.2773 9.17969 32.8125 8.93555 31.543 8.49609L69.1895-28.5645L73.0469-24.7559C77.4414-20.459 81.7383-18.6523 86.1328-18.6523C90.5273-18.6523 94.8242-20.459 99.1699-24.7559L103.076-28.5645L140.625 8.39844C139.307 8.93555 137.744 9.17969 135.986 9.17969Z"/>
  </g>
  <g id="Regular-L" transform="matrix(1 0 0 1 1364.91 1556)">
   <path d="M35.0586 18.457L136.279 18.457C147.412 18.457 153.809 12.0605 153.809-0.341797L153.809-69.9707C153.809-82.373 147.363-88.7695 134.766-88.7695L33.5938-88.7695C22.4121-88.7695 16.0645-82.4707 16.0645-69.9707L16.0645-0.341797C16.0645 12.1582 22.4609 18.457 35.0586 18.457ZM77.4414-31.25L28.7598-79.1504C30.3711-80.0781 32.4219-80.5176 34.8633-80.5176L135.01-80.5176C137.549-80.5176 139.648-80.0293 141.309-79.0039L92.8223-31.25C90.0879-28.5156 87.5488-27.3926 85.1074-27.3926C82.666-27.3926 80.127-28.6133 77.4414-31.25ZM24.3164-0.439453L24.3164-69.9707C24.3164-70.752 24.3652-71.4844 24.4629-72.168L62.5-34.8633L24.5117 2.29492C24.4141 1.46484 24.3164 0.537109 24.3164-0.439453ZM145.557-69.9219L145.557-0.390625C145.557 0.488281 145.508 1.26953 145.361 2.00195L107.764-34.8633L145.41-71.8262C145.508-71.2402 145.557-70.5566 145.557-69.9219ZM34.8633 10.2051C32.6172 10.2051 30.7129 9.81445 29.1504 9.0332L68.1641-29.2969L72.6074-24.9512C76.8555-20.752 80.957-19.0918 85.1074-19.0918C89.2578-19.0918 93.3594-20.752 97.6074-24.9512L102.051-29.2969L140.967 8.88672C139.355 9.76562 137.354 10.2051 135.01 10.2051Z"/>
  </g>
  <g id="Light-L" transform="matrix(1 0 0 1 1069.15 1556)">
   <path d="M34.0332 17.5293L134.863 17.5293C145.801 17.5293 151.904 11.377 151.904-0.292969L151.904-69.9707C151.904-81.6895 145.801-87.8418 133.936-87.8418L33.1055-87.8418C22.168-87.8418 16.0645-81.7871 16.0645-69.9707L16.0645-0.292969C16.0645 11.4746 22.168 17.5293 34.0332 17.5293ZM76.5137-30.2246L26.416-79.4434C28.3203-80.7617 30.8105-81.4453 33.9355-81.4453L134.033-81.4453C137.305-81.4453 139.941-80.6641 141.846-79.1504L92.041-30.2246C89.3555-27.5391 86.6699-26.4648 84.2773-26.4648C81.9336-26.4648 79.1504-27.5879 76.5137-30.2246ZM22.4121-0.390625L22.4121-69.9219C22.4121-71.4355 22.6074-72.8027 22.9004-74.0234L63.2812-34.6191L23.0957 4.3457C22.6562 2.97852 22.4121 1.36719 22.4121-0.390625ZM145.557-69.873L145.557-0.390625C145.557 1.2207 145.361 2.63672 145.02 3.85742L105.322-34.6191L145.166-73.5352C145.41-72.4609 145.557-71.2402 145.557-69.873ZM33.9355 11.1816C31.0547 11.1816 28.7109 10.5957 26.8555 9.42383L67.7246-30.2246L72.6562-25.4395C76.6113-21.5332 80.5664-20.0684 84.2773-20.0684C88.0371-20.0684 91.9434-21.5332 95.8984-25.4395L100.83-30.2246L141.406 9.17969C139.551 10.498 137.061 11.1816 134.033 11.1816Z"/>
  </g>
  <g id="Thin-L" transform="matrix(1 0 0 1 773.683 1556)">
   <path d="M32.666 16.3574L133.008 16.3574C143.701 16.3574 149.414 10.498 149.414-0.244141L149.414-70.0195C149.414-80.7129 143.701-86.5723 132.812-86.5723L32.4707-86.5723C21.7773-86.5723 16.0645-80.8594 16.0645-70.0195L16.0645-0.244141C16.0645 10.6445 21.7773 16.3574 32.666 16.3574ZM75.3418-28.8574L23.3887-79.6387C25.5371-81.6895 28.7109-82.7148 32.7637-82.7148L132.715-82.7148C136.963-82.7148 140.283-81.4941 142.48-79.1504L91.0645-28.8574C88.3789-26.2207 85.4492-25.2441 83.2031-25.2441C80.9082-25.2441 77.9297-26.2695 75.3418-28.8574ZM19.9219-0.390625L19.9219-69.873C19.9219-72.3633 20.3125-74.5117 21.0938-76.3184L64.3066-34.2285L21.4355 6.73828C20.459 4.83398 19.9219 2.44141 19.9219-0.390625ZM145.557-69.873L145.557-0.390625C145.557 2.14844 145.117 4.3457 144.336 6.10352L102.051-34.2285L144.58-75.6348C145.215-74.0234 145.557-72.0703 145.557-69.873ZM32.7637 12.5C29.0039 12.5 26.0742 11.6211 23.9258 9.91211L67.1387-31.4941L72.6562-26.0742C76.3184-22.6074 79.9805-21.3379 83.2031-21.3379C86.377-21.3379 90.0879-22.6074 93.7012-26.0742L99.2676-31.4941L141.943 9.42383C139.795 11.4746 136.621 12.5 132.715 12.5Z"/>
  </g>
  <g id="Ultralight-L" transform="matrix(1 0 0 1 477.607 1556)">
   <path d="M31.9824 15.7227L132.031 15.7227C142.578 15.7227 148.145 10.0098 148.145-0.195312L148.145-70.0195C148.145-80.2246 142.627-85.9375 132.227-85.9375L32.1289-85.9375C21.582-85.9375 16.0645-80.4199 16.0645-70.0195L16.0645-0.195312C16.0645 10.2051 21.582 15.7227 31.9824 15.7227ZM74.707-28.1738L21.9238-79.7363C24.1699-82.1289 27.5879-83.3496 32.1777-83.3496L132.031-83.3496C136.768-83.3496 140.43-81.9336 142.725-79.1504L90.5273-28.1738C87.8906-25.5371 84.8633-24.6094 82.6172-24.6094C80.3711-24.6094 77.2949-25.6348 74.707-28.1738ZM18.6523-0.341797L18.6523-69.8242C18.6523-72.8516 19.1895-75.3906 20.2148-77.3926L64.8438-34.0332L20.6543 7.91016C19.3359 5.76172 18.6523 3.02734 18.6523-0.341797ZM145.557-69.8242L145.557-0.390625C145.557 2.63672 144.971 5.17578 143.896 7.17773L100.391-34.0332L144.238-76.6602C145.117-74.7559 145.557-72.5098 145.557-69.8242ZM32.1777 13.1348C27.9785 13.1348 24.707 12.1094 22.4609 10.1074L66.7969-32.1289L72.7051-26.416C76.123-23.1445 79.6875-21.9727 82.6172-21.9727C85.5469-21.9727 89.1113-23.1445 92.5781-26.416L98.4375-32.1289L142.188 9.52148C139.893 11.9141 136.426 13.1348 132.031 13.1348Z"/>
  </g>
  <g id="Black-M" transform="matrix(1 0 0 1 2861.74 1126)">
   <path d="M31.9824 11.4746L111.279 11.4746C123.584 11.4746 130.859 4.15039 130.859-8.10547L130.859-62.3047C130.859-74.5605 123.584-81.8359 111.328-81.8359L32.0312-81.8359C19.7266-81.8359 12.4512-74.5605 12.4512-62.3047L12.4512-8.10547C12.4512 4.15039 19.7266 11.4746 31.9824 11.4746ZM67.7246-37.1582L39.8926-64.6973L103.418-64.6973L75.5859-37.1582C73.8281-35.498 72.8516-34.8633 71.6309-34.8633C70.4102-34.8633 69.4336-35.498 67.7246-37.1582ZM94.4824-36.5234L114.209-55.957L114.209-16.7969ZM29.1016-55.9082L48.7793-36.4746L29.1016-16.7969ZM71.6309-20.6055C76.2207-20.6055 80.3223-22.5586 84.2773-26.4648L84.6191-26.7578L105.664-5.71289L37.5977-5.71289L58.6426-26.7578L58.9355-26.4648C62.9395-22.5586 67.0898-20.6055 71.6309-20.6055Z"/>
  </g>
  <g id="Heavy-M" transform="matrix(1 0 0 1 2566.3 1126)">
   <path d="M31.0059 10.3516L110.107 10.3516C121.582 10.3516 128.32 3.61328 128.32-8.10547L128.32-62.2559C128.32-74.0234 121.582-80.7617 109.814-80.7617L30.6641-80.7617C19.1895-80.7617 12.4512-74.0234 12.4512-62.2559L12.4512-8.10547C12.4512 3.61328 19.2383 10.3516 31.0059 10.3516ZM66.0156-36.084L35.8887-65.918L104.932-65.918L74.8047-36.084C72.998-34.3262 71.8262-33.6426 70.4102-33.6426C69.043-33.6426 67.8223-34.3262 66.0156-36.084ZM26.9043-57.5195L48.584-36.1816L26.9043-14.5508ZM92.2363-36.1816L113.867-57.5195L113.867-14.5996ZM70.4102-20.9473C74.707-20.9473 78.6621-22.8027 82.4707-26.5625L83.4473-27.5879L106.592-4.49219L34.2285-4.49219L57.373-27.5391L58.3008-26.5625C62.1582-22.8027 66.1133-20.9473 70.4102-20.9473Z"/>
  </g>
  <g id="Bold-M" transform="matrix(1 0 0 1 2270.98 1126)">
   <path d="M29.8828 9.17969L108.838 9.17969C119.385 9.17969 125.537 2.97852 125.537-8.1543L125.537-62.207C125.537-73.3887 119.336-79.541 108.105-79.541L29.1504-79.541C18.6523-79.541 12.4512-73.3887 12.4512-62.207L12.4512-8.1543C12.4512 3.02734 18.6523 9.17969 29.8828 9.17969ZM64.1113-34.9121L31.4453-67.2363L106.641-67.2363L73.9746-34.9121C72.0703-33.0566 70.6055-32.2754 69.043-32.2754C67.4805-32.2754 66.0156-33.0566 64.1113-34.9121ZM24.5117-59.3262L48.3887-35.791L24.5117-12.0605ZM89.6973-35.8398L113.477-59.2285L113.477-12.1582ZM69.043-21.3867C73.0469-21.3867 76.7578-23.0469 80.4199-26.709L82.1777-28.418L107.617-3.125L30.4688-3.125L55.8594-28.418L57.6172-26.709C61.3281-23.0469 65.0391-21.3867 69.043-21.3867Z"/>
  </g>
  <g id="Semibold-M" transform="matrix(1 0 0 1 1975.22 1126)">
   <path d="M29.1016 8.34961L107.959 8.34961C117.822 8.34961 123.633 2.58789 123.633-8.20312L123.633-62.207C123.633-72.9492 117.822-78.7109 106.982-78.7109L28.125-78.7109C18.2617-78.7109 12.4512-72.9492 12.4512-62.207L12.4512-8.20312C12.4512 2.58789 18.2617 8.34961 29.1016 8.34961ZM62.793-34.1309L28.3691-68.1152C28.7109-68.1641 29.0527-68.1641 29.3945-68.1641L106.689-68.1641C107.08-68.1641 107.422-68.1641 107.812-68.1152L73.3887-34.1309C71.3867-32.1777 69.8242-31.3477 68.1152-31.3477C66.3574-31.3477 64.7949-32.1777 62.793-34.1309ZM22.8516-60.5469L48.2422-35.5469L22.8516-10.3516ZM87.9395-35.5469L113.232-60.4492L113.232-10.498ZM29.3945-2.19727C28.8574-2.19727 28.3691-2.24609 27.9297-2.29492L54.8828-29.0039L57.1289-26.8066C60.7422-23.2422 64.3066-21.6797 68.1152-21.6797C71.875-21.6797 75.4395-23.2422 79.0527-26.8066L81.2988-29.0527L108.252-2.29492C107.764-2.24609 107.227-2.19727 106.689-2.19727Z"/>
  </g>
  <g id="Medium-M" transform="matrix(1 0 0 1 1679.25 1126)">
   <path d="M28.5156 7.71484L107.275 7.71484C116.699 7.71484 122.168 2.24609 122.168-8.20312L122.168-62.1582C122.168-72.6074 116.65-78.0762 106.104-78.0762L27.3438-78.0762C17.9199-78.0762 12.4512-72.6562 12.4512-62.1582L12.4512-8.20312C12.4512 2.24609 17.9688 7.71484 28.5156 7.71484ZM61.8164-33.4961L26.2695-68.6523C26.9531-68.7988 27.7344-68.8965 28.5645-68.8965L106.055-68.8965C106.934-68.8965 107.715-68.7988 108.447-68.6035L72.9492-33.4961C70.8984-31.4941 69.1895-30.6152 67.3828-30.6152C65.5762-30.6152 63.8672-31.543 61.8164-33.4961ZM21.582-61.4746L48.1445-35.3516L21.582-9.08203ZM86.6211-35.3516L113.037-61.3281L113.037-9.17969ZM28.5645-1.51367C27.6855-1.51367 26.8555-1.61133 26.123-1.75781L54.1016-29.4922L56.7383-26.8555C60.3027-23.3887 63.7207-21.9238 67.3828-21.9238C70.9961-21.9238 74.4629-23.3887 77.9785-26.8555L80.6641-29.4922L108.594-1.80664C107.812-1.61133 106.982-1.51367 106.055-1.51367Z"/>
  </g>
  <g id="Regular-M" transform="matrix(1 0 0 1 1383.49 1126)">
   <path d="M27.7832 6.88477L106.396 6.88477C115.186 6.88477 120.264 1.80664 120.264-8.25195L120.264-62.1582C120.264-72.168 115.137-77.2461 104.932-77.2461L26.3184-77.2461C17.5293-77.2461 12.4512-72.2168 12.4512-62.1582L12.4512-8.25195C12.4512 1.85547 17.5781 6.88477 27.7832 6.88477ZM60.5469-32.7148L23.6816-69.0918C24.7559-69.5312 26.0254-69.7754 27.4902-69.7754L105.225-69.7754C106.738-69.7754 108.057-69.5312 109.131-69.043L72.3633-32.7148C70.2637-30.6152 68.3594-29.6875 66.4551-29.6875C64.502-29.6875 62.5977-30.6641 60.5469-32.7148ZM19.9219-8.25195L19.9219-62.1582C19.9219-62.5488 19.9219-62.3535 19.9219-62.6953L47.998-35.1074L19.9707-7.42188C19.9219-7.66602 19.9219-7.95898 19.9219-8.25195ZM112.793-62.1094L112.793-8.20312C112.793-8.00781 112.793-7.76367 112.793-7.56836L84.9121-35.1074L112.793-62.5488C112.793-62.1094 112.793-62.1094 112.793-62.1094ZM27.4902-0.585938C26.123-0.585938 24.9512-0.78125 23.9258-1.2207L53.125-30.0781L56.2988-26.9531C59.7168-23.584 62.9883-22.168 66.4551-22.168C69.873-22.168 73.1934-23.584 76.6113-26.9531L79.7852-30.0781L108.936-1.26953C107.861-0.78125 106.641-0.585938 105.225-0.585938Z"/>
  </g>
  <g id="Light-M" transform="matrix(1 0 0 1 1087.63 1126)">
   <path d="M26.8555 6.10352L105.127 6.10352C113.721 6.10352 118.555 1.2207 118.555-8.20312L118.555-62.1582C118.555-71.5332 113.672-76.416 104.199-76.416L25.8789-76.416C17.2852-76.416 12.4512-71.582 12.4512-62.1582L12.4512-8.20312C12.4512 1.26953 17.334 6.10352 26.8555 6.10352ZM59.7168-31.7871L21.5332-69.3848C22.8516-70.2148 24.6094-70.6543 26.709-70.6543L104.297-70.6543C106.494-70.6543 108.301-70.166 109.717-69.1895L71.6797-31.7871C69.5801-29.6875 67.5781-28.8574 65.6738-28.8574C63.8184-28.8574 61.7676-29.7852 59.7168-31.7871ZM18.2129-8.25195L18.2129-62.1094C18.2129-62.9883 18.3105-63.7695 18.457-64.502L48.6816-34.8633L18.5059-5.46875C18.3105-6.29883 18.2129-7.22656 18.2129-8.25195ZM112.793-62.1094L112.793-8.20312C112.793-7.32422 112.695-6.49414 112.549-5.76172L82.7148-34.8633L112.646-64.1602C112.744-63.5254 112.793-62.8418 112.793-62.1094ZM26.709 0.292969C24.7559 0.292969 23.1445-0.0488281 21.8262-0.78125L52.6855-30.957L56.2988-27.3926C59.4727-24.2676 62.5977-23.0469 65.6738-23.0469C68.75-23.0469 71.875-24.2676 75.0977-27.3926L78.7109-30.957L109.375-0.927734C108.057-0.0976562 106.348 0.292969 104.297 0.292969Z"/>
  </g>
  <g id="Thin-M" transform="matrix(1 0 0 1 792.018 1126)">
   <path d="M25.6348 5.0293L103.467 5.0293C111.816 5.0293 116.357 0.390625 116.357-8.10547L116.357-62.1582C116.357-70.7031 111.816-75.293 103.174-75.293L25.293-75.293C16.9922-75.293 12.4512-70.8008 12.4512-62.1582L12.4512-8.10547C12.4512 0.488281 16.9922 5.0293 25.6348 5.0293ZM58.6426-30.6152L18.7988-69.6289C20.4102-71.0449 22.7051-71.7773 25.6836-71.7773L103.125-71.7773C106.201-71.7773 108.643-70.8984 110.303-69.2871L70.752-30.6152C68.7012-28.5156 66.5039-27.7344 64.6973-27.7344C62.9395-27.7344 60.6445-28.5645 58.6426-30.6152ZM16.0156-8.20312L16.0156-62.0605C16.0156-63.8184 16.2598-65.332 16.748-66.6016L49.6094-34.5215L16.9434-3.17383C16.3086-4.58984 16.0156-6.25 16.0156-8.20312ZM112.793-62.0605L112.793-8.20312C112.793-6.44531 112.549-4.93164 112.012-3.66211L79.7852-34.5215L112.207-66.1133C112.598-64.9414 112.793-63.5742 112.793-62.0605ZM25.6836 1.46484C22.9492 1.46484 20.752 0.830078 19.1895-0.341797L52.1484-32.0801L56.2988-27.9785C59.1797-25.1953 62.1094-24.1699 64.6973-24.1699C67.2852-24.1699 70.2148-25.1953 73.0957-27.9785L77.2461-32.0801L109.912-0.683594C108.301 0.732422 106.006 1.46484 103.125 1.46484Z"/>
  </g>
  <g id="Ultralight-M" transform="matrix(1 0 0 1 495.893 1126)">
   <path d="M25 4.44336L102.637 4.44336C110.84 4.44336 115.186 0 115.186-8.10547L115.186-62.207C115.186-70.2637 110.84-74.707 102.637-74.707L25-74.707C16.7969-74.707 12.4512-70.3613 12.4512-62.207L12.4512-8.10547C12.4512 0.0976562 16.7969 4.44336 25 4.44336ZM58.1055-29.9805L17.4316-69.7266C19.1406-71.4355 21.7285-72.3145 25.0977-72.3145L102.539-72.3145C106.055-72.3145 108.789-71.2891 110.547-69.2871L70.3125-29.9805C68.2617-27.9297 65.9668-27.1973 64.209-27.1973C62.4512-27.1973 60.0586-27.9785 58.1055-29.9805ZM14.8438-8.20312L14.8438-62.0605C14.8438-64.2578 15.2344-66.0645 15.918-67.5781L50.0977-34.375L16.2109-2.14844C15.332-3.71094 14.8438-5.76172 14.8438-8.20312ZM112.793-62.0605L112.793-8.20312C112.793-6.00586 112.402-4.15039 111.621-2.68555L78.3203-34.375L111.914-67.041C112.5-65.625 112.793-63.9648 112.793-62.0605ZM25.0977 2.05078C22.0215 2.05078 19.5801 1.31836 17.8711-0.146484L51.8555-32.666L56.3477-28.3203C59.082-25.6836 61.8652-24.7559 64.209-24.7559C66.5527-24.7559 69.3359-25.6836 72.0703-28.3203L76.5137-32.666L110.107-0.585938C108.398 1.17188 105.811 2.05078 102.539 2.05078Z"/>
  </g>
  <g id="Black-S" transform="matrix(1 0 0 1 2877.35 696)">
   <path d="M25 1.26953L87.1094 1.26953C96.6797 1.26953 102.344-4.39453 102.344-13.9648L102.344-56.4453C102.344-66.0156 96.6797-71.6797 87.1094-71.6797L25-71.6797C15.4297-71.6797 9.76562-66.0156 9.76562-56.4453L9.76562-13.9648C9.76562-4.39453 15.4297 1.26953 25 1.26953ZM52.9297-36.6699L30.957-58.3984L81.1523-58.3984L59.1797-36.6699C57.8125-35.3516 57.0312-34.8633 56.0547-34.8633C55.0781-34.8633 54.2969-35.3516 52.9297-36.6699ZM73.877-36.2305L89.4531-51.5625L89.4531-20.6543ZM22.6562-51.5625L38.1836-36.1816L22.6562-20.6543ZM56.0547-23.7793C59.6191-23.7793 62.8418-25.293 65.918-28.3691L66.2109-28.6621L82.8613-12.0117L29.248-12.0117L45.8496-28.6133L46.1426-28.3691C49.2676-25.293 52.4902-23.7793 56.0547-23.7793Z"/>
  </g>
  <g id="Heavy-S" transform="matrix(1 0 0 1 2581.49 696)">
   <path d="M24.3652 0.537109L86.377 0.537109C95.3125 0.537109 100.635-4.73633 100.635-14.0137L100.635-56.3965C100.635-65.6738 95.3125-70.9473 86.0352-70.9473L24.0234-70.9473C15.0391-70.9473 9.76562-65.6738 9.76562-56.3965L9.76562-14.0137C9.76562-4.73633 15.0879 0.537109 24.3652 0.537109ZM51.709-35.9863L28.2227-59.2285L82.1777-59.2285L58.6914-35.9863C57.2266-34.5703 56.2988-34.0332 55.1758-34.0332C54.1016-34.0332 53.1738-34.5703 51.709-35.9863ZM21.1914-52.5391L37.9883-35.9863L21.1914-19.1895ZM72.4121-35.9863L89.209-52.5391L89.209-19.1895ZM55.1758-23.9746C58.5938-23.9746 61.6699-25.3906 64.6973-28.418L65.4785-29.1504L83.4473-11.1816L26.9531-11.1816L44.9219-29.1504L45.6543-28.418C48.7305-25.3906 51.8066-23.9746 55.1758-23.9746Z"/>
  </g>
  <g id="Bold-S" transform="matrix(1 0 0 1 2285.75 696)">
   <path d="M23.6328-0.292969L85.5469-0.292969C93.7988-0.292969 98.6816-5.12695 98.6816-14.0137L98.6816-56.3965C98.6816-65.2344 93.7988-70.1172 84.8633-70.1172L22.9004-70.1172C14.6484-70.1172 9.76562-65.2832 9.76562-56.3965L9.76562-14.0137C9.76562-5.12695 14.6973-0.292969 23.6328-0.292969ZM50.3906-35.2051L25.1465-60.1562L83.3496-60.1562L58.1055-35.2051C56.5918-33.6914 55.5176-33.1055 54.248-33.1055C52.9785-33.1055 51.9043-33.7402 50.3906-35.2051ZM19.5312-53.6621L37.7441-35.7422L19.5312-17.5781ZM70.752-35.7422L88.916-53.6621L88.916-17.5781ZM54.248-24.1699C57.4707-24.1699 60.4004-25.5371 63.3301-28.4668L64.5996-29.7363L84.1309-10.2539L24.3652-10.2539L43.8477-29.6875L45.1172-28.4668C48.0957-25.5371 51.0254-24.1699 54.248-24.1699Z"/>
  </g>
  <g id="Semibold-S" transform="matrix(1 0 0 1 1989.7 696)">
   <path d="M23.0957-0.830078L84.9609-0.830078C92.7734-0.830078 97.3633-5.41992 97.3633-14.0625L97.3633-56.3477C97.3633-64.9902 92.7246-69.5801 84.0332-69.5801L22.168-69.5801C14.3555-69.5801 9.76562-64.9902 9.76562-56.3477L9.76562-14.0625C9.76562-5.41992 14.4043-0.830078 23.0957-0.830078ZM49.4629-34.6191L23.0469-60.791C23.2422-60.791 23.2422-60.791 23.2422-60.791L84.1309-60.791L57.7148-34.6191C56.1523-33.1055 54.9316-32.4219 53.5645-32.4219C52.1973-32.4219 51.0254-33.1055 49.4629-34.6191ZM18.4082-54.4434L37.5488-35.5469L18.4082-16.4551ZM69.5801-35.5469L88.7207-54.3945L88.7207-16.4551ZM23.2422-9.61914C23.0469-9.61914 22.8027-9.61914 22.6074-9.66797L43.1152-30.0781L44.7266-28.4668C47.6562-25.5859 50.4883-24.3164 53.5645-24.3164C56.6895-24.3164 59.5215-25.5859 62.4023-28.4668L64.0625-30.127L84.5215-9.66797C84.3262-9.61914 84.082-9.61914 83.8867-9.61914Z"/>
  </g>
  <g id="Medium-S" transform="matrix(1 0 0 1 1693.48 696)">
   <path d="M22.7051-1.26953L84.5703-1.26953C91.9922-1.26953 96.3867-5.61523 96.3867-14.0625L96.3867-56.3477C96.3867-64.7949 91.9434-69.1406 83.3984-69.1406L21.582-69.1406C14.1602-69.1406 9.76562-64.7949 9.76562-56.3477L9.76562-14.0625C9.76562-5.61523 14.209-1.26953 22.7051-1.26953ZM48.7305-34.2285L21.4844-61.1816C21.875-61.2305 22.2656-61.2793 22.7051-61.2793L83.4473-61.2793C83.8867-61.2793 84.2773-61.2305 84.668-61.1816L57.4219-34.2285C55.8105-32.6172 54.541-31.9336 53.0762-31.9336C51.6113-31.9336 50.3418-32.666 48.7305-34.2285ZM17.5781-55.0293L37.4512-35.4492L17.5781-15.625ZM68.7012-35.4492L88.5742-54.9805L88.5742-15.625ZM22.7051-9.13086C22.2168-9.13086 21.7773-9.17969 21.3379-9.22852L42.5293-30.4199L44.4824-28.5156C47.3145-25.6836 50.0977-24.4629 53.0762-24.4629C56.0547-24.4629 58.8379-25.6836 61.6699-28.5156L63.623-30.4199L84.8145-9.22852C84.375-9.17969 83.9355-9.13086 83.4473-9.13086Z"/>
  </g>
  <g id="Regular-S" transform="matrix(1 0 0 1 1397.43 696)">
   <path d="M22.2168-1.85547L83.9844-1.85547C90.918-1.85547 95.0684-5.9082 95.0684-14.1113L95.0684-56.2988C95.0684-64.502 90.8691-68.5547 82.6172-68.5547L20.8496-68.5547C13.8672-68.5547 9.76562-64.502 9.76562-56.2988L9.76562-14.1113C9.76562-5.9082 13.916-1.85547 22.2168-1.85547ZM47.8027-33.6914L19.6777-61.5723C20.3125-61.7676 21.0938-61.9141 21.9238-61.9141L82.8613-61.9141C83.7402-61.9141 84.5215-61.7676 85.1562-61.5723L57.0312-33.6914C55.3711-32.0312 53.9551-31.2988 52.4414-31.2988C50.8789-31.2988 49.4629-32.0801 47.8027-33.6914ZM16.4551-55.7617L37.2559-35.2539L16.4551-14.502ZM67.5781-35.2539L88.3789-55.7617L88.3789-14.502ZM21.9238-8.49609C21.1426-8.49609 20.4102-8.59375 19.7754-8.78906L41.7969-30.7617L44.0918-28.5156C46.875-25.7324 49.5605-24.6094 52.4414-24.6094C55.2734-24.6094 57.959-25.7324 60.7422-28.5156L63.0371-30.7617L85.0586-8.78906C84.4238-8.59375 83.6914-8.49609 82.8613-8.49609Z"/>
  </g>
  <g id="Light-S" transform="matrix(1 0 0 1 1101.47 696)">
   <path d="M21.3867-2.53906L82.8613-2.53906C89.6484-2.53906 93.5547-6.44531 93.5547-14.0625L93.5547-56.2988C93.5547-63.916 89.6484-67.8223 81.9336-67.8223L20.459-67.8223C13.6719-67.8223 9.76562-63.9648 9.76562-56.2988L9.76562-14.0625C9.76562-6.39648 13.6719-2.53906 21.3867-2.53906ZM47.1191-32.9102L17.6758-61.8652C18.6523-62.4023 19.8242-62.6465 21.2402-62.6465L82.0801-62.6465C83.5449-62.6465 84.7656-62.3535 85.7422-61.7676L56.4453-32.9102C54.7852-31.25 53.2715-30.5664 51.7578-30.5664C50.293-30.5664 48.7305-31.2988 47.1191-32.9102ZM14.9414-14.1113L14.9414-56.2988C14.9414-56.7383 14.9414-57.1289 14.9902-57.4707L37.8906-35.0586L15.0391-12.6465C14.9902-13.0859 14.9414-13.5742 14.9414-14.1113ZM88.3789-56.2988L88.3789-14.0625C88.3789-13.623 88.3301-13.1836 88.2812-12.793L65.625-35.0586L88.3301-57.2754C88.3789-56.9824 88.3789-56.6406 88.3789-56.2988ZM21.2402-7.71484C19.9219-7.71484 18.7988-7.95898 17.9199-8.39844L41.4551-31.543L44.0918-28.9551C46.6797-26.3672 49.2188-25.3418 51.7578-25.3418C54.2969-25.3418 56.8359-26.3672 59.4238-28.9551L62.0605-31.543L85.5469-8.49609C84.6191-7.95898 83.4473-7.71484 82.0801-7.71484Z"/>
  </g>
  <g id="Thin-S" transform="matrix(1 0 0 1 805.739 696)">
   <path d="M20.3125-3.51562L81.3965-3.51562C87.9883-3.51562 91.6016-7.17773 91.6016-14.0137L91.6016-56.3477C91.6016-63.1836 87.9883-66.8457 81.0547-66.8457L19.9707-66.8457C13.3789-66.8457 9.76562-63.2324 9.76562-56.3477L9.76562-14.0137C9.76562-7.08008 13.3789-3.51562 20.3125-3.51562ZM46.1426-31.8359L15.2344-62.1094C16.4551-63.1348 18.1641-63.623 20.3125-63.623L81.0547-63.623C83.252-63.623 85.0586-63.0371 86.3281-61.9141L55.6152-31.8359C54.0039-30.2246 52.2949-29.5898 50.8789-29.5898C49.4629-29.5898 47.7539-30.2734 46.1426-31.8359ZM12.9883-14.0625L12.9883-56.2988C12.9883-57.4707 13.1348-58.4961 13.4277-59.4238L38.7207-34.7656L13.5742-10.5469C13.1836-11.5234 12.9883-12.6953 12.9883-14.0625ZM88.3789-56.25L88.3789-14.0625C88.3789-12.8418 88.2324-11.7676 87.8906-10.8887L63.0859-34.7656L87.9883-59.082C88.2324-58.252 88.3789-57.3242 88.3789-56.25ZM20.3125-6.68945C18.3105-6.68945 16.748-7.12891 15.5273-7.95898L40.9668-32.5195L44.1406-29.4434C46.4355-27.1973 48.7793-26.3672 50.8789-26.3672C53.0273-26.3672 55.3223-27.1973 57.666-29.4434L60.791-32.5195L86.0352-8.20312C84.8145-7.22656 83.1055-6.68945 81.0547-6.68945Z"/>
  </g>
  <g id="Ultralight-S" transform="matrix(1 0 0 1 509.54 696)">
   <path d="M19.7754-4.00391L80.6641-4.00391C87.1094-4.00391 90.5762-7.51953 90.5762-13.9648L90.5762-56.3477C90.5762-62.793 87.1094-66.3086 80.5664-66.3086L19.6777-66.3086C13.2324-66.3086 9.76562-62.8906 9.76562-56.3477L9.76562-13.9648C9.76562-7.42188 13.2324-4.00391 19.7754-4.00391ZM45.6543-31.2988L14.0137-62.207C15.332-63.4766 17.2852-64.1602 19.8242-64.1602L80.5176-64.1602C83.1543-64.1602 85.2051-63.3789 86.5234-61.9141L55.2246-31.2988C53.6133-29.6875 51.8066-29.0527 50.4395-29.0527C49.0723-29.0527 47.2168-29.7363 45.6543-31.2988ZM11.9629-14.0625L11.9629-56.25C11.9629-57.8613 12.207-59.1797 12.6953-60.3027L39.1113-34.6191L12.8906-9.57031C12.2559-10.791 11.9629-12.2559 11.9629-14.0625ZM88.3789-56.25L88.3789-14.0625C88.3789-12.4512 88.0859-11.084 87.5977-9.96094L61.7676-34.6191L87.7441-59.9121C88.1836-58.8867 88.3789-57.666 88.3789-56.25ZM19.8242-6.15234C17.4805-6.15234 15.6738-6.73828 14.3555-7.8125L40.7227-33.0566L44.1406-29.7363C46.3379-27.6367 48.5352-26.9043 50.4395-26.9043C52.3438-26.9043 54.5898-27.6367 56.7383-29.7363L60.1562-33.0566L86.2305-8.10547C84.9121-6.83594 82.959-6.15234 80.5176-6.15234Z"/>
  </g>
 </g>
</svg>
