<?xml version="1.0" encoding="UTF-8"?>
<!--Generator: Apple Native CoreSVG 149-->
<!DOCTYPE svg
PUBLIC "-//W3C//DTD SVG 1.1//EN"
       "http://www.w3.org/Graphics/SVG/1.1/DTD/svg11.dtd">
<svg version="1.1" xmlns="http://www.w3.org/2000/svg" xmlns:xlink="http://www.w3.org/1999/xlink" width="3300" height="2200">
 <!--glyph: "uni100358.medium", point size: 100.000000, font version: "Version 16.0d18e1", template writer version: "8"-->
 <g id="Notes">
  <rect height="2200" id="artboard" style="fill:white;opacity:1" width="3300" x="0" y="0"/>
  <line id="" style="fill:none;stroke:black;opacity:1;stroke-width:0.5;" x1="263" x2="3036" y1="292" y2="292"/>
  <text style="stroke:none;fill:black;font-family:-apple-system,&quot;SF Pro Display&quot;,&quot;SF Pro Text&quot;,Helvetica,sans-serif;font-weight:bold;" transform="matrix(1 0 0 1 263 322)">Weight/Scale Variations</text>
  <text style="stroke:none;fill:black;font-family:-apple-system,&quot;SF Pro Display&quot;,&quot;SF Pro Text&quot;,Helvetica,sans-serif;text-anchor:middle;" transform="matrix(1 0 0 1 559.711 322)">Ultralight</text>
  <text style="stroke:none;fill:black;font-family:-apple-system,&quot;SF Pro Display&quot;,&quot;SF Pro Text&quot;,Helvetica,sans-serif;text-anchor:middle;" transform="matrix(1 0 0 1 856.422 322)">Thin</text>
  <text style="stroke:none;fill:black;font-family:-apple-system,&quot;SF Pro Display&quot;,&quot;SF Pro Text&quot;,Helvetica,sans-serif;text-anchor:middle;" transform="matrix(1 0 0 1 1153.13 322)">Light</text>
  <text style="stroke:none;fill:black;font-family:-apple-system,&quot;SF Pro Display&quot;,&quot;SF Pro Text&quot;,Helvetica,sans-serif;text-anchor:middle;" transform="matrix(1 0 0 1 1449.84 322)">Regular</text>
  <text style="stroke:none;fill:black;font-family:-apple-system,&quot;SF Pro Display&quot;,&quot;SF Pro Text&quot;,Helvetica,sans-serif;text-anchor:middle;" transform="matrix(1 0 0 1 1746.56 322)">Medium</text>
  <text style="stroke:none;fill:black;font-family:-apple-system,&quot;SF Pro Display&quot;,&quot;SF Pro Text&quot;,Helvetica,sans-serif;text-anchor:middle;" transform="matrix(1 0 0 1 2043.27 322)">Semibold</text>
  <text style="stroke:none;fill:black;font-family:-apple-system,&quot;SF Pro Display&quot;,&quot;SF Pro Text&quot;,Helvetica,sans-serif;text-anchor:middle;" transform="matrix(1 0 0 1 2339.98 322)">Bold</text>
  <text style="stroke:none;fill:black;font-family:-apple-system,&quot;SF Pro Display&quot;,&quot;SF Pro Text&quot;,Helvetica,sans-serif;text-anchor:middle;" transform="matrix(1 0 0 1 2636.69 322)">Heavy</text>
  <text style="stroke:none;fill:black;font-family:-apple-system,&quot;SF Pro Display&quot;,&quot;SF Pro Text&quot;,Helvetica,sans-serif;text-anchor:middle;" transform="matrix(1 0 0 1 2933.4 322)">Black</text>
  <line id="" style="fill:none;stroke:black;opacity:1;stroke-width:0.5;" x1="263" x2="3036" y1="1903" y2="1903"/>
  <g id="" transform="matrix(1 0 0 1 263 1933)">
   <path d="M9.24805 0.830078C13.5547 0.830078 17.1387-2.74414 17.1387-7.05078C17.1387-11.3574 13.5449-14.9316 9.23828-14.9316C4.94141-14.9316 1.36719-11.3574 1.36719-7.05078C1.36719-2.74414 4.95117 0.830078 9.24805 0.830078ZM9.24805-0.654297C5.70312-0.654297 2.87109-3.49609 2.87109-7.05078C2.87109-10.6055 5.69336-13.4473 9.23828-13.4473C12.793-13.4473 15.6348-10.6055 15.6445-7.05078C15.6543-3.49609 12.8027-0.654297 9.24805-0.654297ZM6.39648-6.31836L8.50586-6.31836L8.50586-4.19922C8.50586-3.75977 8.79883-3.45703 9.22852-3.45703C9.67773-3.45703 9.9707-3.75977 9.9707-4.19922L9.9707-6.31836L12.0996-6.31836C12.5391-6.31836 12.8418-6.61133 12.8418-7.04102C12.8418-7.48047 12.5391-7.7832 12.0996-7.7832L9.9707-7.7832L9.9707-9.89258C9.9707-10.3418 9.67773-10.6445 9.22852-10.6445C8.79883-10.6445 8.50586-10.3418 8.50586-9.89258L8.50586-7.7832L6.39648-7.7832C5.94727-7.7832 5.64453-7.48047 5.64453-7.04102C5.64453-6.61133 5.94727-6.31836 6.39648-6.31836Z"/>
  </g>
  <g id="" transform="matrix(1 0 0 1 281.506 1933)">
   <path d="M11.709 2.91016C17.1582 2.91016 21.6699-1.61133 21.6699-7.05078C21.6699-12.5 17.1484-17.0117 11.6992-17.0117C6.25977-17.0117 1.74805-12.5 1.74805-7.05078C1.74805-1.61133 6.26953 2.91016 11.709 2.91016ZM11.709 1.25C7.09961 1.25 3.41797-2.44141 3.41797-7.05078C3.41797-11.6602 7.08984-15.3516 11.6992-15.3516C16.3086-15.3516 20-11.6602 20.0098-7.05078C20.0195-2.44141 16.3184 1.25 11.709 1.25ZM7.98828-6.23047L10.8789-6.23047L10.8789-3.32031C10.8789-2.83203 11.2109-2.5 11.6895-2.5C12.1777-2.5 12.5195-2.83203 12.5195-3.32031L12.5195-6.23047L15.4297-6.23047C15.918-6.23047 16.25-6.5625 16.25-7.04102C16.25-7.5293 15.918-7.87109 15.4297-7.87109L12.5195-7.87109L12.5195-10.7617C12.5195-11.2695 12.1777-11.6016 11.6895-11.6016C11.2109-11.6016 10.8789-11.2598 10.8789-10.7617L10.8789-7.87109L7.98828-7.87109C7.48047-7.87109 7.14844-7.5293 7.14844-7.04102C7.14844-6.5625 7.49023-6.23047 7.98828-6.23047Z"/>
  </g>
  <g id="" transform="matrix(1 0 0 1 304.924 1933)">
   <path d="M14.9707 5.66406C21.9336 5.66406 27.6953-0.0976562 27.6953-7.05078C27.6953-14.0137 21.9238-19.7754 14.9609-19.7754C8.00781-19.7754 2.25586-14.0137 2.25586-7.05078C2.25586-0.0976562 8.01758 5.66406 14.9707 5.66406ZM14.9707 3.84766C8.93555 3.84766 4.08203-1.01562 4.08203-7.05078C4.08203-13.0957 8.92578-17.9492 14.9609-17.9492C21.0059-17.9492 25.8594-13.0957 25.8691-7.05078C25.8789-1.01562 21.0156 3.84766 14.9707 3.84766ZM10.0586-6.14258L14.0625-6.14258L14.0625-2.12891C14.0625-1.5918 14.4336-1.2207 14.9512-1.2207C15.4883-1.2207 15.8594-1.5918 15.8594-2.12891L15.8594-6.14258L19.8828-6.14258C20.4102-6.14258 20.791-6.51367 20.791-7.03125C20.791-7.56836 20.4199-7.94922 19.8828-7.94922L15.8594-7.94922L15.8594-11.9531C15.8594-12.5098 15.4883-12.8809 14.9512-12.8809C14.4336-12.8809 14.0625-12.5 14.0625-11.9531L14.0625-7.94922L10.0586-7.94922C9.50195-7.94922 9.13086-7.56836 9.13086-7.03125C9.13086-6.51367 9.51172-6.14258 10.0586-6.14258Z"/>
  </g>
  <text style="stroke:none;fill:black;font-family:-apple-system,&quot;SF Pro Display&quot;,&quot;SF Pro Text&quot;,Helvetica,sans-serif;font-weight:bold;" transform="matrix(1 0 0 1 263 1953)">Design Variations</text>
  <text style="stroke:none;fill:black;font-family:-apple-system,&quot;SF Pro Display&quot;,&quot;SF Pro Text&quot;,Helvetica,sans-serif;" transform="matrix(1 0 0 1 263 1971)">Symbols are supported in up to nine weights and three scales.</text>
  <text style="stroke:none;fill:black;font-family:-apple-system,&quot;SF Pro Display&quot;,&quot;SF Pro Text&quot;,Helvetica,sans-serif;" transform="matrix(1 0 0 1 263 1989)">For optimal layout with text and other symbols, vertically align</text>
  <text style="stroke:none;fill:black;font-family:-apple-system,&quot;SF Pro Display&quot;,&quot;SF Pro Text&quot;,Helvetica,sans-serif;" transform="matrix(1 0 0 1 263 2007)">symbols with the adjacent text.</text>
  <line id="" style="fill:none;stroke:#00AEEF;stroke-width:0.5;opacity:1.0;" x1="776" x2="776" y1="1919" y2="1933"/>
  <g id="" transform="matrix(1 0 0 1 776 1933)">
   <path d="M3.31055 0.126953C3.82812 0.126953 4.08203-0.0683594 4.26758-0.605469L5.52734-4.0625L11.2891-4.0625L12.5488-0.605469C12.7344-0.0683594 12.9883 0.126953 13.4961 0.126953C14.0137 0.126953 14.3457-0.185547 14.3457-0.673828C14.3457-0.839844 14.3164-0.986328 14.2383-1.20117L9.6582-13.3887C9.43359-13.9941 9.0332-14.2871 8.4082-14.2871C7.80273-14.2871 7.39258-13.9941 7.17773-13.3984L2.59766-1.19141C2.51953-0.976562 2.49023-0.830078 2.49023-0.664062C2.49023-0.175781 2.80273 0.126953 3.31055 0.126953ZM6.00586-5.53711L8.37891-12.1094L8.42773-12.1094L10.8008-5.53711Z"/>
  </g>
  <line id="" style="fill:none;stroke:#00AEEF;stroke-width:0.5;opacity:1.0;" x1="792.836" x2="792.836" y1="1919" y2="1933"/>
  <text style="stroke:none;fill:black;font-family:-apple-system,&quot;SF Pro Display&quot;,&quot;SF Pro Text&quot;,Helvetica,sans-serif;font-weight:bold;" transform="matrix(1 0 0 1 776 1953)">Margins</text>
  <text style="stroke:none;fill:black;font-family:-apple-system,&quot;SF Pro Display&quot;,&quot;SF Pro Text&quot;,Helvetica,sans-serif;" transform="matrix(1 0 0 1 776 1971)">Leading and trailing margins on the left and right side of each symbol</text>
  <text style="stroke:none;fill:black;font-family:-apple-system,&quot;SF Pro Display&quot;,&quot;SF Pro Text&quot;,Helvetica,sans-serif;" transform="matrix(1 0 0 1 776 1989)">can be adjusted by modifying the x-location of the margin guidelines.</text>
  <text style="stroke:none;fill:black;font-family:-apple-system,&quot;SF Pro Display&quot;,&quot;SF Pro Text&quot;,Helvetica,sans-serif;" transform="matrix(1 0 0 1 776 2007)">Modifications are automatically applied proportionally to all</text>
  <text style="stroke:none;fill:black;font-family:-apple-system,&quot;SF Pro Display&quot;,&quot;SF Pro Text&quot;,Helvetica,sans-serif;" transform="matrix(1 0 0 1 776 2025)">scales and weights.</text>
  <g id="" transform="matrix(1 0 0 1 1289 1933)">
   <path d="M2.8418 1.86523L4.54102 3.57422C5.40039 4.44336 6.38672 4.38477 7.31445 3.35938L17.4902-7.85156C17.7539-7.76367 18.0273-7.7832 18.3398-7.8418L19.4043-8.03711L20.0684-7.36328L20.0293-6.80664C19.9902-6.30859 20.1172-5.92773 20.6055-5.44922L21.3672-4.70703C21.8457-4.22852 22.4609-4.19922 22.9297-4.66797L25.8398-7.58789C26.3086-8.05664 26.2891-8.65234 25.8105-9.13086L25.0391-9.89258C24.5605-10.3711 24.1895-10.5273 23.7109-10.4883L23.1348-10.4395L22.4902-11.0742L22.7344-12.1973C22.8613-12.7637 22.7051-13.2031 22.1191-13.7891L19.9219-15.9766C16.582-19.2969 12.1484-19.2188 9.25781-16.3281C8.83789-15.918 8.80859-15.3418 9.04297-14.9512C9.27734-14.5898 9.73633-14.3555 10.3809-14.5215C11.8457-14.8633 13.3691-14.9219 14.7949-13.9844L14.209-12.5293C14.0137-12.0508 13.9844-11.6504 14.1113-11.2891L3.04688-0.898438C2.06055 0.0195312 1.98242 0.996094 2.8418 1.86523ZM10.752-15.957C13.1836-17.7344 16.4746-17.4316 18.7012-15.2051L21.1328-12.793C21.3672-12.5586 21.4062-12.373 21.3379-12.0312L21.0156-10.5469L22.5195-9.0625L23.5059-9.12109C23.7598-9.13086 23.8379-9.11133 24.0332-8.91602L24.6094-8.33984L22.168-5.89844L21.5918-6.47461C21.3965-6.66992 21.3672-6.74805 21.377-7.01172L21.4453-7.98828L19.9512-9.47266L18.4277-9.21875C18.1055-9.15039 17.959-9.17969 17.7148-9.41406L15.7129-11.416C15.459-11.6504 15.4297-11.8164 15.5859-12.1875L16.4648-14.2773C14.9023-15.7324 12.8711-16.3574 10.8398-15.7617C10.6836-15.7227 10.625-15.8496 10.752-15.957ZM5.27344 2.30469L4.10156 1.14258C3.63281 0.683594 3.74023 0.341797 4.14062-0.0195312L14.9512-10.1953L16.416-8.71094L6.42578 2.27539C6.07422 2.67578 5.74219 2.77344 5.27344 2.30469Z"/>
  </g>
  <text style="stroke:none;fill:black;font-family:-apple-system,&quot;SF Pro Display&quot;,&quot;SF Pro Text&quot;,Helvetica,sans-serif;font-weight:bold;" transform="matrix(1 0 0 1 1289 1953)">Exporting</text>
  <text style="stroke:none;fill:black;font-family:-apple-system,&quot;SF Pro Display&quot;,&quot;SF Pro Text&quot;,Helvetica,sans-serif;" transform="matrix(1 0 0 1 1289 1971)">Symbols should be outlined when exporting to ensure the</text>
  <text style="stroke:none;fill:black;font-family:-apple-system,&quot;SF Pro Display&quot;,&quot;SF Pro Text&quot;,Helvetica,sans-serif;" transform="matrix(1 0 0 1 1289 1989)">design is preserved when submitting to Xcode.</text>
  <text id="template-version" style="stroke:none;fill:black;font-family:-apple-system,&quot;SF Pro Display&quot;,&quot;SF Pro Text&quot;,Helvetica,sans-serif;text-anchor:end;" transform="matrix(1 0 0 1 3036 1933)">Template v.2.0</text>
  <text style="stroke:none;fill:black;font-family:-apple-system,&quot;SF Pro Display&quot;,&quot;SF Pro Text&quot;,Helvetica,sans-serif;text-anchor:end;" transform="matrix(1 0 0 1 3036 1951)">Requires Xcode 12 or greater</text>
  <text style="stroke:none;fill:black;font-family:-apple-system,&quot;SF Pro Display&quot;,&quot;SF Pro Text&quot;,Helvetica,sans-serif;text-anchor:end;" transform="matrix(1 0 0 1 3036 1969)">Generated from envelope.circle.fill</text>
  <text style="stroke:none;fill:black;font-family:-apple-system,&quot;SF Pro Display&quot;,&quot;SF Pro Text&quot;,Helvetica,sans-serif;text-anchor:end;" transform="matrix(1 0 0 1 3036 1987)">Typeset at 100 points</text>
  <text style="stroke:none;fill:black;font-family:-apple-system,&quot;SF Pro Display&quot;,&quot;SF Pro Text&quot;,Helvetica,sans-serif;" transform="matrix(1 0 0 1 263 726)">Small</text>
  <text style="stroke:none;fill:black;font-family:-apple-system,&quot;SF Pro Display&quot;,&quot;SF Pro Text&quot;,Helvetica,sans-serif;" transform="matrix(1 0 0 1 263 1156)">Medium</text>
  <text style="stroke:none;fill:black;font-family:-apple-system,&quot;SF Pro Display&quot;,&quot;SF Pro Text&quot;,Helvetica,sans-serif;" transform="matrix(1 0 0 1 263 1586)">Large</text>
 </g>
 <g id="Guides">
  <g id="H-reference" style="fill:#27AAE1;stroke:none;" transform="matrix(1 0 0 1 339 696)">
   <path d="M0.976562 0L3.66211 0L12.9883-24.4629L45.752-24.4629L55.127 0L57.7637 0L30.6152-70.459L28.125-70.459ZM29.3457-67.1387L29.4434-67.1387L44.873-26.709L13.8672-26.709Z"/>
  </g>
  <line id="Baseline-S" style="fill:none;stroke:#27AAE1;opacity:1;stroke-width:0.5;" x1="263" x2="3036" y1="696" y2="696"/>
  <line id="Capline-S" style="fill:none;stroke:#27AAE1;opacity:1;stroke-width:0.5;" x1="263" x2="3036" y1="625.541" y2="625.541"/>
  <g id="H-reference" style="fill:#27AAE1;stroke:none;" transform="matrix(1 0 0 1 339 1126)">
   <path d="M0.976562 0L3.66211 0L12.9883-24.4629L45.752-24.4629L55.127 0L57.7637 0L30.6152-70.459L28.125-70.459ZM29.3457-67.1387L29.4434-67.1387L44.873-26.709L13.8672-26.709Z"/>
  </g>
  <line id="Baseline-M" style="fill:none;stroke:#27AAE1;opacity:1;stroke-width:0.5;" x1="263" x2="3036" y1="1126" y2="1126"/>
  <line id="Capline-M" style="fill:none;stroke:#27AAE1;opacity:1;stroke-width:0.5;" x1="263" x2="3036" y1="1055.54" y2="1055.54"/>
  <g id="H-reference" style="fill:#27AAE1;stroke:none;" transform="matrix(1 0 0 1 339 1556)">
   <path d="M0.976562 0L3.66211 0L12.9883-24.4629L45.752-24.4629L55.127 0L57.7637 0L30.6152-70.459L28.125-70.459ZM29.3457-67.1387L29.4434-67.1387L44.873-26.709L13.8672-26.709Z"/>
  </g>
  <line id="Baseline-L" style="fill:none;stroke:#27AAE1;opacity:1;stroke-width:0.5;" x1="263" x2="3036" y1="1556" y2="1556"/>
  <line id="Capline-L" style="fill:none;stroke:#27AAE1;opacity:1;stroke-width:0.5;" x1="263" x2="3036" y1="1485.54" y2="1485.54"/>
  <line id="left-margin" style="fill:none;stroke:#00AEEF;stroke-width:0.5;opacity:1.0;" x1="1391.3" x2="1391.3" y1="1030.79" y2="1150.12"/>
  <line id="right-margin" style="fill:none;stroke:#00AEEF;stroke-width:0.5;opacity:1.0;" x1="1508.39" x2="1508.39" y1="1030.79" y2="1150.12"/>
 </g>
 <g id="Symbols">
  <g id="Black-L" transform="matrix(1 0 0 1 2854.05 1556)">
   <path d="M79.3457 32.9102C116.748 32.9102 147.412 2.29492 147.412-35.1074C147.412-72.5586 116.748-103.174 79.2969-103.174C41.8945-103.174 11.2793-72.5586 11.2793-35.1074C11.2793 2.29492 41.9434 32.9102 79.3457 32.9102ZM79.2969-33.5938C78.0762-33.5938 76.9531-34.1797 75.5371-35.5469L50.3906-60.7422C51.5625-61.4746 53.4668-61.9141 56.0547-61.9141L102.539-61.9141C105.127-61.9141 106.982-61.4746 108.203-60.7422L83.0566-35.5469C81.6406-34.2285 80.5664-33.5938 79.2969-33.5938ZM67.0898-35.6934L45.9961-14.5508C45.5078-15.5762 45.166-17.1387 45.166-19.4336L45.166-50.8301C45.166-53.3691 45.6055-55.2246 46.2891-56.3477ZM91.5039-35.6934L112.305-56.3477C112.988-55.2246 113.428-53.3691 113.428-50.8301L113.428-19.4336C113.428-17.1387 113.086-15.5762 112.598-14.5508ZM79.2969-27.1973C81.6895-27.1973 83.7402-28.125 85.8398-30.127L87.2559-31.4941L108.838-9.81445C107.666-8.88672 105.518-8.34961 102.637-8.34961L55.957-8.34961C53.0762-8.34961 50.9277-8.88672 49.707-9.81445L71.3379-31.4941L72.7051-30.127C74.8047-28.125 76.8555-27.1973 79.2969-27.1973Z"/>
  </g>
  <g id="Heavy-L" transform="matrix(1 0 0 1 2558.39 1556)">
   <path d="M78.2715 31.8848C115.088 31.8848 145.312 1.66016 145.312-35.1562C145.312-71.9238 115.039-102.148 78.2715-102.148C41.4551-102.148 11.2793-71.9238 11.2793-35.1562C11.2793 1.66016 41.5039 31.8848 78.2715 31.8848ZM78.2715-33.1055C77.0996-33.1055 75.9277-33.6426 74.5117-34.9609L48.6816-60.8887C49.707-61.6211 51.6113-62.1094 54.248-62.1094L102.246-62.1094C104.883-62.1094 106.738-61.6211 107.861-60.8887L81.9824-34.9609C80.6152-33.6914 79.4922-33.1055 78.2715-33.1055ZM66.0156-35.5469L44.6289-14.1113C44.1406-15.0879 43.7988-16.6504 43.7988-18.9453L43.7988-51.3672C43.7988-53.8086 44.2383-55.6152 44.8242-56.5918ZM90.4297-35.5469L111.621-56.5918C112.207-55.6152 112.646-53.8086 112.646-51.3672L112.646-18.9453C112.646-16.6504 112.305-15.0879 111.816-14.1113ZM78.2227-27.0996C80.6152-27.0996 82.6172-28.0273 84.7656-30.0781L86.377-31.5918L108.301-9.61914C107.227-8.69141 105.176-8.20312 102.295-8.20312L54.1992-8.20312C51.3184-8.20312 49.2676-8.69141 48.1934-9.61914L70.1172-31.5918L71.7285-30.0781C73.877-28.0273 75.8789-27.0996 78.2227-27.0996Z"/>
  </g>
  <g id="Bold-L" transform="matrix(1 0 0 1 2262.88 1556)">
   <path d="M77.0996 30.6641C113.232 30.6641 142.92 0.927734 142.92-35.1562C142.92-71.2891 113.184-100.977 77.0508-100.977C40.9668-100.977 11.2793-71.2891 11.2793-35.1562C11.2793 0.927734 41.0156 30.6641 77.0996 30.6641ZM77.0996-32.5195C75.9277-32.5195 74.7559-33.0078 73.3887-34.2773L46.7285-61.084C47.6562-61.7676 49.6094-62.3047 52.2461-62.3047L101.904-62.3047C104.59-62.3047 106.494-61.7676 107.471-61.084L80.7617-34.2773C79.4922-33.0566 78.3203-32.5195 77.0996-32.5195ZM64.8438-35.3516L43.1152-13.623C42.627-14.5508 42.334-16.1133 42.334-18.4082L42.334-51.9531C42.334-54.2969 42.6758-56.0059 43.2129-56.8848ZM89.209-35.3516L110.84-56.8848C111.377-56.0059 111.719-54.2969 111.719-51.9531L111.719-18.4082C111.719-16.1133 111.426-14.5508 110.938-13.623ZM77.0508-27.0508C79.3945-27.0508 81.3477-27.8809 83.5449-29.9805L85.3516-31.6895L107.666-9.375C106.689-8.54492 104.736-8.05664 101.953-8.05664L52.1973-8.05664C49.4141-8.05664 47.4609-8.54492 46.4844-9.375L68.7988-31.6895L70.6055-29.9805C72.8027-27.8809 74.7559-27.0508 77.0508-27.0508Z"/>
  </g>
  <g id="Semibold-L" transform="matrix(1 0 0 1 1966.97 1556)">
   <path d="M76.2695 29.834C111.914 29.834 141.309 0.439453 141.309-35.1562C141.309-70.8008 111.865-100.195 76.2695-100.195C40.625-100.195 11.2793-70.8008 11.2793-35.1562C11.2793 0.439453 40.6738 29.834 76.2695 29.834ZM76.3184-32.1777C75.1465-32.1777 73.9258-32.6172 72.6074-33.8379L45.3613-61.1816C46.2402-61.8652 48.1934-62.4512 50.8789-62.4512L101.709-62.4512C104.395-62.4512 106.299-61.8652 107.227-61.1816L79.9316-33.8379C78.6621-32.666 77.4902-32.1777 76.3184-32.1777ZM64.0137-35.2539L42.0898-13.3301C41.5527-14.209 41.3086-15.7715 41.3086-18.0664L41.3086-52.3438C41.3086-54.6387 41.6016-56.2988 42.0898-57.1289ZM88.3789-35.2539L110.352-57.1289C110.791-56.2988 111.133-54.6387 111.133-52.3438L111.133-18.0664C111.133-15.7715 110.84-14.209 110.303-13.3301ZM76.2695-27.002C78.5645-27.002 80.4688-27.832 82.7148-29.9316L84.668-31.7871L107.227-9.22852C106.348-8.39844 104.443-7.95898 101.709-7.95898L50.8301-7.95898C48.0957-7.95898 46.1914-8.39844 45.3125-9.22852L67.8223-31.7871L69.8242-29.9316C72.0703-27.832 73.9746-27.002 76.2695-27.002Z"/>
  </g>
  <g id="Medium-L" transform="matrix(1 0 0 1 1670.87 1556)">
   <path d="M75.6836 29.1992C110.938 29.1992 140.088 0.0976562 140.088-35.1562C140.088-70.459 110.889-99.5605 75.6348-99.5605C40.3809-99.5605 11.2793-70.459 11.2793-35.1562C11.2793 0.0976562 40.3809 29.1992 75.6836 29.1992ZM75.6836-31.8848C74.5605-31.8848 73.3398-32.2754 72.0215-33.4961L44.3359-61.2793C45.2148-61.9629 47.1191-62.5488 49.8047-62.5488L101.514-62.5488C104.248-62.5488 106.152-61.9629 106.982-61.2793L79.2969-33.4961C78.0762-32.3242 76.8555-31.8848 75.6836-31.8848ZM63.4277-35.1562L41.3086-13.0371C40.7715-13.916 40.5273-15.4785 40.5273-17.7734L40.5273-52.6367C40.5273-54.9316 40.7715-56.543 41.2109-57.2754ZM87.7441-35.1562L109.961-57.2754C110.4-56.543 110.645-54.9316 110.645-52.6367L110.645-17.7734C110.645-15.4785 110.352-13.916 109.863-13.0371ZM75.6348-26.9531C77.9297-26.9531 79.7852-27.7832 82.0312-29.8828L84.1797-31.8359L106.885-9.08203C106.055-8.30078 104.248-7.86133 101.514-7.86133L49.8047-7.86133C47.0703-7.86133 45.2637-8.30078 44.3848-9.08203L67.1387-31.8359L69.2383-29.8828C71.4844-27.7832 73.3887-26.9531 75.6348-26.9531Z"/>
  </g>
  <g id="Regular-L" transform="matrix(1 0 0 1 1374.97 1556)">
   <path d="M74.8535 28.418C109.668 28.418 138.477-0.390625 138.477-35.2051C138.477-69.9707 109.619-98.7793 74.8047-98.7793C40.0391-98.7793 11.2793-69.9707 11.2793-35.2051C11.2793-0.390625 40.0879 28.418 74.8535 28.418ZM74.9023-31.4941C73.7793-31.4941 72.5098-31.8848 71.2402-33.0566L43.0176-61.377C43.7988-62.0605 45.7031-62.6953 48.4375-62.6953L101.318-62.6953C104.053-62.6953 105.957-62.0605 106.738-61.377L78.4668-33.0566C77.2949-31.9336 76.0742-31.4941 74.9023-31.4941ZM62.5977-35.0586L40.2832-12.7441C39.7461-13.5254 39.502-15.0879 39.502-17.3828L39.502-53.0273C39.502-55.2734 39.6973-56.7871 40.0879-57.4707ZM86.9141-35.0586L109.424-57.4707C109.814-56.7871 110.01-55.2734 110.01-53.0273L110.01-17.3828C110.01-15.0879 109.766-13.5254 109.277-12.7441ZM74.8535-26.9043C77.0996-26.9043 78.9062-27.6855 81.2012-29.7852L83.4961-31.8848L106.445-8.93555C105.713-8.1543 103.955-7.76367 101.27-7.76367L48.4375-7.76367C45.752-7.76367 43.9941-8.1543 43.2129-8.93555L66.2109-31.8848L68.457-29.7852C70.752-27.6855 72.6074-26.9043 74.8535-26.9043Z"/>
  </g>
  <g id="Light-L" transform="matrix(1 0 0 1 1079.18 1556)">
   <path d="M73.9258 27.4902C108.301 27.4902 136.621-0.830078 136.621-35.2051C136.621-69.5312 108.252-97.8516 73.9258-97.8516C39.5508-97.8516 11.2793-69.5312 11.2793-35.2051C11.2793-0.830078 39.5996 27.4902 73.9258 27.4902ZM74.0723-31.1035C72.9004-31.1035 71.5332-31.5918 70.3125-32.7148L42.2363-60.8887C43.0176-61.6211 44.9707-62.3047 47.7539-62.3047L100.342-62.3047C103.125-62.3047 105.078-61.6211 105.811-60.8887L77.7344-32.7148C76.5625-31.5918 75.2441-31.1035 74.0723-31.1035ZM62.3047-34.9609L39.9414-12.5977C39.3066-13.4766 39.0137-15.0879 39.0137-17.334L39.0137-53.125C39.0137-55.3223 39.2578-56.8359 39.6973-57.5195ZM85.4492-34.9609L108.057-57.5195C108.496-56.8359 108.74-55.3223 108.74-53.125L108.74-17.334C108.74-15.0879 108.447-13.4766 107.812-12.5977ZM74.0234-27.2461C76.1719-27.2461 78.0273-28.0762 80.0293-29.9316L82.6172-32.2754L105.469-9.42383C104.688-8.54492 102.979-8.20312 100.293-8.20312L47.7539-8.20312C45.0684-8.20312 43.3594-8.54492 42.5293-9.42383L65.4785-32.2754L67.9688-29.9316C69.9707-28.0762 71.875-27.2461 74.0234-27.2461Z"/>
  </g>
  <g id="Thin-L" transform="matrix(1 0 0 1 783.693 1556)">
   <path d="M72.7051 26.2695C106.494 26.2695 134.18-1.41602 134.18-35.2051C134.18-68.9453 106.494-96.6309 72.7051-96.6309C38.9648-96.6309 11.2793-68.9453 11.2793-35.2051C11.2793-1.41602 38.9648 26.2695 72.7051 26.2695ZM72.9492-30.5664C71.7285-30.5664 70.2637-31.2012 69.0918-32.2754L41.2109-60.2051C41.9434-61.084 43.9453-61.7676 46.8262-61.7676L99.0234-61.7676C101.904-61.7676 103.906-61.084 104.639-60.2051L76.709-32.2754C75.6348-31.2012 74.1211-30.5664 72.9492-30.5664ZM61.9629-34.8145L39.5508-12.4512C38.7695-13.4277 38.3789-15.0391 38.3789-17.2852L38.3789-53.2715C38.3789-55.3711 38.6719-56.8848 39.1602-57.6172ZM83.4473-34.8145L106.25-57.6172C106.738-56.8848 107.031-55.3711 107.031-53.2715L107.031-17.2852C107.031-15.0391 106.641-13.4277 105.859-12.4512ZM72.9492-27.7344C74.9512-27.7344 76.8066-28.5645 78.5156-30.1758L81.3965-32.8125L104.199-10.0098C103.369-9.08203 101.758-8.74023 99.0234-8.74023L46.8262-8.74023C44.0918-8.74023 42.4805-9.08203 41.6016-10.0098L64.4531-32.8125L67.2852-30.1758C68.9453-28.5645 70.8984-27.7344 72.9492-27.7344Z"/>
  </g>
  <g id="Ultralight-L" transform="matrix(1 0 0 1 487.616 1556)">
   <path d="M72.1191 25.6348C105.566 25.6348 132.91-1.70898 132.91-35.2051C132.91-68.6523 105.566-95.9961 72.1191-95.9961C38.623-95.9961 11.2793-68.6523 11.2793-35.2051C11.2793-1.70898 38.623 25.6348 72.1191 25.6348ZM72.3633-30.3223C71.1426-30.3223 69.5801-31.0059 68.457-32.0312L40.6738-59.8633C41.4062-60.791 43.457-61.5234 46.3379-61.5234L98.3887-61.5234C101.27-61.5234 103.32-60.791 104.004-59.8633L76.1719-32.0312C75.1465-31.0059 73.584-30.3223 72.3633-30.3223ZM61.7676-34.7656L39.3066-12.4023C38.4766-13.3789 38.0371-14.9902 38.0371-17.2363L38.0371-53.3203C38.0371-55.3711 38.3789-56.9336 38.8672-57.666ZM82.4219-34.7656L105.322-57.666C105.811-56.9336 106.152-55.3711 106.152-53.3203L106.152-17.2363C106.152-14.9902 105.713-13.3789 104.883-12.4023ZM72.3633-27.9785C74.3652-27.9785 76.2207-28.8086 77.7344-30.2734L80.7617-33.0566L103.516-10.3516C102.686-9.32617 101.123-9.0332 98.3887-9.0332L46.3379-9.0332C43.6035-9.0332 42.041-9.32617 41.1133-10.3516L63.9648-33.0566L66.8945-30.2734C68.457-28.8086 70.3613-27.9785 72.3633-27.9785Z"/>
  </g>
  <g id="Black-M" transform="matrix(1 0 0 1 2870.97 1126)">
   <path d="M62.4023 18.5547C91.9922 18.5547 116.113-5.56641 116.113-35.1562C116.113-64.7461 91.9922-88.8184 62.4023-88.8184C32.8125-88.8184 8.74023-64.7461 8.74023-35.1562C8.74023-5.56641 32.8125 18.5547 62.4023 18.5547ZM62.4023-34.4238C61.4258-34.4238 60.5469-35.0098 59.4238-36.0352L41.0156-54.541C41.9922-55.1758 43.5059-55.4688 45.5078-55.4688L79.3457-55.4688C81.3477-55.4688 82.7637-55.1758 83.8379-54.541L65.4297-36.0352C64.3066-35.0098 63.4277-34.4238 62.4023-34.4238ZM53.2715-35.791L37.3047-19.7266C36.8652-20.6055 36.5234-21.8262 36.5234-23.584L36.5234-46.6797C36.5234-48.6816 36.9629-50.2441 37.5977-51.2695ZM71.5332-35.791L87.207-51.2695C87.8418-50.2441 88.2812-48.6816 88.2812-46.6797L88.2812-23.584C88.2812-21.8262 87.9883-20.6055 87.5488-19.7266ZM62.4023-29.2969C64.3066-29.2969 65.9668-30.0293 67.3828-31.4941L68.3105-32.4219L84.6191-16.0645C83.5449-15.2344 81.7871-14.7949 79.4922-14.7949L45.3613-14.7949C43.0664-14.7949 41.3086-15.2344 40.2344-16.0645L56.543-32.4219L57.4219-31.4941C58.8379-30.0293 60.5469-29.2969 62.4023-29.2969Z"/>
  </g>
  <g id="Heavy-M" transform="matrix(1 0 0 1 2575.19 1126)">
   <path d="M61.5234 17.627C90.5273 17.627 114.258-6.10352 114.258-35.1562C114.258-64.1602 90.5273-87.8906 61.4746-87.8906C32.4707-87.8906 8.74023-64.1602 8.74023-35.1562C8.74023-6.10352 32.4707 17.627 61.5234 17.627ZM61.5234-33.9844C60.5469-33.9844 59.668-34.4727 58.5449-35.498L39.3066-54.834C40.2344-55.4199 41.6992-55.7617 43.7012-55.7617L79.2969-55.7617C81.2988-55.7617 82.7637-55.4199 83.6914-54.834L64.4531-35.498C63.3789-34.4727 62.5-33.9844 61.5234-33.9844ZM52.1973-35.6445L35.8887-19.2871C35.498-20.1172 35.2051-21.3379 35.2051-23.0957L35.2051-47.2168C35.2051-49.1699 35.5957-50.6348 36.1328-51.5137ZM70.752-35.6445L86.8164-51.5137C87.4023-50.6348 87.7441-49.1699 87.7441-47.2168L87.7441-23.0957C87.7441-21.3379 87.5-20.1172 87.0605-19.2871ZM61.4746-29.1016C63.3301-29.1016 64.9902-29.834 66.5039-31.3477L67.5781-32.4219L84.2285-15.7227C83.3008-14.9414 81.6406-14.5508 79.3457-14.5508L43.6035-14.5508C41.3574-14.5508 39.6973-14.9414 38.7207-15.7227L55.4199-32.4219L56.4941-31.3477C58.0078-29.834 59.6191-29.1016 61.4746-29.1016Z"/>
  </g>
  <g id="Bold-M" transform="matrix(1 0 0 1 2279.5 1126)">
   <path d="M60.498 16.5527C88.8672 16.5527 112.207-6.73828 112.207-35.1562C112.207-63.5742 88.8672-86.9141 60.4492-86.9141C32.0312-86.9141 8.74023-63.5742 8.74023-35.1562C8.74023-6.73828 32.0801 16.5527 60.498 16.5527ZM60.498-33.4961C59.5703-33.4961 58.6426-33.8867 57.5684-34.9121L37.4023-55.1758C38.1836-55.7129 39.6973-56.1035 41.748-56.1035L79.1992-56.1035C81.25-56.1035 82.7148-55.7129 83.5449-55.1758L63.3301-34.9121C62.3047-33.9355 61.4258-33.4961 60.498-33.4961ZM50.9766-35.4492L34.3262-18.7988C33.9355-19.5312 33.7402-20.752 33.7402-22.5098L33.7402-47.8027C33.7402-49.707 34.0332-51.0742 34.4727-51.8555ZM69.873-35.4492L86.4258-51.8555C86.8652-51.0742 87.1582-49.707 87.1582-47.8027L87.1582-22.5098C87.1582-20.752 86.9141-19.5312 86.5234-18.7988ZM60.4492-28.9062C62.3047-28.9062 63.8184-29.5898 65.5273-31.2012L66.7969-32.4219L83.8379-15.332C83.0078-14.6484 81.4453-14.2578 79.248-14.2578L41.6504-14.2578C39.4531-14.2578 37.8906-14.6484 37.0605-15.332L54.1504-32.4219L55.4199-31.2012C57.0801-29.5898 58.6426-28.9062 60.4492-28.9062Z"/>
  </g>
  <g id="Semibold-M" transform="matrix(1 0 0 1 1983.5 1126)">
   <path d="M59.7656 15.8691C87.7441 15.8691 110.791-7.22656 110.791-35.1562C110.791-63.1348 87.6953-86.2305 59.7656-86.2305C31.7871-86.2305 8.74023-63.1348 8.74023-35.1562C8.74023-7.22656 31.7871 15.8691 59.7656 15.8691ZM59.7656-33.1543C58.8867-33.1543 57.959-33.4961 56.9336-34.4727L36.084-55.3711C36.8164-55.9082 38.2812-56.3477 40.332-56.3477L79.1504-56.3477C81.25-56.3477 82.666-55.9082 83.4473-55.3711L62.5977-34.4727C61.5723-33.5449 60.6934-33.1543 59.7656-33.1543ZM50.1465-35.3516L33.252-18.457C32.9102-19.1406 32.666-20.3613 32.666-22.1191L32.666-48.2422C32.666-50.0977 32.9102-51.416 33.3008-52.0508ZM69.2871-35.3516L86.084-52.0508C86.4746-51.416 86.7188-50.0977 86.7188-48.2422L86.7188-22.1191C86.7188-20.3613 86.5234-19.1406 86.1816-18.457ZM59.7656-28.8086C61.5723-28.8086 63.0371-29.4434 64.7949-31.1035L66.2109-32.4219L83.5449-15.0391C82.8125-14.4043 81.2988-14.0625 79.1504-14.0625L40.332-14.0625C38.1836-14.0625 36.6699-14.4043 35.9375-15.0391L53.2715-32.4219L54.6387-31.1035C56.4453-29.4434 57.9102-28.8086 59.7656-28.8086Z"/>
  </g>
  <g id="Medium-M" transform="matrix(1 0 0 1 1687.3 1126)">
   <path d="M59.2285 15.332C86.9141 15.332 109.766-7.51953 109.766-35.2051C109.766-62.8418 86.8652-85.6934 59.1797-85.6934C31.543-85.6934 8.74023-62.8418 8.74023-35.2051C8.74023-7.51953 31.5918 15.332 59.2285 15.332ZM59.2285-32.8613C58.3496-32.8613 57.4219-33.2031 56.3965-34.1797L35.1074-55.5664C35.791-56.0547 37.2559-56.4941 39.3066-56.4941L79.1016-56.4941C81.2012-56.4941 82.666-56.0547 83.3496-55.5664L62.0117-34.1797C61.0352-33.252 60.1562-32.8613 59.2285-32.8613ZM49.5117-35.2539L32.4707-18.2129C32.0801-18.8477 31.8848-20.0684 31.8848-21.8262L31.8848-48.584C31.8848-50.3906 32.1289-51.6113 32.4707-52.2461ZM68.8477-35.2539L85.8887-52.2461C86.2305-51.6113 86.4258-50.3906 86.4258-48.584L86.4258-21.8262C86.4258-20.0684 86.2305-18.8477 85.8887-18.2129ZM59.1797-28.6621C61.0352-28.6621 62.4512-29.3457 64.3066-31.0547L65.7715-32.4219L83.3496-14.8438C82.666-14.2578 81.2012-13.916 79.1016-13.916L39.3066-13.916C37.1582-13.916 35.7422-14.2578 35.0586-14.8438L52.5879-32.4219L54.1016-31.0547C55.957-29.3457 57.373-28.6621 59.1797-28.6621Z"/>
  </g>
  <g id="Regular-M" transform="matrix(1 0 0 1 1391.3 1126)">
   <path d="M58.5449 14.5996C85.791 14.5996 108.35-7.95898 108.35-35.2051C108.35-62.4023 85.7422-85.0098 58.4961-85.0098C31.2988-85.0098 8.74023-62.4023 8.74023-35.2051C8.74023-7.95898 31.3477 14.5996 58.5449 14.5996ZM58.5449-32.5684C57.7148-32.5684 56.7871-32.8125 55.7617-33.7402L33.7891-55.7617C34.4238-56.25 35.8398-56.7383 37.9395-56.7383L79.0527-56.7383C81.1523-56.7383 82.6172-56.25 83.252-55.7617L61.2793-33.7402C60.3027-32.8613 59.4238-32.5684 58.5449-32.5684ZM48.6816-35.1074L31.3965-17.8711C31.0547-18.457 30.9082-19.6289 30.9082-21.4355L30.9082-48.9746C30.9082-50.7324 31.0547-51.9043 31.2988-52.4414ZM68.2129-35.1074L85.5957-52.4414C85.8398-51.9043 86.0352-50.7324 86.0352-48.9746L86.0352-21.4355C86.0352-19.6289 85.8398-18.457 85.498-17.8711ZM58.4961-28.5645C60.3027-28.5645 61.6699-29.1504 63.623-30.957L65.2344-32.4219L83.0566-14.5996C82.4707-14.0625 81.1035-13.6719 79.0039-13.6719L37.9395-13.6719C35.8887-13.6719 34.4727-14.0625 33.8867-14.5996L51.7578-32.4219L53.3691-30.957C55.2734-29.1504 56.6895-28.5645 58.4961-28.5645Z"/>
  </g>
  <g id="Light-M" transform="matrix(1 0 0 1 1095.42 1126)">
   <path d="M57.7148 13.7695C84.5215 13.7695 106.689-8.34961 106.689-35.2051C106.689-62.0117 84.5215-84.1797 57.666-84.1797C30.8594-84.1797 8.74023-62.0117 8.74023-35.2051C8.74023-8.34961 30.9082 13.7695 57.7148 13.7695ZM57.7637-32.1777C56.8848-32.1777 55.9082-32.5195 54.9316-33.4473L33.1055-55.3223C33.6914-55.8594 35.2051-56.3965 37.3047-56.3965L78.1738-56.3965C80.3223-56.3965 81.8359-55.8594 82.4219-55.3223L60.5957-33.4473C59.668-32.5684 58.6914-32.1777 57.7637-32.1777ZM48.4375-35.0586L31.1035-17.7734C30.6641-18.4082 30.4688-19.6289 30.4688-21.3867L30.4688-49.0723C30.4688-50.7812 30.6641-51.9531 30.957-52.4902ZM66.8945-35.0586L84.375-52.4902C84.668-51.9531 84.8633-50.7812 84.8633-49.0723L84.8633-21.3867C84.8633-19.6289 84.6191-18.4082 84.2285-17.7734ZM57.7637-28.9062C59.4727-28.9062 60.8887-29.4922 62.5488-31.0547L64.4043-32.7637L82.1777-14.9902C81.5918-14.4043 80.2734-14.0625 78.1738-14.0625L37.3047-14.0625C35.2539-14.0625 33.8867-14.4043 33.3008-14.9902L51.0742-32.7637L52.8809-31.0547C54.5898-29.4922 56.0059-28.9062 57.7637-28.9062Z"/>
  </g>
  <g id="Thin-M" transform="matrix(1 0 0 1 799.806 1126)">
   <path d="M56.6406 12.6953C82.9102 12.6953 104.492-8.88672 104.492-35.2051C104.492-61.4746 82.9102-83.0566 56.5918-83.0566C30.3223-83.0566 8.74023-61.4746 8.74023-35.2051C8.74023-8.88672 30.3223 12.6953 56.6406 12.6953ZM56.7871-31.7383C55.8594-31.7383 54.7363-32.1777 53.8086-33.0078L32.1777-54.7363C32.7637-55.3711 34.2773-55.9082 36.4746-55.9082L77.0508-55.9082C79.248-55.9082 80.8105-55.3711 81.3477-54.7363L59.668-33.0078C58.8379-32.1777 57.7148-31.7383 56.7871-31.7383ZM48.0957-34.9609L30.7129-17.627C30.1758-18.3594 29.8828-19.5801 29.8828-21.3379L29.8828-49.1699C29.8828-50.8301 30.127-52.002 30.4688-52.5391ZM65.0879-34.9609L82.7148-52.5391C83.1055-52.002 83.3008-50.8301 83.3008-49.1699L83.3008-21.3379C83.3008-19.5801 83.0566-18.3594 82.4707-17.627ZM56.7383-29.2969C58.3496-29.2969 59.8145-29.9316 61.1816-31.25L63.3301-33.252L81.0059-15.5762C80.4199-14.8438 79.1504-14.5996 77.002-14.5996L36.4746-14.5996C34.375-14.5996 33.1055-14.8438 32.4219-15.5762L50.1953-33.252L52.2949-31.25C53.6621-29.9316 55.127-29.2969 56.7383-29.2969Z"/>
  </g>
  <g id="Ultralight-M" transform="matrix(1 0 0 1 503.656 1126)">
   <path d="M56.0547 12.1094C82.0801 12.1094 103.369-9.17969 103.369-35.2051C103.369-61.2305 82.0801-82.5195 56.0547-82.5195C30.0293-82.5195 8.74023-61.2305 8.74023-35.2051C8.74023-9.17969 30.0293 12.1094 56.0547 12.1094ZM56.25-31.4941C55.3223-31.4941 54.1504-31.9824 53.2715-32.8125L31.6895-54.4434C32.2754-55.127 33.8379-55.6641 36.084-55.6641L76.4648-55.6641C78.7109-55.6641 80.2246-55.127 80.8105-54.4434L59.1797-32.8125C58.3984-31.9824 57.1777-31.4941 56.25-31.4941ZM47.9492-34.8633L30.5176-17.5781C29.9316-18.3105 29.5898-19.5312 29.5898-21.2891L29.5898-49.2188C29.5898-50.8301 29.834-52.0508 30.2246-52.5879ZM64.209-34.8633L81.8848-52.5879C82.2754-52.0508 82.5195-50.8301 82.5195-49.2188L82.5195-21.2891C82.5195-19.5312 82.2266-18.3105 81.5918-17.5781ZM56.25-29.541C57.8125-29.541 59.2285-30.1758 60.498-31.3477L62.793-33.4961L80.4199-15.8203C79.7852-15.0879 78.5645-14.8438 76.4648-14.8438L36.084-14.8438C33.9355-14.8438 32.7148-15.0879 32.0312-15.8203L49.707-33.4961L51.9531-31.3477C53.2227-30.1758 54.6875-29.541 56.25-29.541Z"/>
  </g>
  <g id="Black-S" transform="matrix(1 0 0 1 2884.57 696)">
   <path d="M48.8281 6.83594C71.9727 6.83594 90.8203-12.0117 90.8203-35.1562C90.8203-58.3008 71.9727-77.1484 48.8281-77.1484C25.6836-77.1484 6.83594-58.3008 6.83594-35.1562C6.83594-12.0117 25.6836 6.83594 48.8281 6.83594ZM48.8281-34.5703C48.0469-34.5703 47.3633-35.0098 46.4844-35.8398L31.9824-50.3906C32.7637-50.8789 33.9355-51.123 35.498-51.123L62.1582-51.123C63.7207-51.123 64.8438-50.8789 65.6738-50.3906L51.1719-35.8398C50.293-35.0098 49.6094-34.5703 48.8281-34.5703ZM41.6504-35.6445L29.1016-23.0469C28.7598-23.7305 28.5156-24.707 28.5156-26.0742L28.5156-44.2383C28.5156-45.8008 28.8574-47.0215 29.3457-47.8027ZM56.0059-35.6445L68.3105-47.8027C68.7988-47.0215 69.1406-45.8008 69.1406-44.2383L69.1406-26.0742C69.1406-24.707 68.8965-23.7305 68.5547-23.0469ZM48.8281-30.5664C50.293-30.5664 51.6113-31.1523 52.7344-32.2754L53.4668-33.0078L66.2598-20.166C65.4297-19.5312 64.0625-19.1895 62.2559-19.1895L35.4004-19.1895C33.5938-19.1895 32.2266-19.5312 31.3965-20.166L44.1895-33.0078L44.9219-32.2754C46.0449-31.1523 47.3633-30.5664 48.8281-30.5664Z"/>
  </g>
  <g id="Heavy-S" transform="matrix(1 0 0 1 2588.47 696)">
   <path d="M48.2422 6.20117C70.9961 6.20117 89.5996-12.4023 89.5996-35.1562C89.5996-57.9102 70.9961-76.5625 48.1934-76.5625C25.4395-76.5625 6.83594-57.9102 6.83594-35.1562C6.83594-12.4023 25.4395 6.20117 48.2422 6.20117ZM48.1934-34.2773C47.4609-34.2773 46.7773-34.6191 45.8984-35.4492L30.7617-50.6836C31.4941-51.123 32.6172-51.3672 34.2285-51.3672L62.207-51.3672C63.7695-51.3672 64.8926-51.123 65.6738-50.6836L50.4883-35.4492C49.6582-34.668 48.9746-34.2773 48.1934-34.2773ZM40.8691-35.5469L28.0762-22.7051C27.7344-23.3398 27.5391-24.3164 27.5391-25.6836L27.5391-44.6289C27.5391-46.1914 27.832-47.3145 28.2715-47.998ZM55.5664-35.5469L68.1641-47.998C68.5547-47.3145 68.8477-46.1914 68.8477-44.6289L68.8477-25.6836C68.8477-24.3164 68.6523-23.3398 68.3105-22.7051ZM48.1934-30.3711C49.6582-30.3711 50.9277-30.957 52.1484-32.1777L52.9785-32.959L66.0645-19.873C65.332-19.2871 64.0137-18.9453 62.2559-18.9453L34.1309-18.9453C32.373-18.9453 31.0547-19.2871 30.3223-19.873L43.4082-32.959L44.2383-32.1777C45.459-30.957 46.7285-30.3711 48.1934-30.3711Z"/>
  </g>
  <g id="Bold-S" transform="matrix(1 0 0 1 2292.44 696)">
   <path d="M47.5586 5.51758C69.873 5.51758 88.2324-12.8418 88.2324-35.2051C88.2324-57.5195 69.873-75.8789 47.5098-75.8789C25.1953-75.8789 6.83594-57.5195 6.83594-35.2051C6.83594-12.8418 25.1953 5.51758 47.5586 5.51758ZM47.5098-33.9355C46.8262-33.9355 46.1426-34.2285 45.2637-35.0586L29.3945-50.9766C30.0293-51.3672 31.1523-51.6602 32.7637-51.6602L62.2559-51.6602C63.8672-51.6602 64.9902-51.3672 65.625-50.9766L49.7559-35.0586C48.9258-34.2773 48.2422-33.9355 47.5098-33.9355ZM39.9414-35.4004L26.9043-22.3633C26.6113-22.9004 26.4648-23.877 26.4648-25.2441L26.4648-45.1172C26.4648-46.582 26.6602-47.6562 27.002-48.2422ZM55.0293-35.4004L67.9688-48.2422C68.3105-47.6562 68.5547-46.582 68.5547-45.1172L68.5547-25.2441C68.5547-23.877 68.3594-22.9004 68.0664-22.3633ZM47.5098-30.2246C48.9746-30.2246 50.1465-30.7617 51.5137-32.0312L52.4902-32.959L65.8691-19.5312C65.2344-18.9941 64.0137-18.7012 62.3047-18.7012L32.7148-18.7012C31.0059-18.7012 29.7852-18.9941 29.1504-19.5312L42.5293-32.959L43.457-32.0312C44.8242-30.7617 46.0449-30.2246 47.5098-30.2246Z"/>
  </g>
  <g id="Semibold-S" transform="matrix(1 0 0 1 1996.2 696)">
   <path d="M47.0703 5.0293C69.0918 5.0293 87.3047-13.1348 87.3047-35.2051C87.3047-57.2266 69.0918-75.4395 47.0215-75.4395C25-75.4395 6.83594-57.2266 6.83594-35.2051C6.83594-13.1348 25.0488 5.0293 47.0703 5.0293ZM47.0703-33.6914C46.3867-33.6914 45.6543-33.9355 44.8242-34.7168L28.4668-51.1719C29.0039-51.5625 30.1758-51.9043 31.7871-51.9043L62.3047-51.9043C63.916-51.9043 65.0391-51.5625 65.625-51.1719L49.2188-34.7168C48.4375-33.9844 47.7539-33.6914 47.0703-33.6914ZM39.3066-35.3516L26.123-22.1191C25.8789-22.6074 25.6836-23.584 25.6836-24.9512L25.6836-45.4102C25.6836-46.875 25.8789-47.9004 26.1719-48.3887ZM54.6875-35.3516L67.8711-48.3887C68.1641-47.9004 68.3105-46.875 68.3105-45.4102L68.3105-24.9512C68.3105-23.584 68.1641-22.6074 67.9199-22.1191ZM47.0215-30.0781C48.4863-30.0781 49.6094-30.5664 51.0742-31.9336L52.0996-32.9102L65.7227-19.2871C65.1855-18.7988 63.9648-18.5059 62.3047-18.5059L31.7383-18.5059C30.0781-18.5059 28.8574-18.7988 28.3203-19.2871L41.9434-32.9102L42.9199-31.9336C44.3848-30.5664 45.5566-30.0781 47.0215-30.0781Z"/>
  </g>
  <g id="Medium-S" transform="matrix(1 0 0 1 1699.83 696)">
   <path d="M46.7285 4.6875C68.5547 4.6875 86.6211-13.3789 86.6211-35.2051C86.6211-57.0312 68.5059-75.0977 46.6797-75.0977C24.8535-75.0977 6.83594-57.0312 6.83594-35.2051C6.83594-13.3789 24.9023 4.6875 46.7285 4.6875ZM46.6797-33.5449C46.0449-33.5449 45.3125-33.7402 44.4824-34.5215L27.7344-51.3184C28.2715-51.709 29.3945-52.0508 31.0059-52.0508L62.3047-52.0508C63.916-52.0508 65.0391-51.709 65.625-51.3184L48.8281-34.5215C48.0469-33.7891 47.4121-33.5449 46.6797-33.5449ZM38.8672-35.2539L25.4883-21.9238C25.2441-22.4121 25.1465-23.3398 25.1465-24.7559L25.1465-45.6543C25.1465-47.0703 25.293-48.0469 25.5371-48.5352ZM54.4434-35.2539L67.7734-48.5352C68.0176-48.0469 68.1641-47.0703 68.1641-45.6543L68.1641-24.7559C68.1641-23.3398 68.0176-22.4121 67.7734-21.9238ZM46.6309-29.9805C48.0957-29.9805 49.2188-30.4688 50.7812-31.8848L51.8555-32.9102L65.625-19.0918C65.1367-18.6523 63.9648-18.3594 62.3047-18.3594L31.0059-18.3594C29.3457-18.3594 28.1738-18.6523 27.6855-19.0918L41.4551-32.9102L42.5293-31.8848C44.0918-30.4688 45.2148-29.9805 46.6309-29.9805Z"/>
  </g>
  <g id="Regular-S" transform="matrix(1 0 0 1 1403.58 696)">
   <path d="M46.2402 4.19922C67.7734 4.19922 85.6934-13.6719 85.6934-35.2051C85.6934-56.7383 67.7246-74.6094 46.1914-74.6094C24.707-74.6094 6.83594-56.7383 6.83594-35.2051C6.83594-13.6719 24.7559 4.19922 46.2402 4.19922ZM46.2402-33.3008C45.5566-33.3008 44.873-33.4473 44.043-34.2285L26.8066-51.5625C27.2949-51.9043 28.418-52.2461 30.0293-52.2461L62.3535-52.2461C63.9648-52.2461 65.0879-51.9043 65.5762-51.5625L48.3398-34.2285C47.5586-33.4961 46.9238-33.3008 46.2402-33.3008ZM38.2324-35.2051L24.707-21.6797C24.5117-22.1191 24.4141-23.0469 24.4141-24.4629L24.4141-45.9473C24.4141-47.3633 24.5117-48.291 24.707-48.6816ZM54.1016-35.2051L67.627-48.6816C67.8223-48.291 67.9199-47.3633 67.9199-45.9473L67.9199-24.4629C67.9199-23.0469 67.8223-22.1191 67.627-21.6797ZM46.1914-29.834C47.6074-29.834 48.6816-30.3223 50.3418-31.7871L51.4648-32.8613L65.4785-18.8477C65.0391-18.457 63.916-18.1641 62.3047-18.1641L30.0293-18.1641C28.418-18.1641 27.2949-18.457 26.8555-18.8477L40.8691-32.8613L42.041-31.7871C43.6523-30.3223 44.7266-29.834 46.1914-29.834Z"/>
  </g>
  <g id="Light-S" transform="matrix(1 0 0 1 1107.6 696)">
   <path d="M45.5078 3.4668C66.6992 3.4668 84.2285-14.0137 84.2285-35.2051C84.2285-56.3965 66.6504-73.877 45.5078-73.877C24.3164-73.877 6.83594-56.3965 6.83594-35.2051C6.83594-14.0137 24.3652 3.4668 45.5078 3.4668ZM45.5566-33.0078C44.873-33.0078 44.0918-33.2031 43.3105-33.9355L26.1719-51.123C26.6602-51.5625 27.832-51.9531 29.4922-51.9531L61.5723-51.9531C63.2324-51.9531 64.4043-51.5625 64.8926-51.123L47.7051-33.9355C46.9727-33.252 46.2402-33.0078 45.5566-33.0078ZM38.0371-35.1074L24.4629-21.582C24.1699-22.0703 24.0234-22.998 24.0234-24.4141L24.0234-46.0449C24.0234-47.4121 24.1699-48.3398 24.3652-48.7305ZM52.8809-35.1074L66.5527-48.7305C66.7969-48.3398 66.8945-47.4121 66.8945-46.0449L66.8945-24.4141C66.8945-22.998 66.748-22.0703 66.4551-21.582ZM45.5078-30.127C46.875-30.127 47.998-30.6152 49.4141-31.9336L50.7812-33.1543L64.6973-19.2383C64.2578-18.75 63.1836-18.5059 61.5723-18.5059L29.4922-18.5059C27.832-18.5059 26.7578-18.75 26.3184-19.2383L40.2832-33.1543L41.6016-31.9336C43.0176-30.6152 44.1406-30.127 45.5078-30.127Z"/>
  </g>
  <g id="Thin-S" transform="matrix(1 0 0 1 811.867 696)">
   <path d="M44.5801 2.53906C65.2832 2.53906 82.2754-14.502 82.2754-35.2051C82.2754-55.9082 65.2344-72.9492 44.5312-72.9492C23.8281-72.9492 6.83594-55.9082 6.83594-35.2051C6.83594-14.502 23.877 2.53906 44.5801 2.53906ZM44.6777-32.5684C43.9453-32.5684 43.0664-32.9102 42.3828-33.5938L25.3906-50.6348C25.8301-51.123 27.002-51.5137 28.7598-51.5137L60.5469-51.5137C62.3047-51.5137 63.4766-51.123 63.916-50.6348L46.9238-33.5938C46.2402-32.9102 45.3613-32.5684 44.6777-32.5684ZM37.7441-35.0098L24.1211-21.4844C23.7305-22.0215 23.5352-22.998 23.5352-24.3652L23.5352-46.1426C23.5352-47.4121 23.6816-48.3398 23.9746-48.7793ZM51.3184-35.0098L65.1367-48.7793C65.3809-48.3398 65.5762-47.4121 65.5762-46.1426L65.5762-24.3652C65.5762-22.998 65.332-22.0215 64.9414-21.4844ZM44.6289-30.5176C45.9473-30.5176 47.0215-31.0059 48.1934-32.0801L49.8047-33.5938L63.6719-19.7266C63.2324-19.1895 62.207-18.9453 60.5469-18.9453L28.7598-18.9453C27.0996-18.9453 26.0742-19.1895 25.5859-19.7266L39.4531-33.5938L41.0645-32.0801C42.2363-31.0059 43.3594-30.5176 44.6289-30.5176Z"/>
  </g>
  <g id="Ultralight-S" transform="matrix(1 0 0 1 515.644 696)">
   <path d="M44.043 2.00195C64.502 2.00195 81.2988-14.7461 81.2988-35.2051C81.2988-55.6641 64.502-72.4121 44.043-72.4121C23.584-72.4121 6.83594-55.6641 6.83594-35.2051C6.83594-14.7461 23.584 2.00195 44.043 2.00195ZM44.1895-32.373C43.457-32.373 42.5293-32.7637 41.8457-33.3984L24.9512-50.3418C25.3906-50.8789 26.6113-51.3184 28.3691-51.3184L60.0098-51.3184C61.7676-51.3184 62.9883-50.8789 63.4277-50.3418L46.4844-33.3984C45.8496-32.7637 44.9219-32.373 44.1895-32.373ZM37.5977-34.9609L23.9746-21.3867C23.4863-21.9727 23.2422-22.9492 23.2422-24.3164L23.2422-46.1914C23.2422-47.4609 23.4375-48.3887 23.7305-48.8281ZM50.5371-34.9609L64.3555-48.8281C64.6484-48.3887 64.8438-47.4609 64.8438-46.1914L64.8438-24.3164C64.8438-22.9492 64.5996-21.9727 64.1602-21.3867ZM44.1895-30.7129C45.4102-30.7129 46.5332-31.2012 47.5586-32.1777L49.3164-33.7891L63.1348-19.9707C62.6953-19.3848 61.6699-19.1895 60.0098-19.1895L28.3691-19.1895C26.709-19.1895 25.7324-19.3848 25.1953-19.9707L39.0625-33.7891L40.7715-32.1777C41.7969-31.2012 42.9688-30.7129 44.1895-30.7129Z"/>
  </g>
 </g>
</svg>
