<?xml version="1.0" encoding="UTF-8"?>
<!--Generator: Apple Native CoreSVG 149-->
<!DOCTYPE svg
PUBLIC "-//W3C//DTD SVG 1.1//EN"
       "http://www.w3.org/Graphics/SVG/1.1/DTD/svg11.dtd">
<svg version="1.1" xmlns="http://www.w3.org/2000/svg" xmlns:xlink="http://www.w3.org/1999/xlink" width="3300" height="2200">
 <!--glyph: "uni1004E4.medium", point size: 100.000000, font version: "Version 16.0d18e1", template writer version: "8"-->
 <g id="Notes">
  <rect height="2200" id="artboard" style="fill:white;opacity:1" width="3300" x="0" y="0"/>
  <line id="" style="fill:none;stroke:black;opacity:1;stroke-width:0.5;" x1="263" x2="3036" y1="292" y2="292"/>
  <text style="stroke:none;fill:black;font-family:-apple-system,&quot;SF Pro Display&quot;,&quot;SF Pro Text&quot;,Helvetica,sans-serif;font-weight:bold;" transform="matrix(1 0 0 1 263 322)">Weight/Scale Variations</text>
  <text style="stroke:none;fill:black;font-family:-apple-system,&quot;SF Pro Display&quot;,&quot;SF Pro Text&quot;,Helvetica,sans-serif;text-anchor:middle;" transform="matrix(1 0 0 1 559.711 322)">Ultralight</text>
  <text style="stroke:none;fill:black;font-family:-apple-system,&quot;SF Pro Display&quot;,&quot;SF Pro Text&quot;,Helvetica,sans-serif;text-anchor:middle;" transform="matrix(1 0 0 1 856.422 322)">Thin</text>
  <text style="stroke:none;fill:black;font-family:-apple-system,&quot;SF Pro Display&quot;,&quot;SF Pro Text&quot;,Helvetica,sans-serif;text-anchor:middle;" transform="matrix(1 0 0 1 1153.13 322)">Light</text>
  <text style="stroke:none;fill:black;font-family:-apple-system,&quot;SF Pro Display&quot;,&quot;SF Pro Text&quot;,Helvetica,sans-serif;text-anchor:middle;" transform="matrix(1 0 0 1 1449.84 322)">Regular</text>
  <text style="stroke:none;fill:black;font-family:-apple-system,&quot;SF Pro Display&quot;,&quot;SF Pro Text&quot;,Helvetica,sans-serif;text-anchor:middle;" transform="matrix(1 0 0 1 1746.56 322)">Medium</text>
  <text style="stroke:none;fill:black;font-family:-apple-system,&quot;SF Pro Display&quot;,&quot;SF Pro Text&quot;,Helvetica,sans-serif;text-anchor:middle;" transform="matrix(1 0 0 1 2043.27 322)">Semibold</text>
  <text style="stroke:none;fill:black;font-family:-apple-system,&quot;SF Pro Display&quot;,&quot;SF Pro Text&quot;,Helvetica,sans-serif;text-anchor:middle;" transform="matrix(1 0 0 1 2339.98 322)">Bold</text>
  <text style="stroke:none;fill:black;font-family:-apple-system,&quot;SF Pro Display&quot;,&quot;SF Pro Text&quot;,Helvetica,sans-serif;text-anchor:middle;" transform="matrix(1 0 0 1 2636.69 322)">Heavy</text>
  <text style="stroke:none;fill:black;font-family:-apple-system,&quot;SF Pro Display&quot;,&quot;SF Pro Text&quot;,Helvetica,sans-serif;text-anchor:middle;" transform="matrix(1 0 0 1 2933.4 322)">Black</text>
  <line id="" style="fill:none;stroke:black;opacity:1;stroke-width:0.5;" x1="263" x2="3036" y1="1903" y2="1903"/>
  <g id="" transform="matrix(1 0 0 1 263 1933)">
   <path d="M9.24805 0.830078C13.5547 0.830078 17.1387-2.74414 17.1387-7.05078C17.1387-11.3574 13.5449-14.9316 9.23828-14.9316C4.94141-14.9316 1.36719-11.3574 1.36719-7.05078C1.36719-2.74414 4.95117 0.830078 9.24805 0.830078ZM9.24805-0.654297C5.70312-0.654297 2.87109-3.49609 2.87109-7.05078C2.87109-10.6055 5.69336-13.4473 9.23828-13.4473C12.793-13.4473 15.6348-10.6055 15.6445-7.05078C15.6543-3.49609 12.8027-0.654297 9.24805-0.654297ZM6.39648-6.31836L8.50586-6.31836L8.50586-4.19922C8.50586-3.75977 8.79883-3.45703 9.22852-3.45703C9.67773-3.45703 9.9707-3.75977 9.9707-4.19922L9.9707-6.31836L12.0996-6.31836C12.5391-6.31836 12.8418-6.61133 12.8418-7.04102C12.8418-7.48047 12.5391-7.7832 12.0996-7.7832L9.9707-7.7832L9.9707-9.89258C9.9707-10.3418 9.67773-10.6445 9.22852-10.6445C8.79883-10.6445 8.50586-10.3418 8.50586-9.89258L8.50586-7.7832L6.39648-7.7832C5.94727-7.7832 5.64453-7.48047 5.64453-7.04102C5.64453-6.61133 5.94727-6.31836 6.39648-6.31836Z"/>
  </g>
  <g id="" transform="matrix(1 0 0 1 281.506 1933)">
   <path d="M11.709 2.91016C17.1582 2.91016 21.6699-1.61133 21.6699-7.05078C21.6699-12.5 17.1484-17.0117 11.6992-17.0117C6.25977-17.0117 1.74805-12.5 1.74805-7.05078C1.74805-1.61133 6.26953 2.91016 11.709 2.91016ZM11.709 1.25C7.09961 1.25 3.41797-2.44141 3.41797-7.05078C3.41797-11.6602 7.08984-15.3516 11.6992-15.3516C16.3086-15.3516 20-11.6602 20.0098-7.05078C20.0195-2.44141 16.3184 1.25 11.709 1.25ZM7.98828-6.23047L10.8789-6.23047L10.8789-3.32031C10.8789-2.83203 11.2109-2.5 11.6895-2.5C12.1777-2.5 12.5195-2.83203 12.5195-3.32031L12.5195-6.23047L15.4297-6.23047C15.918-6.23047 16.25-6.5625 16.25-7.04102C16.25-7.5293 15.918-7.87109 15.4297-7.87109L12.5195-7.87109L12.5195-10.7617C12.5195-11.2695 12.1777-11.6016 11.6895-11.6016C11.2109-11.6016 10.8789-11.2598 10.8789-10.7617L10.8789-7.87109L7.98828-7.87109C7.48047-7.87109 7.14844-7.5293 7.14844-7.04102C7.14844-6.5625 7.49023-6.23047 7.98828-6.23047Z"/>
  </g>
  <g id="" transform="matrix(1 0 0 1 304.924 1933)">
   <path d="M14.9707 5.66406C21.9336 5.66406 27.6953-0.0976562 27.6953-7.05078C27.6953-14.0137 21.9238-19.7754 14.9609-19.7754C8.00781-19.7754 2.25586-14.0137 2.25586-7.05078C2.25586-0.0976562 8.01758 5.66406 14.9707 5.66406ZM14.9707 3.84766C8.93555 3.84766 4.08203-1.01562 4.08203-7.05078C4.08203-13.0957 8.92578-17.9492 14.9609-17.9492C21.0059-17.9492 25.8594-13.0957 25.8691-7.05078C25.8789-1.01562 21.0156 3.84766 14.9707 3.84766ZM10.0586-6.14258L14.0625-6.14258L14.0625-2.12891C14.0625-1.5918 14.4336-1.2207 14.9512-1.2207C15.4883-1.2207 15.8594-1.5918 15.8594-2.12891L15.8594-6.14258L19.8828-6.14258C20.4102-6.14258 20.791-6.51367 20.791-7.03125C20.791-7.56836 20.4199-7.94922 19.8828-7.94922L15.8594-7.94922L15.8594-11.9531C15.8594-12.5098 15.4883-12.8809 14.9512-12.8809C14.4336-12.8809 14.0625-12.5 14.0625-11.9531L14.0625-7.94922L10.0586-7.94922C9.50195-7.94922 9.13086-7.56836 9.13086-7.03125C9.13086-6.51367 9.51172-6.14258 10.0586-6.14258Z"/>
  </g>
  <text style="stroke:none;fill:black;font-family:-apple-system,&quot;SF Pro Display&quot;,&quot;SF Pro Text&quot;,Helvetica,sans-serif;font-weight:bold;" transform="matrix(1 0 0 1 263 1953)">Design Variations</text>
  <text style="stroke:none;fill:black;font-family:-apple-system,&quot;SF Pro Display&quot;,&quot;SF Pro Text&quot;,Helvetica,sans-serif;" transform="matrix(1 0 0 1 263 1971)">Symbols are supported in up to nine weights and three scales.</text>
  <text style="stroke:none;fill:black;font-family:-apple-system,&quot;SF Pro Display&quot;,&quot;SF Pro Text&quot;,Helvetica,sans-serif;" transform="matrix(1 0 0 1 263 1989)">For optimal layout with text and other symbols, vertically align</text>
  <text style="stroke:none;fill:black;font-family:-apple-system,&quot;SF Pro Display&quot;,&quot;SF Pro Text&quot;,Helvetica,sans-serif;" transform="matrix(1 0 0 1 263 2007)">symbols with the adjacent text.</text>
  <line id="" style="fill:none;stroke:#00AEEF;stroke-width:0.5;opacity:1.0;" x1="776" x2="776" y1="1919" y2="1933"/>
  <g id="" transform="matrix(1 0 0 1 776 1933)">
   <path d="M3.31055 0.126953C3.82812 0.126953 4.08203-0.0683594 4.26758-0.605469L5.52734-4.0625L11.2891-4.0625L12.5488-0.605469C12.7344-0.0683594 12.9883 0.126953 13.4961 0.126953C14.0137 0.126953 14.3457-0.185547 14.3457-0.673828C14.3457-0.839844 14.3164-0.986328 14.2383-1.20117L9.6582-13.3887C9.43359-13.9941 9.0332-14.2871 8.4082-14.2871C7.80273-14.2871 7.39258-13.9941 7.17773-13.3984L2.59766-1.19141C2.51953-0.976562 2.49023-0.830078 2.49023-0.664062C2.49023-0.175781 2.80273 0.126953 3.31055 0.126953ZM6.00586-5.53711L8.37891-12.1094L8.42773-12.1094L10.8008-5.53711Z"/>
  </g>
  <line id="" style="fill:none;stroke:#00AEEF;stroke-width:0.5;opacity:1.0;" x1="792.836" x2="792.836" y1="1919" y2="1933"/>
  <text style="stroke:none;fill:black;font-family:-apple-system,&quot;SF Pro Display&quot;,&quot;SF Pro Text&quot;,Helvetica,sans-serif;font-weight:bold;" transform="matrix(1 0 0 1 776 1953)">Margins</text>
  <text style="stroke:none;fill:black;font-family:-apple-system,&quot;SF Pro Display&quot;,&quot;SF Pro Text&quot;,Helvetica,sans-serif;" transform="matrix(1 0 0 1 776 1971)">Leading and trailing margins on the left and right side of each symbol</text>
  <text style="stroke:none;fill:black;font-family:-apple-system,&quot;SF Pro Display&quot;,&quot;SF Pro Text&quot;,Helvetica,sans-serif;" transform="matrix(1 0 0 1 776 1989)">can be adjusted by modifying the x-location of the margin guidelines.</text>
  <text style="stroke:none;fill:black;font-family:-apple-system,&quot;SF Pro Display&quot;,&quot;SF Pro Text&quot;,Helvetica,sans-serif;" transform="matrix(1 0 0 1 776 2007)">Modifications are automatically applied proportionally to all</text>
  <text style="stroke:none;fill:black;font-family:-apple-system,&quot;SF Pro Display&quot;,&quot;SF Pro Text&quot;,Helvetica,sans-serif;" transform="matrix(1 0 0 1 776 2025)">scales and weights.</text>
  <g id="" transform="matrix(1 0 0 1 1289 1933)">
   <path d="M2.8418 1.86523L4.54102 3.57422C5.40039 4.44336 6.38672 4.38477 7.31445 3.35938L17.4902-7.85156C17.7539-7.76367 18.0273-7.7832 18.3398-7.8418L19.4043-8.03711L20.0684-7.36328L20.0293-6.80664C19.9902-6.30859 20.1172-5.92773 20.6055-5.44922L21.3672-4.70703C21.8457-4.22852 22.4609-4.19922 22.9297-4.66797L25.8398-7.58789C26.3086-8.05664 26.2891-8.65234 25.8105-9.13086L25.0391-9.89258C24.5605-10.3711 24.1895-10.5273 23.7109-10.4883L23.1348-10.4395L22.4902-11.0742L22.7344-12.1973C22.8613-12.7637 22.7051-13.2031 22.1191-13.7891L19.9219-15.9766C16.582-19.2969 12.1484-19.2188 9.25781-16.3281C8.83789-15.918 8.80859-15.3418 9.04297-14.9512C9.27734-14.5898 9.73633-14.3555 10.3809-14.5215C11.8457-14.8633 13.3691-14.9219 14.7949-13.9844L14.209-12.5293C14.0137-12.0508 13.9844-11.6504 14.1113-11.2891L3.04688-0.898438C2.06055 0.0195312 1.98242 0.996094 2.8418 1.86523ZM10.752-15.957C13.1836-17.7344 16.4746-17.4316 18.7012-15.2051L21.1328-12.793C21.3672-12.5586 21.4062-12.373 21.3379-12.0312L21.0156-10.5469L22.5195-9.0625L23.5059-9.12109C23.7598-9.13086 23.8379-9.11133 24.0332-8.91602L24.6094-8.33984L22.168-5.89844L21.5918-6.47461C21.3965-6.66992 21.3672-6.74805 21.377-7.01172L21.4453-7.98828L19.9512-9.47266L18.4277-9.21875C18.1055-9.15039 17.959-9.17969 17.7148-9.41406L15.7129-11.416C15.459-11.6504 15.4297-11.8164 15.5859-12.1875L16.4648-14.2773C14.9023-15.7324 12.8711-16.3574 10.8398-15.7617C10.6836-15.7227 10.625-15.8496 10.752-15.957ZM5.27344 2.30469L4.10156 1.14258C3.63281 0.683594 3.74023 0.341797 4.14062-0.0195312L14.9512-10.1953L16.416-8.71094L6.42578 2.27539C6.07422 2.67578 5.74219 2.77344 5.27344 2.30469Z"/>
  </g>
  <text style="stroke:none;fill:black;font-family:-apple-system,&quot;SF Pro Display&quot;,&quot;SF Pro Text&quot;,Helvetica,sans-serif;font-weight:bold;" transform="matrix(1 0 0 1 1289 1953)">Exporting</text>
  <text style="stroke:none;fill:black;font-family:-apple-system,&quot;SF Pro Display&quot;,&quot;SF Pro Text&quot;,Helvetica,sans-serif;" transform="matrix(1 0 0 1 1289 1971)">Symbols should be outlined when exporting to ensure the</text>
  <text style="stroke:none;fill:black;font-family:-apple-system,&quot;SF Pro Display&quot;,&quot;SF Pro Text&quot;,Helvetica,sans-serif;" transform="matrix(1 0 0 1 1289 1989)">design is preserved when submitting to Xcode.</text>
  <text id="template-version" style="stroke:none;fill:black;font-family:-apple-system,&quot;SF Pro Display&quot;,&quot;SF Pro Text&quot;,Helvetica,sans-serif;text-anchor:end;" transform="matrix(1 0 0 1 3036 1933)">Template v.2.0</text>
  <text style="stroke:none;fill:black;font-family:-apple-system,&quot;SF Pro Display&quot;,&quot;SF Pro Text&quot;,Helvetica,sans-serif;text-anchor:end;" transform="matrix(1 0 0 1 3036 1951)">Requires Xcode 12 or greater</text>
  <text style="stroke:none;fill:black;font-family:-apple-system,&quot;SF Pro Display&quot;,&quot;SF Pro Text&quot;,Helvetica,sans-serif;text-anchor:end;" transform="matrix(1 0 0 1 3036 1969)">Generated from person.circle.fill</text>
  <text style="stroke:none;fill:black;font-family:-apple-system,&quot;SF Pro Display&quot;,&quot;SF Pro Text&quot;,Helvetica,sans-serif;text-anchor:end;" transform="matrix(1 0 0 1 3036 1987)">Typeset at 100 points</text>
  <text style="stroke:none;fill:black;font-family:-apple-system,&quot;SF Pro Display&quot;,&quot;SF Pro Text&quot;,Helvetica,sans-serif;" transform="matrix(1 0 0 1 263 726)">Small</text>
  <text style="stroke:none;fill:black;font-family:-apple-system,&quot;SF Pro Display&quot;,&quot;SF Pro Text&quot;,Helvetica,sans-serif;" transform="matrix(1 0 0 1 263 1156)">Medium</text>
  <text style="stroke:none;fill:black;font-family:-apple-system,&quot;SF Pro Display&quot;,&quot;SF Pro Text&quot;,Helvetica,sans-serif;" transform="matrix(1 0 0 1 263 1586)">Large</text>
 </g>
 <g id="Guides">
  <g id="H-reference" style="fill:#27AAE1;stroke:none;" transform="matrix(1 0 0 1 339 696)">
   <path d="M0.976562 0L3.66211 0L12.9883-24.4629L45.752-24.4629L55.127 0L57.7637 0L30.6152-70.459L28.125-70.459ZM29.3457-67.1387L29.4434-67.1387L44.873-26.709L13.8672-26.709Z"/>
  </g>
  <line id="Baseline-S" style="fill:none;stroke:#27AAE1;opacity:1;stroke-width:0.5;" x1="263" x2="3036" y1="696" y2="696"/>
  <line id="Capline-S" style="fill:none;stroke:#27AAE1;opacity:1;stroke-width:0.5;" x1="263" x2="3036" y1="625.541" y2="625.541"/>
  <g id="H-reference" style="fill:#27AAE1;stroke:none;" transform="matrix(1 0 0 1 339 1126)">
   <path d="M0.976562 0L3.66211 0L12.9883-24.4629L45.752-24.4629L55.127 0L57.7637 0L30.6152-70.459L28.125-70.459ZM29.3457-67.1387L29.4434-67.1387L44.873-26.709L13.8672-26.709Z"/>
  </g>
  <line id="Baseline-M" style="fill:none;stroke:#27AAE1;opacity:1;stroke-width:0.5;" x1="263" x2="3036" y1="1126" y2="1126"/>
  <line id="Capline-M" style="fill:none;stroke:#27AAE1;opacity:1;stroke-width:0.5;" x1="263" x2="3036" y1="1055.54" y2="1055.54"/>
  <g id="H-reference" style="fill:#27AAE1;stroke:none;" transform="matrix(1 0 0 1 339 1556)">
   <path d="M0.976562 0L3.66211 0L12.9883-24.4629L45.752-24.4629L55.127 0L57.7637 0L30.6152-70.459L28.125-70.459ZM29.3457-67.1387L29.4434-67.1387L44.873-26.709L13.8672-26.709Z"/>
  </g>
  <line id="Baseline-L" style="fill:none;stroke:#27AAE1;opacity:1;stroke-width:0.5;" x1="263" x2="3036" y1="1556" y2="1556"/>
  <line id="Capline-L" style="fill:none;stroke:#27AAE1;opacity:1;stroke-width:0.5;" x1="263" x2="3036" y1="1485.54" y2="1485.54"/>
  <line id="left-margin" style="fill:none;stroke:#00AEEF;stroke-width:0.5;opacity:1.0;" x1="1391.3" x2="1391.3" y1="1030.79" y2="1150.12"/>
  <line id="right-margin" style="fill:none;stroke:#00AEEF;stroke-width:0.5;opacity:1.0;" x1="1508.39" x2="1508.39" y1="1030.79" y2="1150.12"/>
 </g>
 <g id="Symbols">
  <g id="Black-L" transform="matrix(1 0 0 1 2854.05 1556)">
   <path d="M79.3457 32.9102C116.748 32.9102 147.412 2.29492 147.412-35.1074C147.412-72.5586 116.748-103.174 79.2969-103.174C41.8945-103.174 11.2793-72.5586 11.2793-35.1074C11.2793 2.29492 41.9434 32.9102 79.3457 32.9102ZM79.2969-38.1348C70.2637-38.1836 62.8906-45.8008 62.8906-56.0547C62.8906-65.625 70.2637-73.5352 79.2969-73.5352C88.3301-73.5352 95.752-65.625 95.752-56.0547C95.752-45.8008 88.3301-38.1348 79.2969-38.1348ZM52.8809-2.88086C49.0234-2.88086 47.0703-5.71289 47.0703-9.0332C47.0703-16.0156 56.7383-33.4961 79.2969-33.4961C101.855-33.4961 111.572-16.0156 111.572-9.0332C111.572-5.71289 109.57-2.88086 105.713-2.88086Z"/>
  </g>
  <g id="Heavy-L" transform="matrix(1 0 0 1 2558.39 1556)">
   <path d="M78.2715 31.8848C115.088 31.8848 145.312 1.66016 145.312-35.1562C145.312-71.9238 115.039-102.148 78.2715-102.148C41.4551-102.148 11.2793-71.9238 11.2793-35.1562C11.2793 1.66016 41.5039 31.8848 78.2715 31.8848ZM78.2715-37.8418C69.1895-37.8906 61.8164-45.5566 61.8164-55.8105C61.8164-65.3809 69.1895-73.3398 78.2715-73.3398C87.3047-73.3398 94.6777-65.3809 94.6777-55.8105C94.6777-45.5566 87.3047-37.8418 78.2715-37.8418ZM51.0254-2.73438C47.5586-2.73438 45.8008-5.27344 45.8008-8.30078C45.8008-15.332 55.6641-33.0566 78.2715-33.0566C100.83-33.0566 110.693-15.332 110.693-8.30078C110.693-5.27344 108.984-2.73438 105.469-2.73438Z"/>
  </g>
  <g id="Bold-L" transform="matrix(1 0 0 1 2262.88 1556)">
   <path d="M77.0996 30.6641C113.232 30.6641 142.92 0.927734 142.92-35.1562C142.92-71.2891 113.184-100.977 77.0508-100.977C40.9668-100.977 11.2793-71.2891 11.2793-35.1562C11.2793 0.927734 41.0156 30.6641 77.0996 30.6641ZM77.0508-37.5488C67.9688-37.5488 60.5957-45.2148 60.5957-55.5176C60.5957-65.1367 67.9688-73.0957 77.0508-73.0957C86.1328-73.0957 93.5547-65.1367 93.5547-55.5176C93.5547-45.2148 86.1328-37.5 77.0508-37.5488ZM48.9746-2.58789C45.8496-2.58789 44.3359-4.73633 44.3359-7.51953C44.3359-14.502 54.4922-32.5684 77.0508-32.5684C99.6094-32.5684 109.766-14.502 109.766-7.51953C109.766-4.73633 108.252-2.58789 105.176-2.58789Z"/>
  </g>
  <g id="Semibold-L" transform="matrix(1 0 0 1 1966.97 1556)">
   <path d="M76.2695 29.834C111.914 29.834 141.309 0.439453 141.309-35.1562C141.309-70.8008 111.865-100.195 76.2695-100.195C40.625-100.195 11.2793-70.8008 11.2793-35.1562C11.2793 0.439453 40.6738 29.834 76.2695 29.834ZM76.2207-37.3047C67.1387-37.3535 59.7656-45.0195 59.7656-55.3223C59.7656-64.9414 67.1387-72.9004 76.2207-72.9004C85.3516-72.9004 92.7246-64.9414 92.7246-55.3223C92.7246-45.0195 85.3516-37.2559 76.2207-37.3047ZM47.5098-2.44141C44.6777-2.44141 43.3594-4.39453 43.3594-6.93359C43.3594-13.9648 53.6621-32.2266 76.2207-32.2266C98.8281-32.2266 109.131-13.9648 109.131-6.93359C109.131-4.39453 107.812-2.44141 104.98-2.44141Z"/>
  </g>
  <g id="Medium-L" transform="matrix(1 0 0 1 1670.87 1556)">
   <path d="M75.6836 29.1992C110.938 29.1992 140.088 0.0976562 140.088-35.1562C140.088-70.459 110.889-99.5605 75.6348-99.5605C40.3809-99.5605 11.2793-70.459 11.2793-35.1562C11.2793 0.0976562 40.3809 29.1992 75.6836 29.1992ZM75.6348-37.1582C66.5039-37.1582 59.1309-44.873 59.1309-55.1758C59.1309-64.7949 66.5039-72.8027 75.6348-72.8027C84.7656-72.8027 92.1387-64.7949 92.1387-55.1758C92.1387-44.873 84.7656-37.1094 75.6348-37.1582ZM46.4355-2.39258C43.7988-2.39258 42.5781-4.15039 42.5781-6.49414C42.5781-13.5742 53.0273-31.9824 75.6348-31.9824C98.1934-31.9824 108.643-13.5742 108.643-6.49414C108.643-4.15039 107.422-2.39258 104.785-2.39258Z"/>
  </g>
  <g id="Regular-L" transform="matrix(1 0 0 1 1374.97 1556)">
   <path d="M74.8535 28.418C109.668 28.418 138.477-0.390625 138.477-35.2051C138.477-69.9707 109.619-98.7793 74.8047-98.7793C40.0391-98.7793 11.2793-69.9707 11.2793-35.2051C11.2793-0.390625 40.0879 28.418 74.8535 28.418ZM74.8047-36.9141C65.6738-36.9629 58.3008-44.6777 58.3008-54.9805C58.3008-64.5996 65.6738-72.6074 74.8047-72.6074C83.9355-72.6074 91.3086-64.5996 91.3086-54.9805C91.3086-44.6777 83.9355-36.8652 74.8047-36.9141ZM45.0195-2.29492C42.6758-2.29492 41.6016-3.80859 41.6016-5.95703C41.6016-13.0371 52.2461-31.6406 74.8047-31.6406C97.4121-31.6406 108.008-13.0371 108.008-5.95703C108.008-3.80859 106.982-2.29492 104.59-2.29492Z"/>
  </g>
  <g id="Light-L" transform="matrix(1 0 0 1 1079.18 1556)">
   <path d="M73.9258 27.4902C108.301 27.4902 136.621-0.830078 136.621-35.2051C136.621-69.5312 108.252-97.8516 73.9258-97.8516C39.5508-97.8516 11.2793-69.5312 11.2793-35.2051C11.2793-0.830078 39.5996 27.4902 73.9258 27.4902ZM73.9258-36.6211C64.8926-36.6211 57.6172-44.2383 57.6172-54.3945C57.6172-63.916 64.8926-71.8262 73.9258-71.8262C82.959-71.8262 90.1855-63.916 90.1855-54.3945C90.1855-44.2383 82.959-36.5723 73.9258-36.6211ZM43.9453-2.39258C41.9434-2.39258 41.1621-3.61328 41.1621-5.46875C41.1621-12.5488 51.6113-31.3965 73.9258-31.3965C96.1914-31.3965 106.641-12.5488 106.641-5.46875C106.641-3.61328 105.859-2.39258 103.857-2.39258Z"/>
  </g>
  <g id="Thin-L" transform="matrix(1 0 0 1 783.693 1556)">
   <path d="M72.7051 26.2695C106.494 26.2695 134.18-1.41602 134.18-35.2051C134.18-68.9453 106.494-96.6309 72.7051-96.6309C38.9648-96.6309 11.2793-68.9453 11.2793-35.2051C11.2793-1.41602 38.9648 26.2695 72.7051 26.2695ZM72.7051-36.1816C63.8184-36.1816 56.6895-43.6523 56.6895-53.6621C56.6895-63.0371 63.8184-70.752 72.7051-70.752C81.5918-70.752 88.7207-63.0371 88.7207-53.6621C88.7207-43.6523 81.5918-36.1816 72.7051-36.1816ZM42.5293-2.58789C41.0156-2.58789 40.5273-3.41797 40.5273-4.88281C40.5273-11.9629 50.8301-31.1035 72.7051-31.1035C94.6289-31.1035 104.883-11.9629 104.883-4.88281C104.883-3.41797 104.395-2.58789 102.881-2.58789Z"/>
  </g>
  <g id="Ultralight-L" transform="matrix(1 0 0 1 487.616 1556)">
   <path d="M72.1191 25.6348C105.566 25.6348 132.91-1.70898 132.91-35.2051C132.91-68.6523 105.566-95.9961 72.1191-95.9961C38.623-95.9961 11.2793-68.6523 11.2793-35.2051C11.2793-1.70898 38.623 25.6348 72.1191 25.6348ZM72.1191-35.9863C63.2812-35.9863 56.25-43.3105 56.25-53.2715C56.25-62.5488 63.2812-70.2148 72.1191-70.2148C80.9082-70.2148 87.9395-62.5488 87.9395-53.2715C87.9395-43.3105 80.9082-35.9863 72.1191-35.9863ZM41.7969-2.68555C40.5762-2.68555 40.2344-3.27148 40.2344-4.54102C40.2344-11.6211 50.3906-30.9082 72.1191-30.9082C93.7988-30.9082 103.955-11.6211 103.955-4.54102C103.955-3.27148 103.613-2.68555 102.393-2.68555Z"/>
  </g>
  <g id="Black-M" transform="matrix(1 0 0 1 2870.97 1126)">
   <path d="M62.4023 18.5547C91.9922 18.5547 116.113-5.56641 116.113-35.1562C116.113-64.7461 91.9922-88.8184 62.4023-88.8184C32.8125-88.8184 8.74023-64.7461 8.74023-35.1562C8.74023-5.56641 32.8125 18.5547 62.4023 18.5547ZM62.4023-37.6953C55.5176-37.6953 49.8535-43.5547 49.8535-51.416C49.8535-58.7402 55.5176-64.7949 62.4023-64.7949C69.3359-64.7949 75-58.7402 75-51.416C75-43.5547 69.3359-37.6953 62.4023-37.6953ZM42.9199-10.4004C39.6484-10.4004 37.9883-12.8906 37.9883-15.6738C37.9883-21.0449 45.1172-34.375 62.4023-34.375C79.7363-34.375 86.8652-21.0449 86.8652-15.6738C86.8652-12.8906 85.1562-10.4004 81.8848-10.4004Z"/>
  </g>
  <g id="Heavy-M" transform="matrix(1 0 0 1 2575.19 1126)">
   <path d="M61.5234 17.627C90.5273 17.627 114.258-6.10352 114.258-35.1562C114.258-64.1602 90.5273-87.8906 61.4746-87.8906C32.4707-87.8906 8.74023-64.1602 8.74023-35.1562C8.74023-6.10352 32.4707 17.627 61.5234 17.627ZM61.4746-37.4512C54.541-37.5 48.8281-43.3594 48.8281-51.2695C48.8281-58.6426 54.541-64.7461 61.4746-64.7461C68.457-64.7461 74.1699-58.6426 74.1699-51.2695C74.1699-43.3594 68.457-37.4512 61.4746-37.4512ZM41.1621-10.2051C38.1836-10.2051 36.6699-12.4023 36.6699-14.9902C36.6699-20.4102 44.0918-33.9355 61.4746-33.9355C78.9062-33.9355 86.3281-20.4102 86.3281-14.9902C86.3281-12.4023 84.7656-10.2051 81.7871-10.2051Z"/>
  </g>
  <g id="Bold-M" transform="matrix(1 0 0 1 2279.5 1126)">
   <path d="M60.498 16.5527C88.8672 16.5527 112.207-6.73828 112.207-35.1562C112.207-63.5742 88.8672-86.9141 60.4492-86.9141C32.0312-86.9141 8.74023-63.5742 8.74023-35.1562C8.74023-6.73828 32.0801 16.5527 60.498 16.5527ZM60.4492-37.207C53.418-37.2559 47.7051-43.1641 47.7051-51.123C47.7051-58.5449 53.418-64.7461 60.4492-64.7461C67.4805-64.7461 73.1934-58.5449 73.1934-51.123C73.1934-43.1641 67.4805-37.207 60.4492-37.207ZM39.209-10.0098C36.5723-10.0098 35.2539-11.9141 35.2539-14.2578C35.2539-19.6777 42.9688-33.4961 60.4492-33.4961C77.9297-33.4961 85.6934-19.6777 85.6934-14.2578C85.6934-11.9141 84.375-10.0098 81.6895-10.0098Z"/>
  </g>
  <g id="Semibold-M" transform="matrix(1 0 0 1 1983.5 1126)">
   <path d="M59.7656 15.8691C87.7441 15.8691 110.791-7.22656 110.791-35.1562C110.791-63.1348 87.6953-86.2305 59.7656-86.2305C31.7871-86.2305 8.74023-63.1348 8.74023-35.1562C8.74023-7.22656 31.7871 15.8691 59.7656 15.8691ZM59.7656-37.0117C52.6855-37.0605 46.9238-43.0176 46.9238-51.0254C46.9238-58.4961 52.6855-64.6973 59.7656-64.6973C66.7969-64.6973 72.5586-58.4961 72.5586-51.0254C72.5586-43.0176 66.7969-37.0117 59.7656-37.0117ZM37.8906-9.86328C35.4492-9.86328 34.2773-11.5723 34.2773-13.7207C34.2773-19.1406 42.1875-33.1543 59.7656-33.1543C77.2949-33.1543 85.2539-19.1406 85.2539-13.7207C85.2539-11.5723 84.0332-9.86328 81.6406-9.86328Z"/>
  </g>
  <g id="Medium-M" transform="matrix(1 0 0 1 1687.3 1126)">
   <path d="M59.2285 15.332C86.9141 15.332 109.766-7.51953 109.766-35.2051C109.766-62.8418 86.8652-85.6934 59.1797-85.6934C31.543-85.6934 8.74023-62.8418 8.74023-35.2051C8.74023-7.51953 31.5918 15.332 59.2285 15.332ZM59.2285-36.9141C52.0996-36.9141 46.3379-42.9199 46.3379-50.9766C46.3379-58.4473 52.0996-64.6973 59.2285-64.6973C66.3086-64.6973 72.0703-58.4473 72.0703-50.9766C72.0703-42.9199 66.3086-36.8652 59.2285-36.9141ZM36.8652-9.76562C34.5703-9.76562 33.4961-11.2793 33.4961-13.3301C33.4961-18.7988 41.6016-32.9102 59.2285-32.9102C76.8066-32.9102 84.9121-18.7988 84.9121-13.3301C84.9121-11.2793 83.8379-9.76562 81.5918-9.76562Z"/>
  </g>
  <g id="Regular-M" transform="matrix(1 0 0 1 1391.3 1126)">
   <path d="M58.5449 14.5996C85.791 14.5996 108.35-7.95898 108.35-35.2051C108.35-62.4023 85.7422-85.0098 58.4961-85.0098C31.2988-85.0098 8.74023-62.4023 8.74023-35.2051C8.74023-7.95898 31.3477 14.5996 58.5449 14.5996ZM58.4961-36.7188C51.3672-36.7676 45.5566-42.7734 45.5566-50.8789C45.5566-58.3984 51.3672-64.6484 58.4961-64.6484C65.625-64.6484 71.4355-58.3984 71.4355-50.8789C71.4355-42.7734 65.625-36.6699 58.4961-36.7188ZM35.498-9.61914C33.4473-9.61914 32.5195-10.9375 32.5195-12.793C32.5195-18.2617 40.8203-32.5684 58.4961-32.5684C76.1719-32.5684 84.4727-18.2617 84.4727-12.793C84.4727-10.9375 83.5449-9.61914 81.4941-9.61914Z"/>
  </g>
  <g id="Light-M" transform="matrix(1 0 0 1 1095.42 1126)">
   <path d="M57.7148 13.7695C84.5215 13.7695 106.689-8.34961 106.689-35.2051C106.689-62.0117 84.5215-84.1797 57.666-84.1797C30.8594-84.1797 8.74023-62.0117 8.74023-35.2051C8.74023-8.34961 30.9082 13.7695 57.7148 13.7695ZM57.666-36.4258C50.6348-36.4746 44.9707-42.3828 44.9707-50.3418C44.9707-57.7637 50.6348-63.9648 57.666-63.9648C64.7461-63.9648 70.4102-57.7637 70.4102-50.3418C70.4102-42.3828 64.7461-36.377 57.666-36.4258ZM34.5215-9.7168C32.8613-9.7168 32.1289-10.791 32.1289-12.4023C32.1289-17.8711 40.2832-32.373 57.666-32.373C75.0977-32.373 83.252-17.8711 83.252-12.4023C83.252-10.791 82.5195-9.7168 80.8105-9.7168Z"/>
  </g>
  <g id="Thin-M" transform="matrix(1 0 0 1 799.806 1126)">
   <path d="M56.6406 12.6953C82.9102 12.6953 104.492-8.88672 104.492-35.2051C104.492-61.4746 82.9102-83.0566 56.5918-83.0566C30.3223-83.0566 8.74023-61.4746 8.74023-35.2051C8.74023-8.88672 30.3223 12.6953 56.6406 12.6953ZM56.5918-36.0352C49.707-36.084 44.1406-41.8457 44.1406-49.6582C44.1406-56.9336 49.707-62.9883 56.5918-62.9883C63.5254-62.9883 69.0918-56.9336 69.0918-49.6582C69.0918-41.8457 63.5254-36.0352 56.5918-36.0352ZM33.252-9.86328C32.0312-9.86328 31.543-10.5957 31.543-11.8164C31.543-17.334 39.5508-32.0801 56.5918-32.0801C73.6816-32.0801 81.6895-17.334 81.6895-11.8164C81.6895-10.5957 81.2012-9.86328 79.9316-9.86328Z"/>
  </g>
  <g id="Ultralight-M" transform="matrix(1 0 0 1 503.656 1126)">
   <path d="M56.0547 12.1094C82.0801 12.1094 103.369-9.17969 103.369-35.2051C103.369-61.2305 82.0801-82.5195 56.0547-82.5195C30.0293-82.5195 8.74023-61.2305 8.74023-35.2051C8.74023-9.17969 30.0293 12.1094 56.0547 12.1094ZM56.0547-35.8887C49.2188-35.8887 43.75-41.6016 43.75-49.3164C43.75-56.543 49.2188-62.5 56.0547-62.5C62.8906-62.5 68.4082-56.543 68.4082-49.3164C68.4082-41.6016 62.8906-35.8887 56.0547-35.8887ZM32.6172-9.96094C31.5918-9.96094 31.2988-10.498 31.2988-11.5723C31.2988-17.041 39.209-31.9336 56.0547-31.9336C72.9492-31.9336 80.8594-17.041 80.8594-11.5723C80.8594-10.498 80.5664-9.96094 79.4922-9.96094Z"/>
  </g>
  <g id="Black-S" transform="matrix(1 0 0 1 2884.57 696)">
   <path d="M48.8281 6.83594C71.9727 6.83594 90.8203-12.0117 90.8203-35.1562C90.8203-58.3008 71.9727-77.1484 48.8281-77.1484C25.6836-77.1484 6.83594-58.3008 6.83594-35.1562C6.83594-12.0117 25.6836 6.83594 48.8281 6.83594ZM48.8281-37.1582C43.4082-37.1582 38.9648-41.748 38.9648-47.9004C38.9648-53.6621 43.4082-58.3984 48.8281-58.3984C54.248-58.3984 58.6914-53.6621 58.6914-47.9004C58.6914-41.748 54.248-37.1582 48.8281-37.1582ZM33.4961-15.7715C30.957-15.7715 29.6387-17.6758 29.6387-19.873C29.6387-24.0723 35.2539-34.5215 48.8281-34.5215C62.4023-34.5215 68.0176-24.0723 68.0176-19.873C68.0176-17.6758 66.6992-15.7715 64.1602-15.7715Z"/>
  </g>
  <g id="Heavy-S" transform="matrix(1 0 0 1 2588.47 696)">
   <path d="M48.2422 6.20117C70.9961 6.20117 89.5996-12.4023 89.5996-35.1562C89.5996-57.9102 70.9961-76.5625 48.1934-76.5625C25.4395-76.5625 6.83594-57.9102 6.83594-35.1562C6.83594-12.4023 25.4395 6.20117 48.2422 6.20117ZM48.1934-37.0117C42.7246-37.0117 38.2812-41.6504 38.2812-47.8516C38.2812-53.6621 42.7246-58.4473 48.1934-58.4473C53.6621-58.4473 58.1543-53.6621 58.1543-47.8516C58.1543-41.6504 53.6621-37.0117 48.1934-37.0117ZM32.2754-15.625C29.9316-15.625 28.7109-17.334 28.7109-19.3848C28.7109-23.6328 34.5215-34.2285 48.1934-34.2285C61.8652-34.2285 67.7246-23.6328 67.7246-19.3848C67.7246-17.334 66.5039-15.625 64.1602-15.625Z"/>
  </g>
  <g id="Bold-S" transform="matrix(1 0 0 1 2292.44 696)">
   <path d="M47.5586 5.51758C69.873 5.51758 88.2324-12.8418 88.2324-35.2051C88.2324-57.5195 69.873-75.8789 47.5098-75.8789C25.1953-75.8789 6.83594-57.5195 6.83594-35.2051C6.83594-12.8418 25.1953 5.51758 47.5586 5.51758ZM47.5098-36.8652C41.9922-36.8652 37.5-41.5527 37.5-47.8027C37.5-53.6621 41.9922-58.4961 47.5098-58.4961C53.0762-58.4961 57.5684-53.6621 57.5684-47.8027C57.5684-41.5527 53.0762-36.8164 47.5098-36.8652ZM30.8594-15.4297C28.7598-15.4297 27.6367-16.9922 27.6367-18.8477C27.6367-23.0957 33.7402-33.8867 47.5098-33.8867C61.2793-33.8867 67.3828-23.0957 67.3828-18.8477C67.3828-16.9922 66.3086-15.4297 64.1602-15.4297Z"/>
  </g>
  <g id="Semibold-S" transform="matrix(1 0 0 1 1996.2 696)">
   <path d="M47.0703 5.0293C69.0918 5.0293 87.3047-13.1348 87.3047-35.2051C87.3047-57.2266 69.0918-75.4395 47.0215-75.4395C25-75.4395 6.83594-57.2266 6.83594-35.2051C6.83594-13.1348 25.0488 5.0293 47.0703 5.0293ZM47.0215-36.7188C41.4551-36.7676 36.9141-41.4551 36.9141-47.8027C36.9141-53.6621 41.4551-58.5449 47.0215-58.5449C52.6367-58.5449 57.1289-53.6621 57.1289-47.8027C57.1289-41.4551 52.6367-36.7188 47.0215-36.7188ZM29.9316-15.332C27.9297-15.332 26.9531-16.748 26.9531-18.5059C26.9531-22.7539 33.2031-33.6426 47.0215-33.6426C60.8887-33.6426 67.1387-22.7539 67.1387-18.5059C67.1387-16.748 66.1621-15.332 64.1602-15.332Z"/>
  </g>
  <g id="Medium-S" transform="matrix(1 0 0 1 1699.83 696)">
   <path d="M46.7285 4.6875C68.5547 4.6875 86.6211-13.3789 86.6211-35.2051C86.6211-57.0312 68.5059-75.0977 46.6797-75.0977C24.8535-75.0977 6.83594-57.0312 6.83594-35.2051C6.83594-13.3789 24.9023 4.6875 46.7285 4.6875ZM46.6797-36.6211C41.0645-36.6699 36.5234-41.4062 36.5234-47.7539C36.5234-53.6621 41.0645-58.5938 46.6797-58.5938C52.2949-58.5938 56.8359-53.6621 56.8359-47.7539C56.8359-41.4062 52.2949-36.6211 46.6797-36.6211ZM29.1992-15.2344C27.2949-15.2344 26.3672-16.5527 26.3672-18.2129C26.3672-22.5098 32.7637-33.4961 46.6797-33.4961C60.5957-33.4961 66.9922-22.5098 66.9922-18.2129C66.9922-16.5527 66.0645-15.2344 64.1602-15.2344Z"/>
  </g>
  <g id="Regular-S" transform="matrix(1 0 0 1 1403.58 696)">
   <path d="M46.2402 4.19922C67.7734 4.19922 85.6934-13.6719 85.6934-35.2051C85.6934-56.7383 67.7246-74.6094 46.1914-74.6094C24.707-74.6094 6.83594-56.7383 6.83594-35.2051C6.83594-13.6719 24.7559 4.19922 46.2402 4.19922ZM46.1914-36.5234C40.5762-36.5723 35.9863-41.3574 35.9863-47.7051C35.9863-53.6621 40.5762-58.6426 46.1914-58.6426C51.8555-58.6426 56.4453-53.6621 56.4453-47.7051C56.4453-41.3574 51.8555-36.4746 46.1914-36.5234ZM28.2715-15.0879C26.5137-15.0879 25.6836-16.3086 25.6836-17.8711C25.6836-22.168 32.2266-33.252 46.1914-33.252C60.2051-33.252 66.748-22.168 66.748-17.8711C66.748-16.3086 65.918-15.0879 64.1602-15.0879Z"/>
  </g>
  <g id="Light-S" transform="matrix(1 0 0 1 1107.6 696)">
   <path d="M45.5078 3.4668C66.6992 3.4668 84.2285-14.0137 84.2285-35.2051C84.2285-56.3965 66.6504-73.877 45.5078-73.877C24.3164-73.877 6.83594-56.3965 6.83594-35.2051C6.83594-14.0137 24.3652 3.4668 45.5078 3.4668ZM45.5078-36.2793C39.9414-36.3281 35.4492-41.0156 35.4492-47.2656C35.4492-53.125 39.9414-58.0078 45.5078-58.0078C51.0742-58.0078 55.5176-53.125 55.5176-47.2656C55.5176-41.0156 51.0742-36.2305 45.5078-36.2793ZM27.4414-15.1855C25.9766-15.1855 25.293-16.1621 25.293-17.4805C25.293-21.7773 31.7383-33.0566 45.5078-33.0566C59.2285-33.0566 65.6738-21.7773 65.6738-17.4805C65.6738-16.1621 65.0391-15.1855 63.5742-15.1855Z"/>
  </g>
  <g id="Thin-S" transform="matrix(1 0 0 1 811.867 696)">
   <path d="M44.5801 2.53906C65.2832 2.53906 82.2754-14.502 82.2754-35.2051C82.2754-55.9082 65.2344-72.9492 44.5312-72.9492C23.8281-72.9492 6.83594-55.9082 6.83594-35.2051C6.83594-14.502 23.877 2.53906 44.5801 2.53906ZM44.5312-35.9375C39.1113-35.9863 34.7168-40.5273 34.7168-46.6797C34.7168-52.3926 39.1113-57.1777 44.5312-57.1777C50-57.1777 54.3457-52.3926 54.3457-46.6797C54.3457-40.5273 50-35.9375 44.5312-35.9375ZM26.3184-15.332C25.2441-15.332 24.8047-15.9668 24.8047-16.9922C24.8047-21.2891 31.1035-32.8125 44.5312-32.8125C57.959-32.8125 64.2578-21.2891 64.2578-16.9922C64.2578-15.9668 63.8672-15.332 62.793-15.332Z"/>
  </g>
  <g id="Ultralight-S" transform="matrix(1 0 0 1 515.644 696)">
   <path d="M44.043 2.00195C64.502 2.00195 81.2988-14.7461 81.2988-35.2051C81.2988-55.6641 64.502-72.4121 44.043-72.4121C23.584-72.4121 6.83594-55.6641 6.83594-35.2051C6.83594-14.7461 23.584 2.00195 44.043 2.00195ZM44.043-35.791C38.6719-35.791 34.375-40.2832 34.375-46.3379C34.375-52.0508 38.6719-56.7383 44.043-56.7383C49.4629-56.7383 53.7598-52.0508 53.7598-46.3379C53.7598-40.2832 49.4629-35.791 44.043-35.791ZM25.7324-15.4297C24.8535-15.4297 24.5605-15.8691 24.5605-16.748C24.5605-21.0449 30.8105-32.7148 44.043-32.7148C57.3242-32.7148 63.5254-21.0449 63.5254-16.748C63.5254-15.8691 63.2812-15.4297 62.4023-15.4297Z"/>
  </g>
 </g>
</svg>
