<?xml version="1.0" encoding="UTF-8"?>
<!--Generator: Apple Native CoreSVG 149-->
<!DOCTYPE svg
PUBLIC "-//W3C//DTD SVG 1.1//EN"
       "http://www.w3.org/Graphics/SVG/1.1/DTD/svg11.dtd">
<svg version="1.1" xmlns="http://www.w3.org/2000/svg" xmlns:xlink="http://www.w3.org/1999/xlink" width="3300" height="2200">
 <!--glyph: "uni1004B0.medium", point size: 100.000000, font version: "Version 16.0d18e1", template writer version: "8"-->
 <g id="Notes">
  <rect height="2200" id="artboard" style="fill:white;opacity:1" width="3300" x="0" y="0"/>
  <line id="" style="fill:none;stroke:black;opacity:1;stroke-width:0.5;" x1="263" x2="3036" y1="292" y2="292"/>
  <text style="stroke:none;fill:black;font-family:-apple-system,&quot;SF Pro Display&quot;,&quot;SF Pro Text&quot;,Helvetica,sans-serif;font-weight:bold;" transform="matrix(1 0 0 1 263 322)">Weight/Scale Variations</text>
  <text style="stroke:none;fill:black;font-family:-apple-system,&quot;SF Pro Display&quot;,&quot;SF Pro Text&quot;,Helvetica,sans-serif;text-anchor:middle;" transform="matrix(1 0 0 1 559.711 322)">Ultralight</text>
  <text style="stroke:none;fill:black;font-family:-apple-system,&quot;SF Pro Display&quot;,&quot;SF Pro Text&quot;,Helvetica,sans-serif;text-anchor:middle;" transform="matrix(1 0 0 1 856.422 322)">Thin</text>
  <text style="stroke:none;fill:black;font-family:-apple-system,&quot;SF Pro Display&quot;,&quot;SF Pro Text&quot;,Helvetica,sans-serif;text-anchor:middle;" transform="matrix(1 0 0 1 1153.13 322)">Light</text>
  <text style="stroke:none;fill:black;font-family:-apple-system,&quot;SF Pro Display&quot;,&quot;SF Pro Text&quot;,Helvetica,sans-serif;text-anchor:middle;" transform="matrix(1 0 0 1 1449.84 322)">Regular</text>
  <text style="stroke:none;fill:black;font-family:-apple-system,&quot;SF Pro Display&quot;,&quot;SF Pro Text&quot;,Helvetica,sans-serif;text-anchor:middle;" transform="matrix(1 0 0 1 1746.56 322)">Medium</text>
  <text style="stroke:none;fill:black;font-family:-apple-system,&quot;SF Pro Display&quot;,&quot;SF Pro Text&quot;,Helvetica,sans-serif;text-anchor:middle;" transform="matrix(1 0 0 1 2043.27 322)">Semibold</text>
  <text style="stroke:none;fill:black;font-family:-apple-system,&quot;SF Pro Display&quot;,&quot;SF Pro Text&quot;,Helvetica,sans-serif;text-anchor:middle;" transform="matrix(1 0 0 1 2339.98 322)">Bold</text>
  <text style="stroke:none;fill:black;font-family:-apple-system,&quot;SF Pro Display&quot;,&quot;SF Pro Text&quot;,Helvetica,sans-serif;text-anchor:middle;" transform="matrix(1 0 0 1 2636.69 322)">Heavy</text>
  <text style="stroke:none;fill:black;font-family:-apple-system,&quot;SF Pro Display&quot;,&quot;SF Pro Text&quot;,Helvetica,sans-serif;text-anchor:middle;" transform="matrix(1 0 0 1 2933.4 322)">Black</text>
  <line id="" style="fill:none;stroke:black;opacity:1;stroke-width:0.5;" x1="263" x2="3036" y1="1903" y2="1903"/>
  <g id="" transform="matrix(1 0 0 1 263 1933)">
   <path d="M9.24805 0.830078C13.5547 0.830078 17.1387-2.74414 17.1387-7.05078C17.1387-11.3574 13.5449-14.9316 9.23828-14.9316C4.94141-14.9316 1.36719-11.3574 1.36719-7.05078C1.36719-2.74414 4.95117 0.830078 9.24805 0.830078ZM9.24805-0.654297C5.70312-0.654297 2.87109-3.49609 2.87109-7.05078C2.87109-10.6055 5.69336-13.4473 9.23828-13.4473C12.793-13.4473 15.6348-10.6055 15.6445-7.05078C15.6543-3.49609 12.8027-0.654297 9.24805-0.654297ZM6.39648-6.31836L8.50586-6.31836L8.50586-4.19922C8.50586-3.75977 8.79883-3.45703 9.22852-3.45703C9.67773-3.45703 9.9707-3.75977 9.9707-4.19922L9.9707-6.31836L12.0996-6.31836C12.5391-6.31836 12.8418-6.61133 12.8418-7.04102C12.8418-7.48047 12.5391-7.7832 12.0996-7.7832L9.9707-7.7832L9.9707-9.89258C9.9707-10.3418 9.67773-10.6445 9.22852-10.6445C8.79883-10.6445 8.50586-10.3418 8.50586-9.89258L8.50586-7.7832L6.39648-7.7832C5.94727-7.7832 5.64453-7.48047 5.64453-7.04102C5.64453-6.61133 5.94727-6.31836 6.39648-6.31836Z"/>
  </g>
  <g id="" transform="matrix(1 0 0 1 281.506 1933)">
   <path d="M11.709 2.91016C17.1582 2.91016 21.6699-1.61133 21.6699-7.05078C21.6699-12.5 17.1484-17.0117 11.6992-17.0117C6.25977-17.0117 1.74805-12.5 1.74805-7.05078C1.74805-1.61133 6.26953 2.91016 11.709 2.91016ZM11.709 1.25C7.09961 1.25 3.41797-2.44141 3.41797-7.05078C3.41797-11.6602 7.08984-15.3516 11.6992-15.3516C16.3086-15.3516 20-11.6602 20.0098-7.05078C20.0195-2.44141 16.3184 1.25 11.709 1.25ZM7.98828-6.23047L10.8789-6.23047L10.8789-3.32031C10.8789-2.83203 11.2109-2.5 11.6895-2.5C12.1777-2.5 12.5195-2.83203 12.5195-3.32031L12.5195-6.23047L15.4297-6.23047C15.918-6.23047 16.25-6.5625 16.25-7.04102C16.25-7.5293 15.918-7.87109 15.4297-7.87109L12.5195-7.87109L12.5195-10.7617C12.5195-11.2695 12.1777-11.6016 11.6895-11.6016C11.2109-11.6016 10.8789-11.2598 10.8789-10.7617L10.8789-7.87109L7.98828-7.87109C7.48047-7.87109 7.14844-7.5293 7.14844-7.04102C7.14844-6.5625 7.49023-6.23047 7.98828-6.23047Z"/>
  </g>
  <g id="" transform="matrix(1 0 0 1 304.924 1933)">
   <path d="M14.9707 5.66406C21.9336 5.66406 27.6953-0.0976562 27.6953-7.05078C27.6953-14.0137 21.9238-19.7754 14.9609-19.7754C8.00781-19.7754 2.25586-14.0137 2.25586-7.05078C2.25586-0.0976562 8.01758 5.66406 14.9707 5.66406ZM14.9707 3.84766C8.93555 3.84766 4.08203-1.01562 4.08203-7.05078C4.08203-13.0957 8.92578-17.9492 14.9609-17.9492C21.0059-17.9492 25.8594-13.0957 25.8691-7.05078C25.8789-1.01562 21.0156 3.84766 14.9707 3.84766ZM10.0586-6.14258L14.0625-6.14258L14.0625-2.12891C14.0625-1.5918 14.4336-1.2207 14.9512-1.2207C15.4883-1.2207 15.8594-1.5918 15.8594-2.12891L15.8594-6.14258L19.8828-6.14258C20.4102-6.14258 20.791-6.51367 20.791-7.03125C20.791-7.56836 20.4199-7.94922 19.8828-7.94922L15.8594-7.94922L15.8594-11.9531C15.8594-12.5098 15.4883-12.8809 14.9512-12.8809C14.4336-12.8809 14.0625-12.5 14.0625-11.9531L14.0625-7.94922L10.0586-7.94922C9.50195-7.94922 9.13086-7.56836 9.13086-7.03125C9.13086-6.51367 9.51172-6.14258 10.0586-6.14258Z"/>
  </g>
  <text style="stroke:none;fill:black;font-family:-apple-system,&quot;SF Pro Display&quot;,&quot;SF Pro Text&quot;,Helvetica,sans-serif;font-weight:bold;" transform="matrix(1 0 0 1 263 1953)">Design Variations</text>
  <text style="stroke:none;fill:black;font-family:-apple-system,&quot;SF Pro Display&quot;,&quot;SF Pro Text&quot;,Helvetica,sans-serif;" transform="matrix(1 0 0 1 263 1971)">Symbols are supported in up to nine weights and three scales.</text>
  <text style="stroke:none;fill:black;font-family:-apple-system,&quot;SF Pro Display&quot;,&quot;SF Pro Text&quot;,Helvetica,sans-serif;" transform="matrix(1 0 0 1 263 1989)">For optimal layout with text and other symbols, vertically align</text>
  <text style="stroke:none;fill:black;font-family:-apple-system,&quot;SF Pro Display&quot;,&quot;SF Pro Text&quot;,Helvetica,sans-serif;" transform="matrix(1 0 0 1 263 2007)">symbols with the adjacent text.</text>
  <line id="" style="fill:none;stroke:#00AEEF;stroke-width:0.5;opacity:1.0;" x1="776" x2="776" y1="1919" y2="1933"/>
  <g id="" transform="matrix(1 0 0 1 776 1933)">
   <path d="M3.31055 0.126953C3.82812 0.126953 4.08203-0.0683594 4.26758-0.605469L5.52734-4.0625L11.2891-4.0625L12.5488-0.605469C12.7344-0.0683594 12.9883 0.126953 13.4961 0.126953C14.0137 0.126953 14.3457-0.185547 14.3457-0.673828C14.3457-0.839844 14.3164-0.986328 14.2383-1.20117L9.6582-13.3887C9.43359-13.9941 9.0332-14.2871 8.4082-14.2871C7.80273-14.2871 7.39258-13.9941 7.17773-13.3984L2.59766-1.19141C2.51953-0.976562 2.49023-0.830078 2.49023-0.664062C2.49023-0.175781 2.80273 0.126953 3.31055 0.126953ZM6.00586-5.53711L8.37891-12.1094L8.42773-12.1094L10.8008-5.53711Z"/>
  </g>
  <line id="" style="fill:none;stroke:#00AEEF;stroke-width:0.5;opacity:1.0;" x1="792.836" x2="792.836" y1="1919" y2="1933"/>
  <text style="stroke:none;fill:black;font-family:-apple-system,&quot;SF Pro Display&quot;,&quot;SF Pro Text&quot;,Helvetica,sans-serif;font-weight:bold;" transform="matrix(1 0 0 1 776 1953)">Margins</text>
  <text style="stroke:none;fill:black;font-family:-apple-system,&quot;SF Pro Display&quot;,&quot;SF Pro Text&quot;,Helvetica,sans-serif;" transform="matrix(1 0 0 1 776 1971)">Leading and trailing margins on the left and right side of each symbol</text>
  <text style="stroke:none;fill:black;font-family:-apple-system,&quot;SF Pro Display&quot;,&quot;SF Pro Text&quot;,Helvetica,sans-serif;" transform="matrix(1 0 0 1 776 1989)">can be adjusted by modifying the x-location of the margin guidelines.</text>
  <text style="stroke:none;fill:black;font-family:-apple-system,&quot;SF Pro Display&quot;,&quot;SF Pro Text&quot;,Helvetica,sans-serif;" transform="matrix(1 0 0 1 776 2007)">Modifications are automatically applied proportionally to all</text>
  <text style="stroke:none;fill:black;font-family:-apple-system,&quot;SF Pro Display&quot;,&quot;SF Pro Text&quot;,Helvetica,sans-serif;" transform="matrix(1 0 0 1 776 2025)">scales and weights.</text>
  <g id="" transform="matrix(1 0 0 1 1289 1933)">
   <path d="M2.8418 1.86523L4.54102 3.57422C5.40039 4.44336 6.38672 4.38477 7.31445 3.35938L17.4902-7.85156C17.7539-7.76367 18.0273-7.7832 18.3398-7.8418L19.4043-8.03711L20.0684-7.36328L20.0293-6.80664C19.9902-6.30859 20.1172-5.92773 20.6055-5.44922L21.3672-4.70703C21.8457-4.22852 22.4609-4.19922 22.9297-4.66797L25.8398-7.58789C26.3086-8.05664 26.2891-8.65234 25.8105-9.13086L25.0391-9.89258C24.5605-10.3711 24.1895-10.5273 23.7109-10.4883L23.1348-10.4395L22.4902-11.0742L22.7344-12.1973C22.8613-12.7637 22.7051-13.2031 22.1191-13.7891L19.9219-15.9766C16.582-19.2969 12.1484-19.2188 9.25781-16.3281C8.83789-15.918 8.80859-15.3418 9.04297-14.9512C9.27734-14.5898 9.73633-14.3555 10.3809-14.5215C11.8457-14.8633 13.3691-14.9219 14.7949-13.9844L14.209-12.5293C14.0137-12.0508 13.9844-11.6504 14.1113-11.2891L3.04688-0.898438C2.06055 0.0195312 1.98242 0.996094 2.8418 1.86523ZM10.752-15.957C13.1836-17.7344 16.4746-17.4316 18.7012-15.2051L21.1328-12.793C21.3672-12.5586 21.4062-12.373 21.3379-12.0312L21.0156-10.5469L22.5195-9.0625L23.5059-9.12109C23.7598-9.13086 23.8379-9.11133 24.0332-8.91602L24.6094-8.33984L22.168-5.89844L21.5918-6.47461C21.3965-6.66992 21.3672-6.74805 21.377-7.01172L21.4453-7.98828L19.9512-9.47266L18.4277-9.21875C18.1055-9.15039 17.959-9.17969 17.7148-9.41406L15.7129-11.416C15.459-11.6504 15.4297-11.8164 15.5859-12.1875L16.4648-14.2773C14.9023-15.7324 12.8711-16.3574 10.8398-15.7617C10.6836-15.7227 10.625-15.8496 10.752-15.957ZM5.27344 2.30469L4.10156 1.14258C3.63281 0.683594 3.74023 0.341797 4.14062-0.0195312L14.9512-10.1953L16.416-8.71094L6.42578 2.27539C6.07422 2.67578 5.74219 2.77344 5.27344 2.30469Z"/>
  </g>
  <text style="stroke:none;fill:black;font-family:-apple-system,&quot;SF Pro Display&quot;,&quot;SF Pro Text&quot;,Helvetica,sans-serif;font-weight:bold;" transform="matrix(1 0 0 1 1289 1953)">Exporting</text>
  <text style="stroke:none;fill:black;font-family:-apple-system,&quot;SF Pro Display&quot;,&quot;SF Pro Text&quot;,Helvetica,sans-serif;" transform="matrix(1 0 0 1 1289 1971)">Symbols should be outlined when exporting to ensure the</text>
  <text style="stroke:none;fill:black;font-family:-apple-system,&quot;SF Pro Display&quot;,&quot;SF Pro Text&quot;,Helvetica,sans-serif;" transform="matrix(1 0 0 1 1289 1989)">design is preserved when submitting to Xcode.</text>
  <text id="template-version" style="stroke:none;fill:black;font-family:-apple-system,&quot;SF Pro Display&quot;,&quot;SF Pro Text&quot;,Helvetica,sans-serif;text-anchor:end;" transform="matrix(1 0 0 1 3036 1933)">Template v.2.0</text>
  <text style="stroke:none;fill:black;font-family:-apple-system,&quot;SF Pro Display&quot;,&quot;SF Pro Text&quot;,Helvetica,sans-serif;text-anchor:end;" transform="matrix(1 0 0 1 3036 1951)">Requires Xcode 12 or greater</text>
  <text style="stroke:none;fill:black;font-family:-apple-system,&quot;SF Pro Display&quot;,&quot;SF Pro Text&quot;,Helvetica,sans-serif;text-anchor:end;" transform="matrix(1 0 0 1 3036 1969)">Generated from creditcard.circle.fill</text>
  <text style="stroke:none;fill:black;font-family:-apple-system,&quot;SF Pro Display&quot;,&quot;SF Pro Text&quot;,Helvetica,sans-serif;text-anchor:end;" transform="matrix(1 0 0 1 3036 1987)">Typeset at 100 points</text>
  <text style="stroke:none;fill:black;font-family:-apple-system,&quot;SF Pro Display&quot;,&quot;SF Pro Text&quot;,Helvetica,sans-serif;" transform="matrix(1 0 0 1 263 726)">Small</text>
  <text style="stroke:none;fill:black;font-family:-apple-system,&quot;SF Pro Display&quot;,&quot;SF Pro Text&quot;,Helvetica,sans-serif;" transform="matrix(1 0 0 1 263 1156)">Medium</text>
  <text style="stroke:none;fill:black;font-family:-apple-system,&quot;SF Pro Display&quot;,&quot;SF Pro Text&quot;,Helvetica,sans-serif;" transform="matrix(1 0 0 1 263 1586)">Large</text>
 </g>
 <g id="Guides">
  <g id="H-reference" style="fill:#27AAE1;stroke:none;" transform="matrix(1 0 0 1 339 696)">
   <path d="M0.976562 0L3.66211 0L12.9883-24.4629L45.752-24.4629L55.127 0L57.7637 0L30.6152-70.459L28.125-70.459ZM29.3457-67.1387L29.4434-67.1387L44.873-26.709L13.8672-26.709Z"/>
  </g>
  <line id="Baseline-S" style="fill:none;stroke:#27AAE1;opacity:1;stroke-width:0.5;" x1="263" x2="3036" y1="696" y2="696"/>
  <line id="Capline-S" style="fill:none;stroke:#27AAE1;opacity:1;stroke-width:0.5;" x1="263" x2="3036" y1="625.541" y2="625.541"/>
  <g id="H-reference" style="fill:#27AAE1;stroke:none;" transform="matrix(1 0 0 1 339 1126)">
   <path d="M0.976562 0L3.66211 0L12.9883-24.4629L45.752-24.4629L55.127 0L57.7637 0L30.6152-70.459L28.125-70.459ZM29.3457-67.1387L29.4434-67.1387L44.873-26.709L13.8672-26.709Z"/>
  </g>
  <line id="Baseline-M" style="fill:none;stroke:#27AAE1;opacity:1;stroke-width:0.5;" x1="263" x2="3036" y1="1126" y2="1126"/>
  <line id="Capline-M" style="fill:none;stroke:#27AAE1;opacity:1;stroke-width:0.5;" x1="263" x2="3036" y1="1055.54" y2="1055.54"/>
  <g id="H-reference" style="fill:#27AAE1;stroke:none;" transform="matrix(1 0 0 1 339 1556)">
   <path d="M0.976562 0L3.66211 0L12.9883-24.4629L45.752-24.4629L55.127 0L57.7637 0L30.6152-70.459L28.125-70.459ZM29.3457-67.1387L29.4434-67.1387L44.873-26.709L13.8672-26.709Z"/>
  </g>
  <line id="Baseline-L" style="fill:none;stroke:#27AAE1;opacity:1;stroke-width:0.5;" x1="263" x2="3036" y1="1556" y2="1556"/>
  <line id="Capline-L" style="fill:none;stroke:#27AAE1;opacity:1;stroke-width:0.5;" x1="263" x2="3036" y1="1485.54" y2="1485.54"/>
  <line id="left-margin" style="fill:none;stroke:#00AEEF;stroke-width:0.5;opacity:1.0;" x1="1391.3" x2="1391.3" y1="1030.79" y2="1150.12"/>
  <line id="right-margin" style="fill:none;stroke:#00AEEF;stroke-width:0.5;opacity:1.0;" x1="1508.39" x2="1508.39" y1="1030.79" y2="1150.12"/>
 </g>
 <g id="Symbols">
  <g id="Black-L" transform="matrix(1 0 0 1 2854.05 1556)">
   <path d="M79.3457 32.8613C116.748 32.8613 147.412 2.19727 147.412-35.2051C147.412-72.6074 116.748-103.271 79.2969-103.271C41.8945-103.271 11.2793-72.6074 11.2793-35.2051C11.2793 2.19727 41.9434 32.8613 79.3457 32.8613ZM116.455-48.877L42.1875-48.877L42.1875-51.3672C42.1875-58.7402 46.4844-62.8906 53.8574-62.8906L104.785-62.8906C112.158-62.8906 116.455-58.7402 116.455-51.3672ZM42.1875-40.9668L116.455-40.9668L116.455-19.043C116.455-11.6699 112.158-7.4707 104.785-7.4707L53.8574-7.4707C46.4844-7.4707 42.1875-11.6699 42.1875-19.043ZM55.8594-18.1152L63.3301-18.1152C65.1367-18.1152 66.3574-19.2383 66.3574-21.0449L66.3574-26.6602C66.3574-28.418 65.1367-29.5898 63.3301-29.5898L55.8594-29.5898C54.0527-29.5898 52.7832-28.418 52.7832-26.6602L52.7832-21.0449C52.7832-19.2383 54.0527-18.1152 55.8594-18.1152Z"/>
  </g>
  <g id="Heavy-L" transform="matrix(1 0 0 1 2558.39 1556)">
   <path d="M78.2715 31.7871C115.088 31.7871 145.312 1.5625 145.312-35.2051C145.312-72.0215 115.039-102.246 78.2715-102.246C41.4551-102.246 11.2793-72.0215 11.2793-35.2051C11.2793 1.5625 41.5039 31.7871 78.2715 31.7871ZM115.234-49.0234L41.2598-49.0234L41.2598-51.5625C41.2598-58.6914 45.2637-62.5977 52.3926-62.5977L104.102-62.5977C111.23-62.5977 115.234-58.6914 115.234-51.5625ZM41.2598-41.3086L115.234-41.3086L115.234-18.8477C115.234-11.7188 111.23-7.8125 104.102-7.8125L52.3926-7.8125C45.2637-7.8125 41.2598-11.7188 41.2598-18.8477ZM54.6387-18.1641L62.207-18.1641C64.0137-18.1641 65.2344-19.3359 65.2344-21.0938L65.2344-26.7578C65.2344-28.5645 64.0137-29.7363 62.207-29.7363L54.6387-29.7363C52.8809-29.7363 51.6113-28.5645 51.6113-26.7578L51.6113-21.0938C51.6113-19.3359 52.8809-18.1641 54.6387-18.1641Z"/>
  </g>
  <g id="Bold-L" transform="matrix(1 0 0 1 2262.88 1556)">
   <path d="M77.0996 30.5664C113.232 30.5664 142.92 0.878906 142.92-35.2539C142.92-71.3379 113.184-101.074 77.0508-101.074C40.9668-101.074 11.2793-71.3379 11.2793-35.2539C11.2793 0.878906 41.0156 30.5664 77.0996 30.5664ZM113.916-49.2188L40.1855-49.2188L40.1855-51.8066C40.1855-58.6426 43.9453-62.2559 50.7324-62.2559L103.369-62.2559C110.205-62.2559 113.916-58.5938 113.916-51.8066ZM40.1855-41.6992L113.916-41.6992L113.916-18.6035C113.916-11.8164 110.205-8.1543 103.369-8.1543L50.7324-8.1543C43.9453-8.1543 40.1855-11.7676 40.1855-18.6035ZM53.3203-18.2129L60.9375-18.2129C62.7441-18.2129 64.0137-19.3848 64.0137-21.1914L64.0137-26.9043C64.0137-28.6621 62.7441-29.8828 60.9375-29.8828L53.3203-29.8828C51.5625-29.8828 50.293-28.6621 50.293-26.9043L50.293-21.1914C50.293-19.3848 51.5625-18.2129 53.3203-18.2129Z"/>
  </g>
  <g id="Semibold-L" transform="matrix(1 0 0 1 1966.97 1556)">
   <path d="M76.2695 29.7363C111.914 29.7363 141.309 0.390625 141.309-35.2539C141.309-70.8984 111.865-100.244 76.2695-100.244C40.625-100.244 11.2793-70.8984 11.2793-35.2539C11.2793 0.390625 40.6738 29.7363 76.2695 29.7363ZM113.037-49.3164L39.4531-49.3164L39.4531-51.9531C39.4531-58.5938 43.0176-62.0117 49.6094-62.0117L102.881-62.0117C109.473-62.0117 113.037-58.5449 113.037-51.9531ZM39.4531-41.9434L113.037-41.9434L113.037-18.457C113.037-11.8652 109.473-8.39844 102.881-8.39844L49.6094-8.39844C43.0176-8.39844 39.4531-11.8652 39.4531-18.457ZM52.4414-18.2617L60.0586-18.2617C61.8652-18.2617 63.1348-19.4824 63.1348-21.2402L63.1348-27.002C63.1348-28.7598 61.8652-29.9805 60.0586-29.9805L52.4414-29.9805C50.6836-29.9805 49.4141-28.7598 49.4141-27.002L49.4141-21.2402C49.4141-19.4824 50.6836-18.2617 52.4414-18.2617Z"/>
  </g>
  <g id="Medium-L" transform="matrix(1 0 0 1 1670.87 1556)">
   <path d="M75.6836 29.1504C110.938 29.1504 140.088 0 140.088-35.2539C140.088-70.5078 110.889-99.6582 75.6348-99.6582C40.3809-99.6582 11.2793-70.5078 11.2793-35.2539C11.2793 0 40.3809 29.1504 75.6836 29.1504ZM112.305-49.4141L38.916-49.4141L38.916-52.0996C38.916-58.5449 42.334-61.8652 48.7793-61.8652L102.49-61.8652C108.936-61.8652 112.305-58.5449 112.305-52.0996ZM38.916-42.1875L112.305-42.1875L112.305-18.3594C112.305-11.9141 108.936-8.59375 102.49-8.59375L48.7793-8.59375C42.334-8.59375 38.916-11.8652 38.916-18.3594ZM51.7578-18.3105L59.375-18.3105C61.2305-18.3105 62.5-19.4824 62.5-21.2891L62.5-27.0508C62.5-28.8574 61.2305-30.0293 59.375-30.0293L51.7578-30.0293C49.9512-30.0293 48.7305-28.8574 48.7305-27.0508L48.7305-21.2891C48.7305-19.4824 49.9512-18.3105 51.7578-18.3105Z"/>
  </g>
  <g id="Regular-L" transform="matrix(1 0 0 1 1374.97 1556)">
   <path d="M74.8535 28.3203C109.668 28.3203 138.477-0.488281 138.477-35.2539C138.477-70.0684 109.619-98.877 74.8047-98.877C40.0391-98.877 11.2793-70.0684 11.2793-35.2539C11.2793-0.488281 40.0879 28.3203 74.8535 28.3203ZM111.426-49.5117L38.1836-49.5117L38.1836-52.2461C38.1836-58.4961 41.4062-61.6211 47.6562-61.6211L101.953-61.6211C108.203-61.6211 111.426-58.4961 111.426-52.2461ZM38.1836-42.4316L111.426-42.4316L111.426-18.2129C111.426-11.9629 108.203-8.83789 101.953-8.83789L47.6562-8.83789C41.4062-8.83789 38.1836-11.9141 38.1836-18.2129ZM50.8301-18.3594L58.5449-18.3594C60.3516-18.3594 61.6211-19.5312 61.6211-21.3379L61.6211-27.1484C61.6211-28.9062 60.3516-30.127 58.5449-30.127L50.8301-30.127C49.0723-30.127 47.8027-28.9062 47.8027-27.1484L47.8027-21.3379C47.8027-19.5312 49.0723-18.3594 50.8301-18.3594Z"/>
  </g>
  <g id="Light-L" transform="matrix(1 0 0 1 1079.18 1556)">
   <path d="M73.9258 27.3926C108.301 27.3926 136.621-0.927734 136.621-35.2539C136.621-69.6289 108.252-97.9492 73.9258-97.9492C39.5508-97.9492 11.2793-69.6289 11.2793-35.2539C11.2793-0.927734 39.5996 27.3926 73.9258 27.3926ZM110.01-49.6582L37.8418-49.6582L37.8418-52.1484C37.8418-58.0078 40.8691-61.0352 46.7285-61.0352L101.123-61.0352C106.934-61.0352 110.01-57.959 110.01-52.1484ZM37.8418-42.6758L110.01-42.6758L110.01-18.3105C110.01-12.5 106.934-9.47266 101.123-9.47266L46.7285-9.47266C40.8691-9.47266 37.8418-12.4512 37.8418-18.3105ZM50.0977-18.6523L57.7637-18.6523C59.6191-18.6523 60.8887-19.873 60.8887-21.6309L60.8887-27.4414C60.8887-29.248 59.6191-30.4199 57.7637-30.4199L50.0977-30.4199C48.3398-30.4199 47.1191-29.248 47.1191-27.4414L47.1191-21.6309C47.1191-19.873 48.3398-18.6523 50.0977-18.6523Z"/>
  </g>
  <g id="Thin-L" transform="matrix(1 0 0 1 783.693 1556)">
   <path d="M72.7051 26.1719C106.494 26.1719 134.18-1.51367 134.18-35.2539C134.18-69.043 106.494-96.7285 72.7051-96.7285C38.9648-96.7285 11.2793-69.043 11.2793-35.2539C11.2793-1.51367 38.9648 26.1719 72.7051 26.1719ZM108.105-49.8047L37.3047-49.8047L37.3047-52.0508C37.3047-57.373 40.1855-60.2539 45.459-60.2539L99.9512-60.2539C105.225-60.2539 108.105-57.3242 108.105-52.0508ZM37.3047-42.9688L108.105-42.9688L108.105-18.5059C108.105-13.1836 105.225-10.3027 99.9512-10.3027L45.459-10.3027C40.1855-10.3027 37.3047-13.1348 37.3047-18.5059ZM49.1699-19.0918L56.7871-19.0918C58.6426-19.0918 59.8633-20.2637 59.8633-22.0703L59.8633-27.832C59.8633-29.6387 58.6426-30.8105 56.7871-30.8105L49.1699-30.8105C47.4121-30.8105 46.1914-29.6387 46.1914-27.832L46.1914-22.0703C46.1914-20.2637 47.4121-19.0918 49.1699-19.0918Z"/>
  </g>
  <g id="Ultralight-L" transform="matrix(1 0 0 1 487.616 1556)">
   <path d="M72.1191 25.5371C105.566 25.5371 132.91-1.80664 132.91-35.2539C132.91-68.75 105.566-96.0938 72.1191-96.0938C38.623-96.0938 11.2793-68.75 11.2793-35.2539C11.2793-1.80664 38.623 25.5371 72.1191 25.5371ZM107.129-49.8535L37.0605-49.8535L37.0605-51.9531C37.0605-57.0801 39.7949-59.8633 44.8242-59.8633L99.3652-59.8633C104.395-59.8633 107.129-56.9824 107.129-51.9531ZM37.0605-43.1641L107.129-43.1641L107.129-18.6035C107.129-13.5742 104.395-10.6934 99.3652-10.6934L44.8242-10.6934C39.7949-10.6934 37.0605-13.4766 37.0605-18.6035ZM48.6816-19.2871L56.2988-19.2871C58.1543-19.2871 59.375-20.5078 59.375-22.2656L59.375-28.0273C59.375-29.834 58.1543-31.0059 56.2988-31.0059L48.6816-31.0059C46.9238-31.0059 45.7031-29.834 45.7031-28.0273L45.7031-22.2656C45.7031-20.5078 46.9238-19.2871 48.6816-19.2871Z"/>
  </g>
  <g id="Black-M" transform="matrix(1 0 0 1 2870.97 1126)">
   <path d="M62.4023 18.457C91.9922 18.457 116.113-5.61523 116.113-35.2051C116.113-64.7949 91.9922-88.8672 62.4023-88.8672C32.8125-88.8672 8.74023-64.7949 8.74023-35.2051C8.74023-5.61523 32.8125 18.457 62.4023 18.457ZM91.0645-45.6543L33.7402-45.6543L33.7402-47.3633C33.7402-53.2715 37.3535-56.7871 43.2129-56.7871L81.6406-56.7871C87.5-56.7871 91.0645-53.2715 91.0645-47.3633ZM33.7402-39.3555L91.0645-39.3555L91.0645-22.998C91.0645-17.1387 87.5-13.623 81.6406-13.623L43.2129-13.623C37.3535-13.623 33.7402-17.1387 33.7402-22.998ZM44.4824-22.0703L50.1953-22.0703C51.6113-22.0703 52.5391-22.9492 52.5391-24.3164L52.5391-28.6133C52.5391-29.9805 51.6113-30.8105 50.1953-30.8105L44.4824-30.8105C43.1152-30.8105 42.1387-29.9805 42.1387-28.6133L42.1387-24.3164C42.1387-22.9492 43.1152-22.0703 44.4824-22.0703Z"/>
  </g>
  <g id="Heavy-M" transform="matrix(1 0 0 1 2575.19 1126)">
   <path d="M61.5234 17.5293C90.5273 17.5293 114.258-6.20117 114.258-35.2051C114.258-64.2578 90.5273-87.9883 61.4746-87.9883C32.4707-87.9883 8.74023-64.2578 8.74023-35.2051C8.74023-6.20117 32.4707 17.5293 61.5234 17.5293ZM90.1367-45.8008L32.8125-45.8008L32.8125-47.6562C32.8125-53.3203 36.1816-56.5918 41.8457-56.5918L81.1523-56.5918C86.8164-56.5918 90.1367-53.3203 90.1367-47.6562ZM32.8125-39.6484L90.1367-39.6484L90.1367-22.7539C90.1367-17.0898 86.8164-13.8184 81.1523-13.8184L41.8457-13.8184C36.1816-13.8184 32.8125-17.0898 32.8125-22.7539ZM43.4082-22.0215L49.1699-22.0215C50.5371-22.0215 51.5137-22.9004 51.5137-24.2676L51.5137-28.6621C51.5137-30.0293 50.5371-30.9082 49.1699-30.9082L43.4082-30.9082C41.9922-30.9082 41.0156-30.0293 41.0156-28.6621L41.0156-24.2676C41.0156-22.9004 41.9922-22.0215 43.4082-22.0215Z"/>
  </g>
  <g id="Bold-M" transform="matrix(1 0 0 1 2279.5 1126)">
   <path d="M60.498 16.5039C88.8672 16.5039 112.207-6.83594 112.207-35.2051C112.207-63.623 88.8672-86.9629 60.4492-86.9629C32.0312-86.9629 8.74023-63.623 8.74023-35.2051C8.74023-6.83594 32.0801 16.5039 60.498 16.5039ZM89.1113-45.9473L31.7871-45.9473L31.7871-47.9492C31.7871-53.418 34.8633-56.3965 40.332-56.3965L80.5664-56.3965C86.0352-56.3965 89.1113-53.418 89.1113-47.9492ZM31.7871-39.9902L89.1113-39.9902L89.1113-22.4609C89.1113-16.9922 86.0352-14.0137 80.5664-14.0137L40.332-14.0137C34.8633-14.0137 31.7871-16.9922 31.7871-22.4609ZM42.1387-22.0215L47.998-22.0215C49.4141-22.0215 50.3418-22.9004 50.3418-24.2676L50.3418-28.7109C50.3418-30.0781 49.4141-30.957 47.998-30.957L42.1387-30.957C40.7715-30.957 39.7949-30.0781 39.7949-28.7109L39.7949-24.2676C39.7949-22.9004 40.7715-22.0215 42.1387-22.0215Z"/>
  </g>
  <g id="Semibold-M" transform="matrix(1 0 0 1 1983.5 1126)">
   <path d="M59.7656 15.8203C87.7441 15.8203 110.791-7.27539 110.791-35.2539C110.791-63.2324 87.6953-86.2793 59.7656-86.2793C31.7871-86.2793 8.74023-63.2324 8.74023-35.2539C8.74023-7.27539 31.7871 15.8203 59.7656 15.8203ZM88.4277-46.0449L31.1035-46.0449L31.1035-48.1445C31.1035-53.4668 33.9844-56.25 39.3066-56.25L80.1758-56.25C85.498-56.25 88.4277-53.4668 88.4277-48.1445ZM31.1035-40.2344L88.4277-40.2344L88.4277-22.3145C88.4277-16.9922 85.498-14.1602 80.1758-14.1602L39.3066-14.1602C33.9844-14.1602 31.1035-16.9434 31.1035-22.3145ZM41.3086-21.9727L47.2168-21.9727C48.584-21.9727 49.5605-22.9004 49.5605-24.2676L49.5605-28.7598C49.5605-30.127 48.584-31.0059 47.2168-31.0059L41.3086-31.0059C39.9414-31.0059 38.9648-30.127 38.9648-28.7598L38.9648-24.2676C38.9648-22.9004 39.9414-21.9727 41.3086-21.9727Z"/>
  </g>
  <g id="Medium-M" transform="matrix(1 0 0 1 1687.3 1126)">
   <path d="M59.2285 15.2344C86.9141 15.2344 109.766-7.61719 109.766-35.2539C109.766-62.8906 86.8652-85.7422 59.1797-85.7422C31.543-85.7422 8.74023-62.8906 8.74023-35.2539C8.74023-7.61719 31.5918 15.2344 59.2285 15.2344ZM87.8906-46.1426L30.5664-46.1426L30.5664-48.291C30.5664-53.5156 33.3008-56.1523 38.5254-56.1523L79.9316-56.1523C85.1074-56.1523 87.8906-53.4668 87.8906-48.291ZM30.5664-40.4297L87.8906-40.4297L87.8906-22.168C87.8906-16.9434 85.1074-14.2578 79.9316-14.2578L38.5254-14.2578C33.3008-14.2578 30.5664-16.9434 30.5664-22.168ZM40.6738-21.9727L46.582-21.9727C47.998-21.9727 48.9746-22.9004 48.9746-24.2676L48.9746-28.7598C48.9746-30.127 47.998-31.0547 46.582-31.0547L40.6738-31.0547C39.3066-31.0547 38.2812-30.127 38.2812-28.7598L38.2812-24.2676C38.2812-22.9004 39.3066-21.9727 40.6738-21.9727Z"/>
  </g>
  <g id="Regular-M" transform="matrix(1 0 0 1 1391.3 1126)">
   <path d="M58.5449 14.5508C85.791 14.5508 108.35-8.05664 108.35-35.2539C108.35-62.5 85.7422-85.0586 58.4961-85.0586C31.2988-85.0586 8.74023-62.5 8.74023-35.2539C8.74023-8.05664 31.3477 14.5508 58.5449 14.5508ZM87.1582-46.2402L29.834-46.2402L29.834-48.4863C29.834-53.5645 32.4219-56.0059 37.4512-56.0059L79.541-56.0059C84.5703-56.0059 87.1582-53.5156 87.1582-48.4863ZM29.834-40.6738L87.1582-40.6738L87.1582-21.9727C87.1582-16.8945 84.5703-14.4043 79.541-14.4043L37.4512-14.4043C32.4219-14.4043 29.834-16.8945 29.834-21.9727ZM39.7949-21.9727L45.8008-21.9727C47.2168-21.9727 48.1934-22.9004 48.1934-24.2676L48.1934-28.8086C48.1934-30.1758 47.2168-31.1035 45.8008-31.1035L39.7949-31.1035C38.4277-31.1035 37.4512-30.1758 37.4512-28.8086L37.4512-24.2676C37.4512-22.9004 38.4277-21.9727 39.7949-21.9727Z"/>
  </g>
  <g id="Light-M" transform="matrix(1 0 0 1 1095.42 1126)">
   <path d="M57.7148 13.7207C84.5215 13.7207 106.689-8.44727 106.689-35.2539C106.689-62.1094 84.5215-84.2285 57.666-84.2285C30.8594-84.2285 8.74023-62.1094 8.74023-35.2539C8.74023-8.44727 30.9082 13.7207 57.7148 13.7207ZM85.8887-46.3379L29.4922-46.3379L29.4922-48.3887C29.4922-53.125 31.9336-55.4688 36.6211-55.4688L78.7598-55.4688C83.4473-55.4688 85.8887-53.0762 85.8887-48.3887ZM29.4922-40.8691L85.8887-40.8691L85.8887-22.0703C85.8887-17.3828 83.4473-14.9902 78.7598-14.9902L36.6211-14.9902C31.9336-14.9902 29.4922-17.334 29.4922-22.0703ZM39.1602-22.2656L45.1172-22.2656C46.5332-22.2656 47.5098-23.1934 47.5098-24.5605L47.5098-29.0527C47.5098-30.4688 46.5332-31.3965 45.1172-31.3965L39.1602-31.3965C37.793-31.3965 36.8164-30.4688 36.8164-29.0527L36.8164-24.5605C36.8164-23.1934 37.793-22.2656 39.1602-22.2656Z"/>
  </g>
  <g id="Thin-M" transform="matrix(1 0 0 1 799.806 1126)">
   <path d="M56.6406 12.5977C82.9102 12.5977 104.492-8.98438 104.492-35.2539C104.492-61.5723 82.9102-83.1543 56.5918-83.1543C30.3223-83.1543 8.74023-61.5723 8.74023-35.2539C8.74023-8.98438 30.3223 12.5977 56.6406 12.5977ZM84.1797-46.4844L29.0039-46.4844L29.0039-48.291C29.0039-52.5391 31.2988-54.7852 35.498-54.7852L77.7344-54.7852C81.9336-54.7852 84.1797-52.4902 84.1797-48.291ZM29.0039-41.1621L84.1797-41.1621L84.1797-22.2168C84.1797-18.0176 81.9336-15.7227 77.7344-15.7227L35.498-15.7227C31.2988-15.7227 29.0039-17.9688 29.0039-22.2168ZM38.3301-22.6074L44.2383-22.6074C45.6543-22.6074 46.6309-23.5352 46.6309-24.9023L46.6309-29.4434C46.6309-30.8105 45.6543-31.7383 44.2383-31.7383L38.3301-31.7383C36.9629-31.7383 35.9863-30.8105 35.9863-29.4434L35.9863-24.9023C35.9863-23.5352 36.9629-22.6074 38.3301-22.6074Z"/>
  </g>
  <g id="Ultralight-M" transform="matrix(1 0 0 1 503.656 1126)">
   <path d="M56.0547 12.0605C82.0801 12.0605 103.369-9.22852 103.369-35.2539C103.369-61.2793 82.0801-82.5684 56.0547-82.5684C30.0293-82.5684 8.74023-61.2793 8.74023-35.2539C8.74023-9.22852 30.0293 12.0605 56.0547 12.0605ZM83.3496-46.5332L28.8086-46.5332L28.8086-48.2422C28.8086-52.2461 30.957-54.4434 34.9121-54.4434L77.1973-54.4434C81.1523-54.4434 83.3496-52.1973 83.3496-48.2422ZM28.8086-41.3086L83.3496-41.3086L83.3496-22.3145C83.3496-18.3105 81.1523-16.1133 77.1973-16.1133L34.9121-16.1133C30.957-16.1133 28.8086-18.2617 28.8086-22.3145ZM37.8906-22.8027L43.7988-22.8027C45.2148-22.8027 46.1426-23.7305 46.1426-25.0977L46.1426-29.5898C46.1426-30.957 45.2148-31.9336 43.7988-31.9336L37.8906-31.9336C36.5234-31.9336 35.5469-30.957 35.5469-29.5898L35.5469-25.0977C35.5469-23.7305 36.5234-22.8027 37.8906-22.8027Z"/>
  </g>
  <g id="Black-S" transform="matrix(1 0 0 1 2884.57 696)">
   <path d="M48.8281 6.78711C71.9727 6.78711 90.8203-12.0605 90.8203-35.2051C90.8203-58.3496 71.9727-77.1973 48.8281-77.1973C25.6836-77.1973 6.83594-58.3496 6.83594-35.2051C6.83594-12.0605 25.6836 6.78711 48.8281 6.78711ZM71.2891-43.4082L26.3672-43.4082L26.3672-44.7754C26.3672-49.3652 29.1504-52.0996 33.7402-52.0996L63.916-52.0996C68.5059-52.0996 71.2891-49.3652 71.2891-44.7754ZM26.3672-38.4766L71.2891-38.4766L71.2891-25.6348C71.2891-21.0449 68.5059-18.3105 63.916-18.3105L33.7402-18.3105C29.1504-18.3105 26.3672-21.0449 26.3672-25.6348ZM34.7656-24.9023L39.2578-24.9023C40.332-24.9023 41.0645-25.5859 41.0645-26.6602L41.0645-30.0293C41.0645-31.1035 40.332-31.7871 39.2578-31.7871L34.7656-31.7871C33.6914-31.7871 32.9102-31.1035 32.9102-30.0293L32.9102-26.6602C32.9102-25.5859 33.6914-24.9023 34.7656-24.9023Z"/>
  </g>
  <g id="Heavy-S" transform="matrix(1 0 0 1 2588.47 696)">
   <path d="M48.2422 6.15234C70.9961 6.15234 89.5996-12.4512 89.5996-35.2051C89.5996-57.959 70.9961-76.6113 48.1934-76.6113C25.4395-76.6113 6.83594-57.959 6.83594-35.2051C6.83594-12.4512 25.4395 6.15234 48.2422 6.15234ZM70.7031-43.5059L25.6836-43.5059L25.6836-44.9707C25.6836-49.4629 28.3203-52.002 32.8125-52.002L63.623-52.002C68.1152-52.002 70.7031-49.4629 70.7031-44.9707ZM25.6836-38.6719L70.7031-38.6719L70.7031-25.4395C70.7031-20.9473 68.1152-18.4082 63.623-18.4082L32.8125-18.4082C28.3203-18.4082 25.6836-20.9473 25.6836-25.4395ZM33.9844-24.8535L38.5254-24.8535C39.5996-24.8535 40.3809-25.5371 40.3809-26.6113L40.3809-30.0293C40.3809-31.1035 39.5996-31.7871 38.5254-31.7871L33.9844-31.7871C32.9102-31.7871 32.1289-31.1035 32.1289-30.0293L32.1289-26.6113C32.1289-25.5371 32.9102-24.8535 33.9844-24.8535Z"/>
  </g>
  <g id="Bold-S" transform="matrix(1 0 0 1 2292.44 696)">
   <path d="M47.5586 5.46875C69.873 5.46875 88.2324-12.8906 88.2324-35.2539C88.2324-57.5684 69.873-75.9277 47.5098-75.9277C25.1953-75.9277 6.83594-57.5684 6.83594-35.2539C6.83594-12.8906 25.1953 5.46875 47.5586 5.46875ZM70.0684-43.6035L24.9512-43.6035L24.9512-45.2148C24.9512-49.5605 27.3926-51.9531 31.7383-51.9531L63.2812-51.9531C67.6758-51.9531 70.0684-49.5605 70.0684-45.2148ZM24.9512-38.916L70.0684-38.916L70.0684-25.1953C70.0684-20.8496 67.6758-18.457 63.2812-18.457L31.7383-18.457C27.3926-18.457 24.9512-20.8496 24.9512-25.1953ZM33.1055-24.8047L37.6953-24.8047C38.8184-24.8047 39.5508-25.4883 39.5508-26.5625L39.5508-30.0293C39.5508-31.1035 38.8184-31.8359 37.6953-31.8359L33.1055-31.8359C32.0312-31.8359 31.2988-31.1035 31.2988-30.0293L31.2988-26.5625C31.2988-25.4883 32.0312-24.8047 33.1055-24.8047Z"/>
  </g>
  <g id="Semibold-S" transform="matrix(1 0 0 1 1996.2 696)">
   <path d="M47.0703 4.98047C69.0918 4.98047 87.3047-13.1836 87.3047-35.2539C87.3047-57.2754 69.0918-75.4883 47.0215-75.4883C25-75.4883 6.83594-57.2754 6.83594-35.2539C6.83594-13.1836 25.0488 4.98047 47.0703 4.98047ZM69.6777-43.7012L24.4141-43.7012L24.4141-45.3613C24.4141-49.6582 26.7578-51.8555 31.0059-51.8555L63.0859-51.8555C67.334-51.8555 69.6777-49.6582 69.6777-45.3613ZM24.4141-39.1113L69.6777-39.1113L69.6777-25.0488C69.6777-20.752 67.334-18.5547 63.0859-18.5547L31.0059-18.5547C26.7578-18.5547 24.4141-20.752 24.4141-25.0488ZM32.5195-24.7559L37.1582-24.7559C38.2812-24.7559 39.0137-25.4883 39.0137-26.5625L39.0137-30.0781C39.0137-31.1523 38.2812-31.8359 37.1582-31.8359L32.5195-31.8359C31.4453-31.8359 30.6641-31.1523 30.6641-30.0781L30.6641-26.5625C30.6641-25.4883 31.4453-24.7559 32.5195-24.7559Z"/>
  </g>
  <g id="Medium-S" transform="matrix(1 0 0 1 1699.83 696)">
   <path d="M46.7285 4.63867C68.5547 4.63867 86.6211-13.4277 86.6211-35.2539C86.6211-57.0801 68.5059-75.1465 46.6797-75.1465C24.8535-75.1465 6.83594-57.0801 6.83594-35.2539C6.83594-13.4277 24.9023 4.63867 46.7285 4.63867ZM69.3359-43.75L24.0234-43.75L24.0234-45.5078C24.0234-49.707 26.2695-51.8555 30.4688-51.8555L62.8906-51.8555C67.1387-51.8555 69.3359-49.707 69.3359-45.5078ZM24.0234-39.209L69.3359-39.209L69.3359-24.9512C69.3359-20.7031 67.1387-18.6035 62.8906-18.6035L30.4688-18.6035C26.2695-18.6035 24.0234-20.7031 24.0234-24.9512ZM32.0801-24.7559L36.7188-24.7559C37.8418-24.7559 38.623-25.4395 38.623-26.5137L38.623-30.0781C38.623-31.1523 37.8418-31.8848 36.7188-31.8848L32.0801-31.8848C31.0059-31.8848 30.2246-31.1523 30.2246-30.0781L30.2246-26.5137C30.2246-25.4395 31.0059-24.7559 32.0801-24.7559Z"/>
  </g>
  <g id="Regular-S" transform="matrix(1 0 0 1 1403.58 696)">
   <path d="M46.2402 4.15039C67.7734 4.15039 85.6934-13.7207 85.6934-35.2539C85.6934-56.7871 67.7246-74.6582 46.1914-74.6582C24.707-74.6582 6.83594-56.7871 6.83594-35.2539C6.83594-13.7207 24.7559 4.15039 46.2402 4.15039ZM68.8965-43.7988L23.5352-43.7988L23.5352-45.6543C23.5352-49.8047 25.5859-51.7578 29.7363-51.7578L62.6953-51.7578C66.7969-51.7578 68.8965-49.8047 68.8965-45.6543ZM23.5352-39.4043L68.8965-39.4043L68.8965-24.7559C68.8965-20.6543 66.7969-18.6523 62.6953-18.6523L29.7363-18.6523C25.5859-18.6523 23.5352-20.6055 23.5352-24.7559ZM31.4941-24.707L36.1816-24.707C37.3047-24.707 38.0859-25.4395 38.0859-26.5137L38.0859-30.0781C38.0859-31.1523 37.3047-31.8848 36.1816-31.8848L31.4941-31.8848C30.4199-31.8848 29.6387-31.1523 29.6387-30.0781L29.6387-26.5137C29.6387-25.4395 30.4199-24.707 31.4941-24.707Z"/>
  </g>
  <g id="Light-S" transform="matrix(1 0 0 1 1107.6 696)">
   <path d="M45.5078 3.41797C66.6992 3.41797 84.2285-14.0625 84.2285-35.2539C84.2285-56.4453 66.6504-73.9258 45.5078-73.9258C24.3164-73.9258 6.83594-56.4453 6.83594-35.2539C6.83594-14.0625 24.3652 3.41797 45.5078 3.41797ZM67.7734-43.8965L23.2422-43.8965L23.2422-45.5566C23.2422-49.4141 25.1953-51.3184 29.0039-51.3184L61.9629-51.3184C65.8203-51.3184 67.7734-49.3652 67.7734-45.5566ZM23.2422-39.5996L67.7734-39.5996L67.7734-24.8535C67.7734-21.0449 65.8203-19.1406 61.9629-19.1406L29.0039-19.1406C25.1953-19.1406 23.2422-21.0449 23.2422-24.8535ZM30.9082-24.9512L35.5957-24.9512C36.7188-24.9512 37.5-25.6836 37.5-26.7578L37.5-30.3223C37.5-31.3965 36.7188-32.1289 35.5957-32.1289L30.9082-32.1289C29.834-32.1289 29.1016-31.3965 29.1016-30.3223L29.1016-26.7578C29.1016-25.6836 29.834-24.9512 30.9082-24.9512Z"/>
  </g>
  <g id="Thin-S" transform="matrix(1 0 0 1 811.867 696)">
   <path d="M44.5801 2.49023C65.2832 2.49023 82.2754-14.5508 82.2754-35.2539C82.2754-55.957 65.2344-72.998 44.5312-72.998C23.8281-72.998 6.83594-55.957 6.83594-35.2539C6.83594-14.5508 23.877 2.49023 44.5801 2.49023ZM66.2598-43.9941L22.8027-43.9941L22.8027-45.459C22.8027-48.9258 24.6094-50.6836 28.0273-50.6836L61.084-50.6836C64.4531-50.6836 66.2598-48.877 66.2598-45.459ZM22.8027-39.8438L66.2598-39.8438L66.2598-25C66.2598-21.6309 64.4531-19.7754 61.084-19.7754L28.0273-19.7754C24.6094-19.7754 22.8027-21.582 22.8027-25ZM30.1758-25.293L34.8145-25.293C35.9375-25.293 36.6699-26.0254 36.6699-27.0996L36.6699-30.6152C36.6699-31.6895 35.9375-32.4219 34.8145-32.4219L30.1758-32.4219C29.1016-32.4219 28.3691-31.6895 28.3691-30.6152L28.3691-27.0996C28.3691-26.0254 29.1016-25.293 30.1758-25.293Z"/>
  </g>
  <g id="Ultralight-S" transform="matrix(1 0 0 1 515.644 696)">
   <path d="M44.043 1.95312C64.502 1.95312 81.2988-14.7949 81.2988-35.2539C81.2988-55.7129 64.502-72.4609 44.043-72.4609C23.584-72.4609 6.83594-55.7129 6.83594-35.2539C6.83594-14.7949 23.584 1.95312 44.043 1.95312ZM65.5273-44.0918L22.6074-44.0918L22.6074-45.4102C22.6074-48.6328 24.3164-50.3418 27.4902-50.3418L60.5957-50.3418C63.7695-50.3418 65.5273-48.584 65.5273-45.4102ZM22.6074-39.9414L65.5273-39.9414L65.5273-25.0977C65.5273-21.9238 63.7695-20.1172 60.5957-20.1172L27.4902-20.1172C24.3164-20.1172 22.6074-21.875 22.6074-25.0977ZM29.7852-25.4395L34.4238-25.4395C35.5469-25.4395 36.2793-26.1719 36.2793-27.2461L36.2793-30.7617C36.2793-31.8359 35.5469-32.5684 34.4238-32.5684L29.7852-32.5684C28.7109-32.5684 27.9785-31.8359 27.9785-30.7617L27.9785-27.2461C27.9785-26.1719 28.7109-25.4395 29.7852-25.4395Z"/>
  </g>
 </g>
</svg>
